<?xml version="1.0" encoding="utf-8" standalone="no"?>
<!DOCTYPE svg PUBLIC "-//W3C//DTD SVG 1.1//EN"
  "http://www.w3.org/Graphics/SVG/1.1/DTD/svg11.dtd">
<svg xmlns:xlink="http://www.w3.org/1999/xlink" width="360pt" height="360pt" viewBox="0 0 360 360" xmlns="http://www.w3.org/2000/svg" version="1.1">
 <metadata>
  <rdf:RDF xmlns:dc="http://purl.org/dc/elements/1.1/" xmlns:cc="http://creativecommons.org/ns#" xmlns:rdf="http://www.w3.org/1999/02/22-rdf-syntax-ns#">
   <cc:Work>
    <dc:type rdf:resource="http://purl.org/dc/dcmitype/StillImage"/>
    <dc:date>2022-08-09T09:22:47.618626</dc:date>
    <dc:format>image/svg+xml</dc:format>
    <dc:creator>
     <cc:Agent>
      <dc:title>Matplotlib v3.5.2, https://matplotlib.org/</dc:title>
     </cc:Agent>
    </dc:creator>
   </cc:Work>
  </rdf:RDF>
 </metadata>
 <defs>
  <style type="text/css">*{stroke-linejoin: round; stroke-linecap: butt}</style>
 </defs>
 <g id="figure_1">
  <g id="patch_1">
   <path d="M 0 360 
L 360 360 
L 360 0 
L 0 0 
L 0 360 
z
" style="fill: none"/>
  </g>
  <g id="axes_1">
   <g id="patch_2">
    <path d="M 66.62 305.08 
L 329.335833 305.08 
L 329.335833 15.12 
L 66.62 15.12 
L 66.62 305.08 
z
" style="fill: none"/>
   </g>
   <g id="patch_3">
    <path d="M 75.377194 305.08 
L 145.43475 305.08 
L 145.43475 28.927619 
L 75.377194 28.927619 
z
" clip-path="url(#p5397ab86b6)" style="fill: #96cac1"/>
   </g>
   <g id="patch_4">
    <path d="M 162.949139 305.08 
L 233.006694 305.08 
L 233.006694 302.449977 
L 162.949139 302.449977 
z
" clip-path="url(#p5397ab86b6)" style="fill: #f5f6bc"/>
   </g>
   <g id="patch_5">
    <path d="M 250.521083 305.08 
L 320.578639 305.08 
L 320.578639 284.039819 
L 250.521083 284.039819 
z
" clip-path="url(#p5397ab86b6)" style="fill: #c2bfd5"/>
   </g>
   <g id="matplotlib.axis_1">
    <g id="xtick_1">
     <g id="line2d_1">
      <defs>
       <path id="m16efd302f4" d="M 0 0 
L 0 3.5 
" style="stroke: #ffffff; stroke-width: 0.8"/>
      </defs>
      <g>
       <use xlink:href="#m16efd302f4" x="110.405972" y="305.08" style="fill: #ffffff; stroke: #ffffff; stroke-width: 0.8"/>
      </g>
     </g>
     <g id="text_1">
      <!-- Paper citation -->
      <g style="fill: #ffffff" transform="translate(66.80691 323.625625)scale(0.14 -0.14)">
       <defs>
        <path id="Futura-Medium-50" d="M 1306 1959 
L 1306 0 
L 578 0 
L 578 4825 
L 1403 4825 
Q 2009 4825 2319 4741 
Q 2631 4656 2869 4422 
Q 3284 4016 3284 3397 
Q 3284 2734 2840 2346 
Q 2397 1959 1644 1959 
L 1306 1959 
z
M 1306 2634 
L 1578 2634 
Q 2581 2634 2581 3406 
Q 2581 4153 1547 4153 
L 1306 4153 
L 1306 2634 
z
" transform="scale(0.015625)"/>
        <path id="Futura-Medium-61" d="M 2688 3044 
L 3394 3044 
L 3394 0 
L 2688 0 
L 2688 319 
Q 2253 -88 1753 -88 
Q 1122 -88 709 369 
Q 300 834 300 1531 
Q 300 2216 709 2672 
Q 1119 3128 1734 3128 
Q 2266 3128 2688 2691 
L 2688 3044 
z
M 1019 1531 
Q 1019 1094 1253 819 
Q 1494 541 1859 541 
Q 2250 541 2491 809 
Q 2731 1088 2731 1516 
Q 2731 1944 2491 2222 
Q 2250 2494 1866 2494 
Q 1503 2494 1259 2219 
Q 1019 1941 1019 1531 
z
" transform="scale(0.015625)"/>
        <path id="Futura-Medium-70" d="M 1147 -1656 
L 444 -1656 
L 444 3044 
L 1147 3044 
L 1147 2713 
Q 1563 3128 2091 3128 
Q 2719 3128 3125 2666 
Q 3538 2206 3538 1506 
Q 3538 822 3128 366 
Q 2722 -88 2103 -88 
Q 1569 -88 1147 341 
L 1147 -1656 
z
M 2819 1503 
Q 2819 1941 2581 2216 
Q 2341 2494 1975 2494 
Q 1588 2494 1347 2225 
Q 1106 1956 1106 1519 
Q 1106 1091 1347 813 
Q 1584 541 1972 541 
Q 2338 541 2575 816 
Q 2819 1091 2819 1503 
z
" transform="scale(0.015625)"/>
        <path id="Futura-Medium-65" d="M 3216 1356 
L 1034 1356 
Q 1063 981 1278 759 
Q 1494 541 1831 541 
Q 2094 541 2266 666 
Q 2434 791 2650 1128 
L 3244 797 
Q 3106 563 2953 395 
Q 2800 228 2625 120 
Q 2450 13 2247 -37 
Q 2044 -88 1806 -88 
Q 1125 -88 713 350 
Q 300 791 300 1519 
Q 300 2241 700 2688 
Q 1103 3128 1769 3128 
Q 2441 3128 2831 2700 
Q 3219 2275 3219 1522 
L 3216 1356 
z
M 2494 1931 
Q 2347 2494 1784 2494 
Q 1656 2494 1543 2455 
Q 1431 2416 1339 2342 
Q 1247 2269 1181 2166 
Q 1116 2063 1081 1931 
L 2494 1931 
z
" transform="scale(0.015625)"/>
        <path id="Futura-Medium-72" d="M 444 3044 
L 1147 3044 
L 1147 2772 
Q 1341 2975 1491 3050 
Q 1644 3128 1853 3128 
Q 2131 3128 2434 2947 
L 2113 2303 
Q 1913 2447 1722 2447 
Q 1147 2447 1147 1578 
L 1147 0 
L 444 0 
L 444 3044 
z
" transform="scale(0.015625)"/>
        <path id="Futura-Medium-20" transform="scale(0.015625)"/>
        <path id="Futura-Medium-63" d="M 2813 2913 
L 2813 1978 
Q 2572 2272 2381 2381 
Q 2194 2494 1941 2494 
Q 1544 2494 1281 2216 
Q 1019 1938 1019 1519 
Q 1019 1091 1272 816 
Q 1528 541 1925 541 
Q 2178 541 2372 650 
Q 2559 756 2813 1063 
L 2813 134 
Q 2384 -88 1956 -88 
Q 1250 -88 775 369 
Q 300 828 300 1509 
Q 300 2191 781 2659 
Q 1263 3128 1963 3128 
Q 2413 3128 2813 2913 
z
" transform="scale(0.015625)"/>
        <path id="Futura-Medium-69" d="M 1147 3044 
L 1147 0 
L 444 0 
L 444 3044 
L 1147 3044 
z
M 338 4309 
Q 338 4494 472 4628 
Q 606 4763 794 4763 
Q 984 4763 1119 4628 
Q 1253 4497 1253 4306 
Q 1253 4116 1119 3981 
Q 988 3847 797 3847 
Q 606 3847 472 3981 
Q 338 4116 338 4309 
z
" transform="scale(0.015625)"/>
        <path id="Futura-Medium-74" d="M 1169 2388 
L 1169 0 
L 466 0 
L 466 2388 
L 166 2388 
L 166 3044 
L 466 3044 
L 466 4159 
L 1169 4159 
L 1169 3044 
L 1716 3044 
L 1716 2388 
L 1169 2388 
z
" transform="scale(0.015625)"/>
        <path id="Futura-Medium-6f" d="M 300 1544 
Q 300 2203 772 2665 
Q 1244 3128 1922 3128 
Q 2603 3128 3078 2663 
Q 3547 2197 3547 1519 
Q 3547 834 3075 372 
Q 2600 -88 1909 -88 
Q 1225 -88 763 381 
Q 300 844 300 1544 
z
M 1019 1531 
Q 1019 1075 1263 809 
Q 1513 541 1922 541 
Q 2334 541 2581 806 
Q 2828 1072 2828 1516 
Q 2828 1959 2581 2225 
Q 2331 2494 1922 2494 
Q 1519 2494 1269 2225 
Q 1019 1956 1019 1531 
z
" transform="scale(0.015625)"/>
        <path id="Futura-Medium-6e" d="M 444 3044 
L 1150 3044 
L 1150 2763 
Q 1519 3128 1981 3128 
Q 2513 3128 2809 2794 
Q 3066 2509 3066 1866 
L 3066 0 
L 2359 0 
L 2359 1700 
Q 2359 2150 2234 2322 
Q 2113 2497 1791 2497 
Q 1441 2497 1294 2266 
Q 1150 2038 1150 1469 
L 1150 0 
L 444 0 
L 444 3044 
z
" transform="scale(0.015625)"/>
       </defs>
       <use xlink:href="#Futura-Medium-50"/>
       <use xlink:href="#Futura-Medium-61" x="51.378906"/>
       <use xlink:href="#Futura-Medium-70" x="111.339844"/>
       <use xlink:href="#Futura-Medium-65" x="171.300781"/>
       <use xlink:href="#Futura-Medium-72" x="226.623047"/>
       <use xlink:href="#Futura-Medium-20" x="264.025391"/>
       <use xlink:href="#Futura-Medium-63" x="294.884766"/>
       <use xlink:href="#Futura-Medium-69" x="342.541016"/>
       <use xlink:href="#Futura-Medium-74" x="367.443359"/>
       <use xlink:href="#Futura-Medium-61" x="395.662109"/>
       <use xlink:href="#Futura-Medium-74" x="455.623047"/>
       <use xlink:href="#Futura-Medium-69" x="482.966797"/>
       <use xlink:href="#Futura-Medium-6f" x="507.869141"/>
       <use xlink:href="#Futura-Medium-6e" x="567.976562"/>
      </g>
     </g>
    </g>
    <g id="xtick_2">
     <g id="line2d_2">
      <g>
       <use xlink:href="#m16efd302f4" x="197.977917" y="305.08" style="fill: #ffffff; stroke: #ffffff; stroke-width: 0.8"/>
      </g>
     </g>
     <g id="text_2">
      <!-- No -->
      <g style="fill: #ffffff" transform="translate(187.816979 323.625625)scale(0.14 -0.14)">
       <defs>
        <path id="Futura-Medium-4e" d="M 578 0 
L 578 5153 
L 4097 1472 
L 4097 4825 
L 4825 4825 
L 4825 -294 
L 1306 3378 
L 1306 0 
L 578 0 
z
" transform="scale(0.015625)"/>
       </defs>
       <use xlink:href="#Futura-Medium-4e"/>
       <use xlink:href="#Futura-Medium-6f" x="85.048828"/>
      </g>
     </g>
    </g>
    <g id="xtick_3">
     <g id="line2d_3">
      <g>
       <use xlink:href="#m16efd302f4" x="285.549861" y="305.08" style="fill: #ffffff; stroke: #ffffff; stroke-width: 0.8"/>
      </g>
     </g>
     <g id="text_3">
      <!-- Mentioned by name -->
      <g style="fill: #ffffff" transform="translate(221.68908 323.625625)scale(0.14 -0.14)">
       <defs>
        <path id="Futura-Medium-4d" d="M 409 0 
L 1425 5188 
L 3081 1438 
L 4797 5188 
L 5709 0 
L 4963 0 
L 4497 2913 
L 3069 -222 
L 1681 2916 
L 1163 0 
L 409 0 
z
" transform="scale(0.015625)"/>
        <path id="Futura-Medium-64" d="M 2688 5278 
L 3394 5278 
L 3394 0 
L 2688 0 
L 2688 319 
Q 2272 -88 1747 -88 
Q 1122 -88 709 369 
Q 300 834 300 1531 
Q 300 2213 709 2669 
Q 1116 3128 1731 3128 
Q 2266 3128 2688 2691 
L 2688 5278 
z
M 1019 1531 
Q 1019 1094 1253 819 
Q 1494 541 1859 541 
Q 2250 541 2491 809 
Q 2731 1088 2731 1516 
Q 2731 1944 2491 2222 
Q 2250 2494 1866 2494 
Q 1503 2494 1259 2219 
Q 1019 1941 1019 1531 
z
" transform="scale(0.015625)"/>
        <path id="Futura-Medium-62" d="M 1147 5278 
L 1147 2691 
Q 1569 3128 2103 3128 
Q 2719 3128 3128 2669 
Q 3538 2213 3538 1531 
Q 3538 828 3125 369 
Q 2716 -88 2091 -88 
Q 1563 -88 1147 319 
L 1147 0 
L 444 0 
L 444 5278 
L 1147 5278 
z
M 2819 1500 
Q 2819 1938 2581 2213 
Q 2341 2494 1978 2494 
Q 1591 2494 1347 2222 
Q 1106 1953 1106 1522 
Q 1106 1078 1344 813 
Q 1581 541 1969 541 
Q 2334 541 2575 813 
Q 2819 1088 2819 1500 
z
" transform="scale(0.015625)"/>
        <path id="Futura-Medium-79" d="M 1403 566 
L 34 3044 
L 850 3044 
L 1781 1294 
L 2650 3044 
L 3444 3044 
L 1019 -1656 
L 216 -1656 
L 1403 566 
z
" transform="scale(0.015625)"/>
        <path id="Futura-Medium-6d" d="M 444 3044 
L 1147 3044 
L 1147 2763 
Q 1350 2975 1494 3050 
Q 1647 3128 1878 3128 
Q 2394 3128 2694 2678 
Q 3025 3128 3591 3128 
Q 4619 3128 4619 1881 
L 4619 0 
L 3913 0 
L 3913 1691 
Q 3913 2128 3806 2309 
Q 3697 2494 3447 2494 
Q 3156 2494 3023 2275 
Q 2891 2056 2891 1572 
L 2891 0 
L 2184 0 
L 2184 1681 
Q 2184 2494 1716 2494 
Q 1419 2494 1283 2272 
Q 1147 2050 1147 1572 
L 1147 0 
L 444 0 
L 444 3044 
z
" transform="scale(0.015625)"/>
       </defs>
       <use xlink:href="#Futura-Medium-4d"/>
       <use xlink:href="#Futura-Medium-65" x="96.142578"/>
       <use xlink:href="#Futura-Medium-6e" x="151.464844"/>
       <use xlink:href="#Futura-Medium-74" x="206.298828"/>
       <use xlink:href="#Futura-Medium-69" x="233.642578"/>
       <use xlink:href="#Futura-Medium-6f" x="258.544922"/>
       <use xlink:href="#Futura-Medium-6e" x="318.652344"/>
       <use xlink:href="#Futura-Medium-65" x="373.486328"/>
       <use xlink:href="#Futura-Medium-64" x="428.808594"/>
       <use xlink:href="#Futura-Medium-20" x="488.769531"/>
       <use xlink:href="#Futura-Medium-62" x="519.628906"/>
       <use xlink:href="#Futura-Medium-79" x="577.839844"/>
       <use xlink:href="#Futura-Medium-20" x="632.185547"/>
       <use xlink:href="#Futura-Medium-6e" x="663.044922"/>
       <use xlink:href="#Futura-Medium-61" x="717.878906"/>
       <use xlink:href="#Futura-Medium-6d" x="777.839844"/>
       <use xlink:href="#Futura-Medium-65" x="856.941406"/>
      </g>
     </g>
    </g>
    <g id="text_4">
     <!-- Cites existing configurations -->
     <g style="fill: #ffffff" transform="translate(109.729792 342.979688)scale(0.14 -0.14)">
      <defs>
       <path id="Futura-Medium-43" d="M 4144 4566 
L 4144 3703 
Q 3513 4231 2838 4231 
Q 2094 4231 1584 3697 
Q 1072 3166 1072 2397 
Q 1072 1638 1584 1116 
Q 2097 594 2841 594 
Q 3225 594 3494 719 
Q 3644 781 3805 887 
Q 3966 994 4144 1144 
L 4144 266 
Q 3519 -88 2831 -88 
Q 1797 -88 1066 634 
Q 338 1363 338 2391 
Q 338 3313 947 4034 
Q 1697 4919 2888 4919 
Q 3538 4919 4144 4566 
z
" transform="scale(0.015625)"/>
       <path id="Futura-Medium-73" d="M 2213 2525 
L 1631 2216 
Q 1494 2497 1291 2497 
Q 1194 2497 1125 2433 
Q 1056 2369 1056 2269 
Q 1056 2094 1463 1922 
Q 2022 1681 2215 1478 
Q 2409 1275 2409 931 
Q 2409 491 2084 194 
Q 1769 -88 1322 -88 
Q 556 -88 238 659 
L 838 938 
Q 963 719 1028 659 
Q 1156 541 1334 541 
Q 1691 541 1691 866 
Q 1691 1053 1416 1216 
Q 1309 1269 1203 1319 
Q 1097 1369 988 1422 
Q 681 1572 556 1722 
Q 397 1913 397 2213 
Q 397 2609 669 2869 
Q 947 3128 1344 3128 
Q 1928 3128 2213 2525 
z
" transform="scale(0.015625)"/>
       <path id="Futura-Medium-78" d="M 1388 1647 
L 294 3044 
L 1131 3044 
L 1809 2156 
L 2500 3044 
L 3363 3044 
L 2238 1647 
L 3541 0 
L 2703 0 
L 1809 1138 
L 894 0 
L 34 0 
L 1388 1647 
z
" transform="scale(0.015625)"/>
       <path id="Futura-Medium-67" d="M 3388 72 
Q 3388 -144 3373 -308 
Q 3359 -472 3334 -597 
Q 3259 -941 3041 -1188 
Q 2628 -1663 1906 -1663 
Q 1297 -1663 903 -1334 
Q 497 -997 434 -400 
L 1141 -400 
Q 1181 -625 1275 -747 
Q 1494 -1031 1913 -1031 
Q 2684 -1031 2684 -84 
L 2684 341 
Q 2266 -88 1719 -88 
Q 1097 -88 700 363 
Q 300 819 300 1503 
Q 300 2169 672 2634 
Q 1072 3128 1728 3128 
Q 2303 3128 2684 2700 
L 2684 3044 
L 3388 3044 
L 3388 72 
z
M 2713 1516 
Q 2713 1959 2475 2225 
Q 2234 2497 1859 2497 
Q 1459 2497 1228 2200 
Q 1019 1934 1019 1513 
Q 1019 1097 1228 831 
Q 1456 541 1859 541 
Q 2263 541 2497 834 
Q 2713 1100 2713 1516 
z
" transform="scale(0.015625)"/>
       <path id="Futura-Medium-66" d="M 1172 2388 
L 1172 0 
L 466 0 
L 466 2388 
L 216 2388 
L 216 3044 
L 466 3044 
L 466 4219 
Q 466 4794 666 5031 
Q 941 5363 1466 5363 
Q 1653 5363 1938 5253 
L 1938 4534 
L 1866 4572 
Q 1638 4688 1491 4688 
Q 1303 4688 1238 4553 
Q 1172 4422 1172 4047 
L 1172 3044 
L 1938 3044 
L 1938 2388 
L 1172 2388 
z
" transform="scale(0.015625)"/>
       <path id="Futura-Medium-75" d="M 1147 3044 
L 1147 1297 
Q 1147 541 1744 541 
Q 2341 541 2341 1297 
L 2341 3044 
L 3044 3044 
L 3044 1281 
Q 3044 916 2953 650 
Q 2866 413 2650 222 
Q 2294 -88 1744 -88 
Q 1197 -88 841 222 
Q 622 413 531 650 
Q 444 863 444 1281 
L 444 3044 
L 1147 3044 
z
" transform="scale(0.015625)"/>
      </defs>
      <use xlink:href="#Futura-Medium-43"/>
      <use xlink:href="#Futura-Medium-69" x="70.068359"/>
      <use xlink:href="#Futura-Medium-74" x="94.970703"/>
      <use xlink:href="#Futura-Medium-65" x="123.189453"/>
      <use xlink:href="#Futura-Medium-73" x="178.511719"/>
      <use xlink:href="#Futura-Medium-20" x="219.087891"/>
      <use xlink:href="#Futura-Medium-65" x="249.947266"/>
      <use xlink:href="#Futura-Medium-78" x="303.394531"/>
      <use xlink:href="#Futura-Medium-69" x="359.205078"/>
      <use xlink:href="#Futura-Medium-73" x="384.107422"/>
      <use xlink:href="#Futura-Medium-74" x="424.683594"/>
      <use xlink:href="#Futura-Medium-69" x="452.027344"/>
      <use xlink:href="#Futura-Medium-6e" x="476.929688"/>
      <use xlink:href="#Futura-Medium-67" x="531.763672"/>
      <use xlink:href="#Futura-Medium-20" x="591.626953"/>
      <use xlink:href="#Futura-Medium-63" x="622.486328"/>
      <use xlink:href="#Futura-Medium-6f" x="670.142578"/>
      <use xlink:href="#Futura-Medium-6e" x="730.25"/>
      <use xlink:href="#Futura-Medium-66" x="785.083984"/>
      <use xlink:href="#Futura-Medium-69" x="816.896484"/>
      <use xlink:href="#Futura-Medium-67" x="841.798828"/>
      <use xlink:href="#Futura-Medium-75" x="901.662109"/>
      <use xlink:href="#Futura-Medium-72" x="956.154297"/>
      <use xlink:href="#Futura-Medium-61" x="992.931641"/>
      <use xlink:href="#Futura-Medium-74" x="1052.892578"/>
      <use xlink:href="#Futura-Medium-69" x="1080.236328"/>
      <use xlink:href="#Futura-Medium-6f" x="1105.138672"/>
      <use xlink:href="#Futura-Medium-6e" x="1165.246094"/>
      <use xlink:href="#Futura-Medium-73" x="1220.080078"/>
     </g>
    </g>
   </g>
   <g id="matplotlib.axis_2">
    <g id="ytick_1">
     <g id="line2d_4">
      <defs>
       <path id="mf19e253e73" d="M 0 0 
L -3.5 0 
" style="stroke: #ffffff; stroke-width: 0.8"/>
      </defs>
      <g>
       <use xlink:href="#mf19e253e73" x="66.62" y="305.08" style="fill: #ffffff; stroke: #ffffff; stroke-width: 0.8"/>
      </g>
     </g>
     <g id="text_5">
      <!-- 0 -->
      <g style="fill: #ffffff" transform="translate(50.979375 310.852813)scale(0.14 -0.14)">
       <defs>
        <path id="Futura-Medium-30" d="M 272 2444 
Q 272 3597 809 4284 
Q 1291 4906 1975 4906 
Q 2659 4906 3141 4284 
Q 3678 3597 3678 2413 
Q 3678 1231 3141 544 
Q 2659 -78 1978 -78 
Q 1297 -78 809 544 
Q 272 1231 272 2444 
z
M 988 2441 
Q 988 1638 1266 1106 
Q 1544 584 1975 584 
Q 2403 584 2684 1106 
Q 2966 1625 2966 2416 
Q 2966 3206 2684 3728 
Q 2403 4247 1975 4247 
Q 1550 4247 1269 3728 
Q 988 3213 988 2441 
z
" transform="scale(0.015625)"/>
       </defs>
       <use xlink:href="#Futura-Medium-30"/>
      </g>
     </g>
    </g>
    <g id="ytick_2">
     <g id="line2d_5">
      <g>
       <use xlink:href="#mf19e253e73" x="66.62" y="272.204717" style="fill: #ffffff; stroke: #ffffff; stroke-width: 0.8"/>
      </g>
     </g>
     <g id="text_6">
      <!-- 25 -->
      <g style="fill: #ffffff" transform="translate(42.33875 277.977529)scale(0.14 -0.14)">
       <defs>
        <path id="Futura-Medium-32" d="M 1603 684 
L 3400 684 
L 3400 0 
L 159 0 
L 1834 2028 
Q 2081 2331 2248 2553 
Q 2416 2775 2503 2925 
Q 2681 3219 2681 3453 
Q 2681 3791 2443 4019 
Q 2206 4247 1856 4247 
Q 1125 4247 1019 3381 
L 294 3381 
Q 469 4906 1834 4906 
Q 2494 4906 2941 4488 
Q 3391 4069 3391 3450 
Q 3391 3056 3181 2678 
Q 3075 2481 2870 2211 
Q 2666 1941 2353 1572 
L 1603 684 
z
" transform="scale(0.015625)"/>
        <path id="Futura-Medium-35" d="M 3366 4144 
L 1878 4144 
L 1641 3344 
Q 1694 3350 1742 3353 
Q 1791 3356 1831 3356 
Q 2534 3356 2984 2881 
Q 3438 2409 3438 1672 
Q 3438 909 2925 415 
Q 2413 -78 1634 -78 
Q 675 -78 122 822 
L 672 1288 
Q 900 900 1131 741 
Q 1363 584 1697 584 
Q 2134 584 2431 891 
Q 2728 1206 2728 1656 
Q 2728 2119 2434 2413 
Q 2141 2716 1700 2716 
Q 1209 2716 853 2288 
L 613 2288 
L 1372 4825 
L 3366 4825 
L 3366 4144 
z
" transform="scale(0.015625)"/>
       </defs>
       <use xlink:href="#Futura-Medium-32"/>
       <use xlink:href="#Futura-Medium-35" x="61.71875"/>
      </g>
     </g>
    </g>
    <g id="ytick_3">
     <g id="line2d_6">
      <g>
       <use xlink:href="#mf19e253e73" x="66.62" y="239.329433" style="fill: #ffffff; stroke: #ffffff; stroke-width: 0.8"/>
      </g>
     </g>
     <g id="text_7">
      <!-- 50 -->
      <g style="fill: #ffffff" transform="translate(42.33875 245.102246)scale(0.14 -0.14)">
       <use xlink:href="#Futura-Medium-35"/>
       <use xlink:href="#Futura-Medium-30" x="61.71875"/>
      </g>
     </g>
    </g>
    <g id="ytick_4">
     <g id="line2d_7">
      <g>
       <use xlink:href="#mf19e253e73" x="66.62" y="206.45415" style="fill: #ffffff; stroke: #ffffff; stroke-width: 0.8"/>
      </g>
     </g>
     <g id="text_8">
      <!-- 75 -->
      <g style="fill: #ffffff" transform="translate(42.33875 212.226962)scale(0.14 -0.14)">
       <defs>
        <path id="Futura-Medium-37" d="M 2713 4144 
L 331 4144 
L 331 4825 
L 3928 4825 
L 884 -166 
L 306 200 
L 2713 4144 
z
" transform="scale(0.015625)"/>
       </defs>
       <use xlink:href="#Futura-Medium-37"/>
       <use xlink:href="#Futura-Medium-35" x="61.71875"/>
      </g>
     </g>
    </g>
    <g id="ytick_5">
     <g id="line2d_8">
      <g>
       <use xlink:href="#mf19e253e73" x="66.62" y="173.578866" style="fill: #ffffff; stroke: #ffffff; stroke-width: 0.8"/>
      </g>
     </g>
     <g id="text_9">
      <!-- 100 -->
      <g style="fill: #ffffff" transform="translate(34.538125 179.351679)scale(0.14 -0.14)">
       <defs>
        <path id="Futura-Medium-31" d="M 1734 4144 
L 900 4144 
L 1300 4825 
L 2463 4825 
L 2463 0 
L 1734 0 
L 1734 4144 
z
" transform="scale(0.015625)"/>
       </defs>
       <use xlink:href="#Futura-Medium-31"/>
       <use xlink:href="#Futura-Medium-30" x="55.71875"/>
       <use xlink:href="#Futura-Medium-30" x="117.4375"/>
      </g>
     </g>
    </g>
    <g id="ytick_6">
     <g id="line2d_9">
      <g>
       <use xlink:href="#mf19e253e73" x="66.62" y="140.703583" style="fill: #ffffff; stroke: #ffffff; stroke-width: 0.8"/>
      </g>
     </g>
     <g id="text_10">
      <!-- 125 -->
      <g style="fill: #ffffff" transform="translate(34.800625 146.476395)scale(0.14 -0.14)">
       <use xlink:href="#Futura-Medium-31"/>
       <use xlink:href="#Futura-Medium-32" x="53.84375"/>
       <use xlink:href="#Futura-Medium-35" x="115.5625"/>
      </g>
     </g>
    </g>
    <g id="ytick_7">
     <g id="line2d_10">
      <g>
       <use xlink:href="#mf19e253e73" x="66.62" y="107.828299" style="fill: #ffffff; stroke: #ffffff; stroke-width: 0.8"/>
      </g>
     </g>
     <g id="text_11">
      <!-- 150 -->
      <g style="fill: #ffffff" transform="translate(34.800625 113.601112)scale(0.14 -0.14)">
       <use xlink:href="#Futura-Medium-31"/>
       <use xlink:href="#Futura-Medium-35" x="53.84375"/>
       <use xlink:href="#Futura-Medium-30" x="115.5625"/>
      </g>
     </g>
    </g>
    <g id="ytick_8">
     <g id="line2d_11">
      <g>
       <use xlink:href="#mf19e253e73" x="66.62" y="74.953016" style="fill: #ffffff; stroke: #ffffff; stroke-width: 0.8"/>
      </g>
     </g>
     <g id="text_12">
      <!-- 175 -->
      <g style="fill: #ffffff" transform="translate(34.993125 80.725828)scale(0.14 -0.14)">
       <use xlink:href="#Futura-Medium-31"/>
       <use xlink:href="#Futura-Medium-37" x="52.46875"/>
       <use xlink:href="#Futura-Medium-35" x="114.1875"/>
      </g>
     </g>
    </g>
    <g id="ytick_9">
     <g id="line2d_12">
      <g>
       <use xlink:href="#mf19e253e73" x="66.62" y="42.077732" style="fill: #ffffff; stroke: #ffffff; stroke-width: 0.8"/>
      </g>
     </g>
     <g id="text_13">
      <!-- 200 -->
      <g style="fill: #ffffff" transform="translate(33.698125 47.850545)scale(0.14 -0.14)">
       <use xlink:href="#Futura-Medium-32"/>
       <use xlink:href="#Futura-Medium-30" x="61.71875"/>
       <use xlink:href="#Futura-Medium-30" x="123.4375"/>
      </g>
     </g>
    </g>
    <g id="text_14">
     <!-- count -->
     <g style="fill: #ffffff" transform="translate(26.075625 177.210625)rotate(-90)scale(0.14 -0.14)">
      <use xlink:href="#Futura-Medium-63"/>
      <use xlink:href="#Futura-Medium-6f" x="47.65625"/>
      <use xlink:href="#Futura-Medium-75" x="107.763672"/>
      <use xlink:href="#Futura-Medium-6e" x="162.255859"/>
      <use xlink:href="#Futura-Medium-74" x="217.089844"/>
     </g>
    </g>
   </g>
   <g id="patch_6">
    <path d="M 66.62 305.08 
L 66.62 15.12 
" style="fill: none; stroke: #ffffff; stroke-width: 0.8; stroke-linejoin: miter; stroke-linecap: square"/>
   </g>
   <g id="patch_7">
    <path d="M 66.62 305.08 
L 329.335833 305.08 
" style="fill: none; stroke: #ffffff; stroke-width: 0.8; stroke-linejoin: miter; stroke-linecap: square"/>
   </g>
   <g id="text_15">
    <!-- Out of 230 -->
    <g style="fill: #ffffff" transform="translate(258.233333 29.618)scale(0.14 -0.14)">
     <defs>
      <path id="Futura-Medium-4f" d="M 338 2434 
Q 338 3453 1084 4184 
Q 1828 4916 2872 4916 
Q 3903 4916 4641 4178 
Q 5381 3441 5381 2406 
Q 5381 1366 4638 641 
Q 3891 -88 2834 -88 
Q 1900 -88 1156 559 
Q 338 1275 338 2434 
z
M 1072 2425 
Q 1072 1625 1609 1109 
Q 2144 594 2844 594 
Q 3603 594 4125 1119 
Q 4647 1650 4647 2413 
Q 4647 3184 4131 3706 
Q 3619 4231 2863 4231 
Q 2109 4231 1591 3706 
Q 1072 3188 1072 2425 
z
" transform="scale(0.015625)"/>
      <path id="Futura-Medium-33" d="M 1656 2241 
L 1656 2863 
Q 2119 2863 2278 2966 
Q 2563 3147 2563 3547 
Q 2563 3856 2356 4050 
Q 2153 4247 1828 4247 
Q 1525 4247 1359 4100 
Q 1200 3950 1122 3594 
L 397 3594 
Q 509 4275 859 4592 
Q 1209 4909 1838 4909 
Q 2472 4909 2872 4534 
Q 3272 4163 3272 3575 
Q 3272 2913 2747 2544 
Q 3347 2191 3347 1397 
Q 3347 747 2909 334 
Q 2472 -78 1788 -78 
Q 916 -78 494 563 
Q 319 831 272 1306 
L 975 1306 
Q 1031 956 1248 770 
Q 1466 584 1816 584 
Q 2169 584 2400 819 
Q 2631 1059 2631 1428 
Q 2631 1916 2284 2122 
Q 2081 2241 1656 2241 
z
" transform="scale(0.015625)"/>
     </defs>
     <use xlink:href="#Futura-Medium-4f"/>
     <use xlink:href="#Futura-Medium-75" x="89.355469"/>
     <use xlink:href="#Futura-Medium-74" x="143.847656"/>
     <use xlink:href="#Futura-Medium-20" x="171.191406"/>
     <use xlink:href="#Futura-Medium-6f" x="202.050781"/>
     <use xlink:href="#Futura-Medium-66" x="262.158203"/>
     <use xlink:href="#Futura-Medium-20" x="291.845703"/>
     <use xlink:href="#Futura-Medium-32" x="322.705078"/>
     <use xlink:href="#Futura-Medium-33" x="384.423828"/>
     <use xlink:href="#Futura-Medium-30" x="446.142578"/>
    </g>
   </g>
  </g>
 </g>
 <defs>
  <clipPath id="p5397ab86b6">
   <rect x="66.62" y="15.12" width="262.715833" height="289.96"/>
  </clipPath>
 </defs>
</svg>
