<?xml version="1.0" encoding="UTF-8" standalone="no"?>
<!-- Created with Inkscape (http://www.inkscape.org/) -->

<svg
   width="64.596573mm"
   height="74.589249mm"
   viewBox="0 0 64.596573 74.589249"
   version="1.1"
   id="svg5"
   xml:space="preserve"
   inkscape:version="1.2.1 (9c6d41e, 2022-07-14)"
   sodipodi:docname="data-stewards.svg"
   xmlns:inkscape="http://www.inkscape.org/namespaces/inkscape"
   xmlns:sodipodi="http://sodipodi.sourceforge.net/DTD/sodipodi-0.dtd"
   xmlns="http://www.w3.org/2000/svg"
   xmlns:svg="http://www.w3.org/2000/svg"><sodipodi:namedview
     id="namedview7"
     pagecolor="#ffffff"
     bordercolor="#000000"
     borderopacity="0.25"
     inkscape:showpageshadow="2"
     inkscape:pageopacity="0.0"
     inkscape:pagecheckerboard="0"
     inkscape:deskcolor="#d1d1d1"
     inkscape:document-units="mm"
     showgrid="false"
     inkscape:zoom="1.3763118"
     inkscape:cx="39.598585"
     inkscape:cy="156.57789"
     inkscape:window-width="1488"
     inkscape:window-height="813"
     inkscape:window-x="0"
     inkscape:window-y="38"
     inkscape:window-maximized="0"
     inkscape:current-layer="layer1" /><defs
     id="defs2" /><g
     inkscape:label="Layer 1"
     inkscape:groupmode="layer"
     id="layer1"
     transform="translate(-71.032356,-58.441394)"><path
       id="path237"
       style="fill:#a5a17c;fill-opacity:1;stroke-width:0.264583"
       inkscape:transform-center-x="16.196008"
       inkscape:transform-center-y="1.4376862e-06"
       d="m 85.642672,51.786552 v 28.30423 l 12.255663,-7.075567 v -3.93e-4 -14.152703 z"
       transform="matrix(1.3176251,0,0,1.3176251,-41.812578,8.8535745)" /><path
       id="path239"
       style="fill:#e8e7ca;fill-opacity:1;stroke-width:0.264583"
       inkscape:transform-center-x="-15.81379"
       inkscape:transform-center-y="1.4376862e-06"
       d="m 85.64257,51.786552 12.255662,7.075567 v 14.152703 3.93e-4 L 85.64257,80.090782 Z"
       transform="matrix(-1.3176251,0,0,1.3176251,248.47373,8.8535745)" /><path
       id="path245"
       style="fill:#dbd8a5;fill-opacity:1;stroke-width:0.264583"
       inkscape:transform-center-x="16.196008"
       inkscape:transform-center-y="1.4376862e-06"
       d="m 85.642853,51.786378 1e-5,28.304605 12.255453,-7.075931 1.19e-4,-14.15291 z"
       transform="matrix(0.65881253,1.1410968,-1.1410968,0.65881253,106.00133,-73.402906)" /><path
       id="path247"
       style="fill:#cdcaaa;fill-opacity:1;stroke-width:0.264583"
       inkscape:transform-center-x="-15.81379"
       inkscape:transform-center-y="1.4376862e-06"
       d="m 97.89815,58.862131 1.19e-4,14.15291 -12.255582,7.075764 1.1e-5,-28.304605 z"
       transform="matrix(-0.65881253,-1.1410968,-1.1410968,0.65881253,251.14448,177.99241)" /><path
       id="path251"
       style="fill:#e2deb8;fill-opacity:1;stroke-width:0.264583"
       inkscape:transform-center-x="16.196008"
       inkscape:transform-center-y="1.4376862e-06"
       d="M 85.6428,80.090739 97.898383,73.014976 97.898264,58.862066 85.642811,51.786134 Z"
       transform="matrix(-0.65881253,1.1410968,-1.1410968,-0.65881253,251.14448,13.479451)" /><path
       id="path253"
       style="fill:#949170;fill-opacity:1;stroke-width:0.264583"
       inkscape:transform-center-x="-15.81379"
       inkscape:transform-center-y="1.4376862e-06"
       d="m 97.898204,73.014987 -12.255452,7.075932 -1.1e-5,-28.304605 12.255582,7.075763 z"
       transform="matrix(0.65881253,-1.1410968,-1.1410968,-0.65881253,106.00133,264.87477)" /><path
       id="path301"
       style="fill:#256e74;fill-opacity:1;stroke-width:0.264583"
       inkscape:transform-center-x="16.196008"
       inkscape:transform-center-y="1.4376862e-06"
       d="m 85.642837,51.786381 v 28.304704 l 24.512393,14.15196 V 65.938341 Z"
       transform="matrix(0.65884716,0,0,0.65884716,30.755185,52.29247)" /><path
       id="path303"
       style="fill:#65aeb4;fill-opacity:1;stroke-width:0.264583"
       inkscape:transform-center-x="-15.81379"
       inkscape:transform-center-y="1.4376862e-06"
       d="m 85.642621,51.786381 24.512389,14.15196 V 94.243045 L 85.642621,80.091085 Z"
       transform="matrix(-0.65884716,0,0,0.65884716,175.90596,52.29247)" /><path
       id="path305"
       style="fill:#329399;fill-opacity:1;stroke-width:0.264583"
       inkscape:transform-center-x="16.196008"
       inkscape:transform-center-y="1.4376862e-06"
       d="m 85.643037,51.786419 -2.38e-4,28.304333 24.512151,-14.152373 2.4e-4,-28.304333 z"
       transform="matrix(0.32942357,0.57057838,-0.57057838,0.32942357,104.66602,11.162069)" /></g></svg>
