<?xml version="1.0" encoding="UTF-8" standalone="no"?>
<!-- Created with Inkscape (http://www.inkscape.org/) -->

<svg
   width="8.1875mm"
   height="2.7586541mm"
   viewBox="0 0 8.1875001 2.7586541"
   version="1.1"
   id="svg8409"
   xml:space="preserve"
   sodipodi:docname="datacarpentry.svg"
   inkscape:version="1.2.1 (9c6d41e, 2022-07-14)"
   xmlns:inkscape="http://www.inkscape.org/namespaces/inkscape"
   xmlns:sodipodi="http://sodipodi.sourceforge.net/DTD/sodipodi-0.dtd"
   xmlns:xlink="http://www.w3.org/1999/xlink"
   xmlns="http://www.w3.org/2000/svg"
   xmlns:svg="http://www.w3.org/2000/svg"><sodipodi:namedview
     id="namedview8411"
     pagecolor="#ffffff"
     bordercolor="#000000"
     borderopacity="0.25"
     inkscape:showpageshadow="2"
     inkscape:pageopacity="0.0"
     inkscape:pagecheckerboard="0"
     inkscape:deskcolor="#d1d1d1"
     inkscape:document-units="mm"
     showgrid="false"
     inkscape:zoom="7.1186765"
     inkscape:cx="20.017766"
     inkscape:cy="2.5987977"
     inkscape:window-width="1512"
     inkscape:window-height="849"
     inkscape:window-x="0"
     inkscape:window-y="38"
     inkscape:window-maximized="1"
     inkscape:current-layer="layer1" /><defs
     id="defs8406" /><g
     inkscape:label="Layer 1"
     inkscape:groupmode="layer"
     id="layer1"
     transform="translate(-81.405878,-91.815184)"><path
       style="fill:#ffffff;stroke-width:0.0117291"
       d="m 86.968477,93.194554 v -1.37937 l 0.794645,0.0039 c 0.284916,-0.0059 0.750025,-0.0085 0.911934,0.0358 0.126608,0.03441 0.382637,0.153162 0.541437,0.305109 0.183091,0.175189 0.300247,0.387128 0.351432,0.635753 0.02309,0.11216 0.0338,0.509172 0.01788,0.662692 -0.03148,0.303513 -0.147413,0.554297 -0.349793,0.756676 -0.156213,0.156214 -0.337313,0.258338 -0.578186,0.326044 -0.08531,0.024 -0.115655,0.02496 -0.888838,0.02878 l -0.800509,0.0039 z m 1.647934,0.992527 c 0.304894,-0.100966 0.522787,-0.328134 0.597622,-0.623057 0.02567,-0.101159 0.03718,-0.448424 0.02003,-0.604048 -0.0416,-0.377415 -0.274965,-0.655305 -0.641105,-0.76344 -0.06236,-0.01842 -0.13881,-0.02128 -0.67149,-0.0252 l -0.601114,-0.0045 v 1.027645 1.027646 l 0.606979,-0.0039 c 0.598001,-0.0039 0.608194,-0.0044 0.689083,-0.03115 z M 87.68395,93.201244 v -0.669379 h 0.368889 c 0.400452,0 0.451785,0.0056 0.562461,0.06121 0.137502,0.0691 0.24876,0.227952 0.262013,0.3741 l 0.0063,0.06905 h -0.176258 -0.176261 l -0.0074,-0.03917 c -0.0082,-0.04389 -0.04337,-0.08207 -0.09279,-0.100795 -0.01819,-0.0069 -0.114284,-0.0125 -0.214055,-0.0125 h -0.181037 v 0.316684 0.316686 h 0.182177 c 0.132017,0 0.193305,-0.0047 0.222596,-0.01689 0.04126,-0.01724 0.08772,-0.07813 0.0878,-0.115064 3.6e-5,-0.01863 0.01626,-0.02052 0.175981,-0.02052 h 0.175936 v 0.03982 c 0,0.121092 -0.09273,0.287854 -0.20185,0.36301 -0.135881,0.09359 -0.142435,0.09468 -0.592795,0.09916 l -0.40172,0.004 z"
       id="path844"
       inkscape:connector-curvature="0"
       sodipodi:nodetypes="ccccsssssscccsssscccsccccscccccscscccsccscssscc" /><path
       style="fill:#ffffff;stroke-width:0.0128188"
       d="m 86.273154,94.281533 -2e-6,-1.22738 v -1.227554 h 0.351877 v 1.227466 1.227468 z"
       id="path11089"
       inkscape:connector-curvature="0"
       sodipodi:nodetypes="ccccccc" /><use
       x="0"
       y="0"
       xlink:href="#path11089"
       id="use11187"
       transform="matrix(1,0,0,0.89880512,-0.6953248,9.2923817)"
       style="fill:#ffffff" /><use
       x="0"
       y="0"
       xlink:href="#path11089"
       id="use11189"
       transform="matrix(1,0,0,0.81080957,-1.3906496,17.372714)"
       style="fill:#ffffff" /><use
       x="0"
       y="0"
       xlink:href="#path11089"
       id="use11191"
       transform="matrix(1,0,0,0.72501391,-2.0859744,25.251038)"
       style="fill:#ffffff" /><use
       x="0"
       y="0"
       xlink:href="#path11089"
       id="use11193"
       transform="matrix(1,0,0,0.61941925,-2.7812992,34.947436)"
       style="fill:#ffffff" /><use
       x="0"
       y="0"
       xlink:href="#path11089"
       id="use11195"
       transform="matrix(1,0,0,0.52922381,-3.476624,43.229776)"
       style="fill:#ffffff" /><use
       x="0"
       y="0"
       xlink:href="#path11089"
       id="use11197"
       transform="matrix(1,0,0,0.43682848,-4.1719488,51.714124)"
       style="fill:#ffffff" /><use
       x="0"
       y="0"
       xlink:href="#path11089"
       id="use11199"
       transform="matrix(1,0,0,0.34663304,-4.8672736,59.996464)"
       style="fill:#ffffff" /><path
       style="fill:#ffffff;stroke-width:0.0128188"
       d="m 86.968479,94.281533 -2e-6,-1.22738 v -1.227554 h 0.351877 v 1.227466 1.227468 z"
       id="path11201"
       inkscape:connector-curvature="0"
       sodipodi:nodetypes="ccccccc" /></g></svg>
