<?xml version="1.0" encoding="UTF-8" standalone="no"?>
<!-- Created with Inkscape (http://www.inkscape.org/) -->

<svg
   width="70.529358mm"
   height="14.957297mm"
   viewBox="0 0 70.529358 14.957297"
   version="1.1"
   id="svg1"
   sodipodi:docname="different-implausible-result.svg"
   inkscape:version="1.3 (0e150ed, 2023-07-21)"
   xmlns:inkscape="http://www.inkscape.org/namespaces/inkscape"
   xmlns:sodipodi="http://sodipodi.sourceforge.net/DTD/sodipodi-0.dtd"
   xmlns="http://www.w3.org/2000/svg"
   xmlns:svg="http://www.w3.org/2000/svg">
  <sodipodi:namedview
     id="namedview1"
     pagecolor="#ffffff"
     bordercolor="#000000"
     borderopacity="0.25"
     inkscape:showpageshadow="2"
     inkscape:pageopacity="0.0"
     inkscape:pagecheckerboard="0"
     inkscape:deskcolor="#d1d1d1"
     inkscape:document-units="mm"
     inkscape:zoom="1.4161508"
     inkscape:cx="113.68846"
     inkscape:cy="108.39241"
     inkscape:window-width="1392"
     inkscape:window-height="964"
     inkscape:window-x="0"
     inkscape:window-y="25"
     inkscape:window-maximized="0"
     inkscape:current-layer="layer1" />
  <defs
     id="defs1" />
  <g
     inkscape:label="Layer 1"
     inkscape:groupmode="layer"
     id="layer1"
     transform="translate(-12.424377,-98.268683)">
    <g
       id="text2"
       style="font-weight:500;font-size:2.90057px;font-family:'CMU Serif';-inkscape-font-specification:'CMU Serif Medium';letter-spacing:0px;word-spacing:0px;stroke-width:0.0642349;stroke-linejoin:round;stroke-miterlimit:3.9;paint-order:stroke fill markers;fill:#ffffff"
       aria-label="We find that gµ – 2 = 0.0271(82).">
      <path
         style="stroke-width:0.0642351;fill:#ffffff"
         d="m 20.56535,104.49031 v -0.0899 q 0.04061,0 0.113122,0.003 0.07541,0.003 0.133426,0.006 0.05801,0 0.107322,0 0.30746,0 0.41188,-0.009 v 0.0899 q -0.243647,0 -0.243647,0.087 0,0.0203 0.0058,0.0377 l 0.466991,1.42708 0.40318,-1.24434 -0.06381,-0.20304 q -0.0232,-0.0725 -0.07251,-0.087 -0.04931,-0.0174 -0.188537,-0.0174 v -0.0899 q 0.04061,0 0.113122,0.003 0.07541,0.003 0.133426,0.006 0.05801,0 0.107321,0 0.307461,0 0.411881,-0.009 v 0.0899 q -0.243648,0 -0.243648,0.087 0,0.009 0.0087,0.0435 l 0.464091,1.42128 0.435086,-1.34006 q 0.0145,-0.0435 0.0145,-0.058 0,-0.0522 -0.06091,-0.10152 -0.06091,-0.0493 -0.191438,-0.0522 v -0.0899 q 0.226245,0.009 0.345168,0.009 0.133426,0 0.263952,-0.009 v 0.0899 q -0.229145,0 -0.290057,0.19433 l -0.554009,1.70264 q -0.0058,0.0232 -0.0116,0.0319 -0.0029,0.0116 -0.0145,0.0174 -0.0116,0.009 -0.03191,0.009 -0.03771,0 -0.05511,-0.0551 l -0.481495,-1.47639 -0.478594,1.47349 q -0.0058,0.0232 -0.0116,0.0319 -0.0029,0.0116 -0.0145,0.0174 -0.0116,0.009 -0.03191,0.009 -0.03771,0 -0.05511,-0.0551 l -0.580114,-1.77805 q -0.0261,-0.0841 -0.06671,-0.10152 -0.03771,-0.0203 -0.197239,-0.0203 z m 2.767139,1.25304 q 0,-0.27265 0.174034,-0.46699 0.176935,-0.19434 0.429284,-0.19434 0.255251,0 0.385776,0.16533 0.133426,0.16534 0.133426,0.40318 0,0.0435 -0.0116,0.0522 -0.0116,0.009 -0.06091,0.009 h -0.809259 q 0,0.29585 0.08702,0.43508 0.121824,0.19434 0.327765,0.19434 0.029,0 0.06091,-0.006 0.03481,-0.006 0.10442,-0.029 0.06961,-0.0261 0.130526,-0.0928 0.06091,-0.0667 0.09572,-0.17113 0.0087,-0.0406 0.03771,-0.0406 0.03771,0 0.03771,0.0348 0,0.0261 -0.02901,0.0841 -0.0261,0.0551 -0.07832,0.12472 -0.05221,0.0667 -0.15373,0.11892 -0.10152,0.0493 -0.223344,0.0493 -0.25525,0 -0.446688,-0.19143 -0.191437,-0.19434 -0.191437,-0.4786 z m 0.243648,-0.0928 h 0.687435 q 0,-0.0609 -0.0116,-0.12762 -0.0087,-0.0696 -0.04061,-0.16243 -0.02901,-0.0957 -0.10152,-0.15373 -0.06961,-0.0609 -0.174035,-0.0609 -0.04641,0 -0.09862,0.0203 -0.04931,0.0203 -0.110222,0.0696 -0.06091,0.0464 -0.10442,0.15663 -0.04061,0.10732 -0.04641,0.25815 z m 2.007184,0.73095 v -0.0899 h 0.0232 q 0.136327,0 0.168233,-0.0232 0.03481,-0.0232 0.03481,-0.11023 v -0.93688 h -0.226245 v -0.087 h 0.226245 v -0.32486 q 0,-0.22915 0.191437,-0.35097 0.194338,-0.12182 0.429285,-0.12182 0.162432,0 0.266852,0.0841 0.107321,0.0841 0.107321,0.20304 0,0.0638 -0.04061,0.10152 -0.03771,0.0377 -0.09282,0.0377 -0.05511,0 -0.09572,-0.0377 -0.03771,-0.0377 -0.03771,-0.0957 0,-0.058 0.03771,-0.0928 0.04061,-0.0377 0.10152,-0.0406 -0.107321,-0.0928 -0.25235,-0.0928 -0.15373,0 -0.292957,0.10152 -0.136327,0.0986 -0.136327,0.30746 v 0.32196 h 0.394478 v -0.006 l 0.420582,-0.0319 v 1.07612 q 0,0.0754 0.03771,0.0986 0.04061,0.0203 0.15663,0.0203 h 0.02901 v 0.0899 q -0.165332,-0.009 -0.330665,-0.009 -0.156631,0 -0.313261,0.009 v -0.0899 h 0.02901 q 0.124725,0 0.159532,-0.0232 0.03481,-0.0232 0.03481,-0.10443 v -0.67873 q 0,-0.0145 0,-0.0406 0.0029,-0.0261 0.0029,-0.0377 0,-0.11313 -0.02901,-0.14793 -0.02611,-0.0377 -0.133426,-0.0377 h -0.449588 v 0.93688 q 0,0.087 0.03191,0.11023 0.03191,0.0232 0.171134,0.0232 h 0.0232 v 0.0899 q -0.165332,-0.009 -0.333565,-0.009 -0.156631,0 -0.313262,0.009 z m 1.624315,0 v -0.0899 q 0.15373,0 0.188537,-0.0174 0.03771,-0.0203 0.03771,-0.11313 v -0.77735 q 0,-0.10732 -0.03771,-0.13342 -0.03771,-0.029 -0.188537,-0.029 v -0.0899 l 0.40898,-0.0319 v 0.30456 q 0.136327,-0.30456 0.429285,-0.30456 0.217542,0 0.304559,0.10732 0.06381,0.0725 0.07541,0.15373 0.0145,0.0812 0.0145,0.29005 v 0.55401 q 0.0029,0.0609 0.04931,0.0754 0.04641,0.0116 0.176935,0.0116 v 0.0899 q -0.295859,-0.009 -0.324864,-0.009 -0.02321,0 -0.327765,0.009 v -0.0899 q 0.15373,0 0.188537,-0.0174 0.03771,-0.0203 0.03771,-0.11313 v -0.67583 q 0,-0.14793 -0.04641,-0.23494 -0.04351,-0.087 -0.168233,-0.087 -0.15083,0 -0.272654,0.12762 -0.118923,0.12473 -0.118923,0.33647 v 0.5337 q 0,0.0928 0.03481,0.11313 0.03771,0.0174 0.191438,0.0174 v 0.0899 q -0.295858,-0.009 -0.324864,-0.009 -0.0232,0 -0.327764,0.009 z m 1.615613,-0.62363 q 0,-0.27555 0.191437,-0.46699 0.194339,-0.19143 0.45539,-0.19143 0.220443,0 0.365472,0.17983 v -0.62652 q 0,-0.10732 -0.03771,-0.13343 -0.03771,-0.029 -0.188537,-0.029 v -0.0899 l 0.417682,-0.0319 v 1.76065 q 0,0.10732 0.03771,0.13632 0.03771,0.0261 0.188537,0.0261 v 0.0899 l -0.426384,0.0319 v -0.19143 q -0.15083,0.19143 -0.388676,0.19143 -0.249449,0 -0.432185,-0.19143 -0.182736,-0.19144 -0.182736,-0.4641 z m 0.240747,0.003 q 0,0.26975 0.08412,0.40317 0.116022,0.18564 0.304559,0.18564 0.214643,0 0.342268,-0.20304 0.03191,-0.0493 0.03191,-0.10732 v -0.59462 q 0,-0.058 -0.03191,-0.10732 -0.118924,-0.17403 -0.313262,-0.17403 -0.20304,0 -0.327764,0.18563 -0.08992,0.13923 -0.08992,0.41189 z m 2.29144,-0.53951 v -0.0638 q 0.133426,-0.006 0.220444,-0.0986 0.08992,-0.0957 0.118923,-0.21174 0.03191,-0.11603 0.03481,-0.24945 h 0.07251 v 0.5337 h 0.414781 v 0.0899 h -0.414781 v 0.80636 q 0,0.31326 0.194338,0.31326 0.08412,0 0.139228,-0.0841 0.05511,-0.087 0.05511,-0.24074 v -0.15954 h 0.07251 v 0.16534 q 0,0.15663 -0.07251,0.27555 -0.07251,0.11602 -0.214642,0.11602 -0.05221,0 -0.10442,-0.0145 -0.05221,-0.0116 -0.118924,-0.0464 -0.06671,-0.0348 -0.110221,-0.11892 -0.04061,-0.087 -0.04061,-0.21174 v -0.80056 z m 1.163125,1.16023 v -0.0899 q 0.153731,0 0.188537,-0.0174 0.03771,-0.0203 0.03771,-0.11313 v -1.50829 q 0,-0.10732 -0.03771,-0.13343 -0.03771,-0.029 -0.188537,-0.029 v -0.0899 l 0.417682,-0.0319 v 1.0094 h 0.0029 q 0.04641,-0.10442 0.15083,-0.19144 0.10442,-0.087 0.266852,-0.087 0.217543,0 0.30456,0.10732 0.06381,0.0725 0.07541,0.15373 0.0145,0.0812 0.0145,0.29005 v 0.55401 q 0.0029,0.0609 0.04931,0.0754 0.04641,0.0116 0.176935,0.0116 v 0.0899 q -0.295858,-0.009 -0.324864,-0.009 -0.0232,0 -0.327764,0.009 v -0.0899 q 0.15373,0 0.188537,-0.0174 0.03771,-0.0203 0.03771,-0.11313 v -0.67583 q 0,-0.14793 -0.04641,-0.23494 -0.04351,-0.087 -0.168233,-0.087 -0.15083,0 -0.272654,0.12762 -0.118923,0.12473 -0.118923,0.33647 v 0.5337 q 0,0.0928 0.03481,0.11313 0.03771,0.0174 0.191438,0.0174 v 0.0899 q -0.295859,-0.009 -0.324864,-0.009 -0.0232,0 -0.327765,0.009 z m 1.638818,-0.27556 q 0,-0.24655 0.290057,-0.37707 0.174034,-0.0841 0.533705,-0.10442 v -0.10732 q 0,-0.17984 -0.09572,-0.27556 -0.09282,-0.0957 -0.211742,-0.0957 -0.211741,0 -0.313261,0.13343 0.08702,0.003 0.116023,0.0464 0.03191,0.0435 0.03191,0.087 0,0.058 -0.03771,0.0957 -0.03481,0.0377 -0.09572,0.0377 -0.05801,0 -0.09572,-0.0348 -0.03771,-0.0377 -0.03771,-0.10152 0,-0.14213 0.127625,-0.23495 0.127626,-0.0928 0.310361,-0.0928 0.237847,0 0.397378,0.15953 0.04931,0.0493 0.07252,0.11313 0.02611,0.0638 0.029,0.10732 0.0029,0.0406 0.0029,0.12182 v 0.58011 q 0,0.0174 0.0058,0.0464 0.0058,0.0261 0.03191,0.0638 0.02611,0.0348 0.06961,0.0348 0.104421,0 0.104421,-0.18563 v -0.16244 h 0.07251 v 0.16244 q 0,0.15373 -0.08122,0.21464 -0.08122,0.0609 -0.156631,0.0609 -0.09572,0 -0.156631,-0.0696 -0.06091,-0.0725 -0.06961,-0.16824 -0.04351,0.11023 -0.145029,0.18274 -0.09862,0.0696 -0.234946,0.0696 -0.104421,0 -0.20304,-0.0261 -0.09862,-0.0261 -0.179835,-0.0986 -0.08122,-0.0725 -0.08122,-0.18274 z m 0.223344,-0.003 q 0,0.10732 0.07541,0.17694 0.07831,0.0696 0.185636,0.0696 0.121824,0 0.229145,-0.0928 0.110222,-0.0957 0.110222,-0.28135 v -0.29006 q -0.321964,0.0116 -0.461191,0.13923 -0.139227,0.12762 -0.139227,0.27845 z m 1.160222,-0.88177 v -0.0638 q 0.133426,-0.006 0.220443,-0.0986 0.08992,-0.0957 0.118924,-0.21174 0.03191,-0.11603 0.03481,-0.24945 h 0.07252 v 0.5337 h 0.414781 v 0.0899 h -0.414781 v 0.80636 q 0,0.31326 0.194338,0.31326 0.08412,0 0.139227,-0.0841 0.05511,-0.087 0.05511,-0.24074 v -0.15954 h 0.07251 v 0.16534 q 0,0.15663 -0.07251,0.27555 -0.07251,0.11602 -0.214642,0.11602 -0.05221,0 -0.104421,-0.0145 -0.05221,-0.0116 -0.118923,-0.0464 -0.06671,-0.0348 -0.110222,-0.11892 -0.04061,-0.087 -0.04061,-0.21174 v -0.80056 z"
         id="path13" />
      <path
         style="font-style:italic;-inkscape-font-specification:'CMU Serif Medium Italic';fill:#ffffff"
         d="m 37.730865,106.80786 q 0,-0.0754 0.04641,-0.11602 0.04641,-0.0377 0.09572,-0.0377 0.05221,0 0.07541,0.029 0.02611,0.029 0.02611,0.0638 0,0.0377 -0.02611,0.0754 -0.02611,0.0406 -0.06671,0.058 0.07831,0.0319 0.20594,0.0319 0.159532,0 0.275555,-0.13633 0.05801,-0.0696 0.08122,-0.12762 0.0232,-0.058 0.05221,-0.17693 l 0.06091,-0.24365 q -0.15373,0.15373 -0.307461,0.15373 -0.159531,0 -0.25815,-0.12763 -0.09572,-0.12762 -0.09572,-0.31616 0,-0.30746 0.20594,-0.57141 0.208841,-0.26685 0.452489,-0.26685 0.162432,0 0.243648,0.16533 0.0087,-0.0551 0.04351,-0.0812 0.03481,-0.0261 0.06961,-0.0261 0.07832,0 0.07832,0.0754 0,0.0174 -0.0116,0.0609 l -0.316162,1.27045 q -0.04351,0.17404 -0.20304,0.29296 -0.15663,0.11892 -0.377074,0.11892 -0.350969,0 -0.350969,-0.16823 z m 0.362572,-0.74254 q 0,0.0261 0.0029,0.0551 0.0058,0.029 0.0174,0.0812 0.0145,0.0493 0.04931,0.0841 0.03771,0.0319 0.09282,0.0319 0.107322,0 0.223344,-0.11602 0.116023,-0.11892 0.136327,-0.20304 l 0.130526,-0.5279 0.0087,-0.0406 q 0,-0.0174 -0.0087,-0.0522 -0.0058,-0.0377 -0.02611,-0.087 -0.0174,-0.0522 -0.06091,-0.0899 -0.04351,-0.0377 -0.104421,-0.0377 -0.08122,0 -0.171133,0.0841 -0.08702,0.0812 -0.142128,0.20304 -0.04641,0.10733 -0.09862,0.31037 -0.04931,0.20304 -0.04931,0.30456 z"
         id="path14" />
      <path
         style="font-size:65%;baseline-shift:sub;fill:#ffffff"
         d="m 38.956645,107.31793 q 0,-0.0132 0.0075,-0.0396 l 0.267723,-1.07466 q 0.02262,-0.0735 0.07541,-0.0735 0.01885,0 0.03394,0.0132 0.01697,0.0113 0.01697,0.0396 0,0.0226 -0.06787,0.27904 -0.06599,0.25452 -0.06599,0.3224 0,0.0867 0.03582,0.12066 0.03771,0.0339 0.08673,0.0339 0.08107,0 0.141402,-0.0603 0.06222,-0.0622 0.08296,-0.11124 0.0075,-0.0151 0.01508,-0.0528 l 0.116893,-0.46757 q 0,-0.002 0.0019,-0.0132 0.0038,-0.0113 0.0057,-0.0189 0.0038,-0.009 0.0094,-0.0226 0.0075,-0.0132 0.01508,-0.0207 0.0075,-0.008 0.01885,-0.0132 0.0132,-0.008 0.02828,-0.008 0.02074,0 0.03582,0.0132 0.01508,0.0132 0.01508,0.0358 0,0.008 -0.0094,0.0509 l -0.124434,0.50339 q -0.01885,0.0716 -0.01885,0.10935 0,0.0754 0.04902,0.0754 0.02262,0 0.04148,-0.0189 0.02074,-0.0189 0.03394,-0.0528 0.01508,-0.0339 0.02451,-0.0603 0.0094,-0.0264 0.01885,-0.0641 0.0094,-0.0377 0.01131,-0.0415 0.0075,-0.0283 0.03205,-0.0283 0.02639,0 0.02639,0.0245 -0.0038,0.0226 -0.01131,0.0584 -0.0075,0.0339 -0.03771,0.10558 -0.03017,0.0698 -0.06976,0.098 -0.03394,0.0226 -0.07541,0.0226 -0.116893,0 -0.152715,-0.12632 -0.09804,0.12632 -0.231901,0.12632 -0.08861,0 -0.165912,-0.0547 -0.02074,0.083 -0.04902,0.19985 -0.03771,0.15272 -0.04713,0.17911 -0.0075,0.0283 -0.01885,0.0396 l -0.0019,0.002 q -0.02074,0.0207 -0.04902,0.0207 -0.01885,0 -0.03582,-0.0151 -0.01508,-0.0132 -0.01508,-0.0358 z"
         id="path15" />
      <path
         style="stroke-width:0.0642351;fill:#ffffff"
         d="m 40.840704,105.64183 v -0.0638 h 1.447384 v 0.0638 z m 2.561193,0.73965 q 0,-0.0522 0.0029,-0.0667 0.0058,-0.0174 0.02901,-0.0406 l 0.55691,-0.62073 q 0.304559,-0.34226 0.304559,-0.64102 0,-0.19434 -0.10152,-0.33357 -0.10152,-0.13922 -0.287156,-0.13922 -0.127625,0 -0.234946,0.0783 -0.107321,0.0783 -0.156631,0.21754 0.0087,-0.003 0.03771,-0.003 0.07252,0 0.113123,0.0464 0.04061,0.0435 0.04061,0.10442 0,0.0783 -0.05221,0.11603 -0.04931,0.0377 -0.09862,0.0377 -0.0203,0 -0.04641,-0.003 -0.0261,-0.006 -0.06671,-0.0464 -0.04061,-0.0406 -0.04061,-0.11312 0,-0.20304 0.15373,-0.36257 0.15373,-0.16243 0.388676,-0.16243 0.266853,0 0.440887,0.15953 0.174034,0.15663 0.174034,0.40318 0,0.087 -0.02611,0.16533 -0.02611,0.0783 -0.06091,0.13923 -0.03481,0.0609 -0.127625,0.15953 -0.09282,0.0957 -0.168233,0.16533 -0.07541,0.0696 -0.243648,0.21754 l -0.30746,0.29876 h 0.522102 q 0.25525,0 0.275554,-0.0232 0.02901,-0.0406 0.06381,-0.25815 h 0.07251 l -0.08122,0.5047 z m 2.436468,-0.44089 q 0.0029,-0.0348 0.05801,-0.0348 h 1.778049 q 0.08412,0 0.08412,0.0319 0,0.0348 -0.07832,0.0348 h -1.763546 q -0.07832,0 -0.07832,-0.0319 z m 0,-0.56561 q 0,-0.0348 0.06091,-0.0348 h 1.772248 q 0.08702,0 0.08702,0.0348 0,0.0319 -0.07252,0.0319 h -1.789651 q -0.05801,0 -0.05801,-0.0319 z m 3.170317,0.0783 q 0,-0.42638 0.107321,-0.65842 0.150829,-0.34517 0.504699,-0.34517 0.07541,0 0.15373,0.0203 0.07832,0.0203 0.176935,0.0986 0.10152,0.0783 0.162432,0.20594 0.116022,0.24655 0.116022,0.67873 0,0.42349 -0.107321,0.65553 -0.15663,0.33647 -0.504699,0.33647 -0.130525,0 -0.263952,-0.0667 -0.130525,-0.0667 -0.214642,-0.22625 -0.130525,-0.24074 -0.130525,-0.69904 z m 0.240747,-0.0348 q 0,0.43798 0.03191,0.61202 0.03481,0.18854 0.130526,0.26975 0.09862,0.0812 0.20594,0.0812 0.116023,0 0.211742,-0.087 0.09862,-0.087 0.127625,-0.27555 0.03191,-0.18564 0.03191,-0.60042 0,-0.40318 -0.02901,-0.56561 -0.03771,-0.18854 -0.139227,-0.26395 -0.10152,-0.0754 -0.20304,-0.0754 -0.03771,0 -0.07832,0.0116 -0.04061,0.0116 -0.09862,0.0435 -0.05801,0.0319 -0.10442,0.11312 -0.04351,0.0812 -0.06381,0.20304 -0.0232,0.15663 -0.0232,0.53371 z m 1.386468,0.91658 q -0.04351,-0.0464 -0.04351,-0.10732 0,-0.0609 0.04351,-0.10442 0.04351,-0.0464 0.110222,-0.0464 0.06381,0 0.107321,0.0435 0.04351,0.0406 0.04351,0.10732 0,0.0667 -0.04641,0.11022 -0.04641,0.0435 -0.104421,0.0435 -0.06671,0 -0.110222,-0.0464 z m 0.629422,-0.88178 q 0,-0.42638 0.107321,-0.65842 0.15083,-0.34517 0.504699,-0.34517 0.07541,0 0.153731,0.0203 0.07832,0.0203 0.176934,0.0986 0.10152,0.0783 0.162432,0.20594 0.116023,0.24655 0.116023,0.67873 0,0.42349 -0.107321,0.65553 -0.156631,0.33647 -0.504699,0.33647 -0.130526,0 -0.263952,-0.0667 -0.130526,-0.0667 -0.214642,-0.22625 -0.130526,-0.24074 -0.130526,-0.69904 z m 0.240747,-0.0348 q 0,0.43798 0.03191,0.61202 0.03481,0.18854 0.130525,0.26975 0.09862,0.0812 0.205941,0.0812 0.116023,0 0.211741,-0.087 0.09862,-0.087 0.127625,-0.27555 0.03191,-0.18564 0.03191,-0.60042 0,-0.40318 -0.02901,-0.56561 -0.03771,-0.18854 -0.139227,-0.26395 -0.10152,-0.0754 -0.20304,-0.0754 -0.03771,0 -0.07832,0.0116 -0.04061,0.0116 -0.09862,0.0435 -0.05801,0.0319 -0.10442,0.11312 -0.04351,0.0812 -0.06381,0.20304 -0.02321,0.15663 -0.02321,0.53371 z m 1.241439,0.96299 q 0,-0.0522 0.0029,-0.0667 0.0058,-0.0174 0.02901,-0.0406 l 0.556909,-0.62073 q 0.30456,-0.34226 0.30456,-0.64102 0,-0.19434 -0.10152,-0.33357 -0.10152,-0.13922 -0.287156,-0.13922 -0.127625,0 -0.234946,0.0783 -0.107321,0.0783 -0.156631,0.21754 0.0087,-0.003 0.03771,-0.003 0.07251,0 0.113122,0.0464 0.04061,0.0435 0.04061,0.10442 0,0.0783 -0.05221,0.11603 -0.04931,0.0377 -0.09862,0.0377 -0.0203,0 -0.04641,-0.003 -0.02611,-0.006 -0.06671,-0.0464 -0.04061,-0.0406 -0.04061,-0.11312 0,-0.20304 0.15373,-0.36257 0.15373,-0.16243 0.388676,-0.16243 0.266853,0 0.440887,0.15953 0.174034,0.15663 0.174034,0.40318 0,0.087 -0.02611,0.16533 -0.02611,0.0783 -0.06091,0.13923 -0.03481,0.0609 -0.127625,0.15953 -0.09282,0.0957 -0.168233,0.16533 -0.07541,0.0696 -0.243648,0.21754 l -0.307461,0.29876 h 0.522103 q 0.25525,0 0.275554,-0.0232 0.02901,-0.0406 0.06381,-0.25815 h 0.07251 l -0.08122,0.5047 z m 1.467682,-1.36327 0.09572,-0.59752 h 0.07251 q 0.0087,0.0348 0.0232,0.0522 0.0145,0.0145 0.09572,0.029 0.08412,0.0116 0.252349,0.0116 h 0.704839 q 0,0.0667 -0.02611,0.10152 l -0.391577,0.55111 q -0.124725,0.17403 -0.179836,0.496 -0.03191,0.21464 -0.03191,0.47569 v 0.14793 q 0,0.15953 -0.133426,0.15953 -0.133426,0 -0.133426,-0.15953 0,-0.55401 0.35677,-1.09062 0.03771,-0.0551 0.176935,-0.25235 0.142127,-0.19723 0.147929,-0.20594 h -0.600418 q -0.263952,0 -0.284256,0.0174 -0.02901,0.0261 -0.07251,0.26395 z m 1.545998,-0.29296 v -0.0899 q 0.348069,0 0.527904,-0.18563 0.04931,0 0.05801,0.0116 0.0087,0.0116 0.0087,0.0638 v 1.62722 q 0,0.087 0.04061,0.11312 0.04351,0.0261 0.229145,0.0261 h 0.09282 v 0.0899 q -0.10152,-0.009 -0.469892,-0.009 -0.368372,0 -0.469892,0.009 v -0.0899 h 0.09282 q 0.182736,0 0.226244,-0.0261 0.04351,-0.0261 0.04351,-0.11312 v -1.50249 q -0.15083,0.0754 -0.379975,0.0754 z m 1.479285,0.93108 q 0,-0.49019 0.182736,-0.88467 0.07832,-0.16533 0.185637,-0.30456 0.110221,-0.13923 0.182736,-0.20014 0.07251,-0.0609 0.09282,-0.0609 0.029,0 0.029,0.029 0,0.0145 -0.03771,0.0493 -0.466992,0.47569 -0.466992,1.37196 0,0.89918 0.45539,1.35747 0.04931,0.0493 0.04931,0.0638 0,0.029 -0.029,0.029 -0.0203,0 -0.08992,-0.058 -0.06961,-0.058 -0.176935,-0.19144 -0.107321,-0.13343 -0.185636,-0.29586 -0.191438,-0.39447 -0.191438,-0.90498 z m 0.960087,0.28716 q 0,-0.32486 0.417682,-0.5337 -0.179835,-0.12183 -0.211741,-0.15663 -0.127625,-0.14213 -0.127625,-0.31907 0,-0.20304 0.15373,-0.34226 0.15373,-0.14213 0.371273,-0.14213 0.208841,0 0.365472,0.12182 0.156631,0.11893 0.156631,0.31036 0,0.26976 -0.350969,0.44959 0.232045,0.14503 0.287156,0.20594 0.142128,0.15663 0.142128,0.35677 0,0.23205 -0.179835,0.39158 -0.176935,0.15953 -0.423484,0.15953 -0.240747,0 -0.420582,-0.13923 -0.179836,-0.14213 -0.179836,-0.36257 z m 0.145029,0 q 0,0.17984 0.133426,0.30166 0.136327,0.11892 0.324864,0.11892 0.182736,0 0.319063,-0.10442 0.136326,-0.10442 0.136326,-0.26105 0,-0.0609 -0.0203,-0.11312 -0.0203,-0.0522 -0.06091,-0.0928 -0.04061,-0.0435 -0.06671,-0.0609 -0.0232,-0.0203 -0.06961,-0.0522 l -0.35677,-0.22625 q -0.339367,0.18854 -0.339367,0.4902 z m 0.06091,-1.12252 q 0,0.13923 0.145028,0.23495 l 0.359671,0.23204 q 0.287156,-0.16823 0.287156,-0.40608 0,-0.15373 -0.118923,-0.25525 -0.116023,-0.10442 -0.278455,-0.10442 -0.159531,0 -0.278454,0.0841 -0.116023,0.0841 -0.116023,0.21464 z m 1.267543,1.56051 q 0,-0.0522 0.0029,-0.0667 0.0058,-0.0174 0.02901,-0.0406 l 0.55691,-0.62073 q 0.30456,-0.34226 0.30456,-0.64102 0,-0.19434 -0.10152,-0.33357 -0.10152,-0.13922 -0.287157,-0.13922 -0.127625,0 -0.234946,0.0783 -0.107321,0.0783 -0.156631,0.21754 0.0087,-0.003 0.03771,-0.003 0.07251,0 0.113122,0.0464 0.04061,0.0435 0.04061,0.10442 0,0.0783 -0.05221,0.11603 -0.04931,0.0377 -0.09862,0.0377 -0.0203,0 -0.04641,-0.003 -0.02611,-0.006 -0.06671,-0.0464 -0.04061,-0.0406 -0.04061,-0.11312 0,-0.20304 0.15373,-0.36257 0.153731,-0.16243 0.388677,-0.16243 0.266852,0 0.440886,0.15953 0.174035,0.15663 0.174035,0.40318 0,0.087 -0.02611,0.16533 -0.0261,0.0783 -0.06091,0.13923 -0.03481,0.0609 -0.127625,0.15953 -0.09282,0.0957 -0.168233,0.16533 -0.07541,0.0696 -0.243648,0.21754 l -0.30746,0.29876 h 0.522103 q 0.25525,0 0.275554,-0.0232 0.029,-0.0406 0.06381,-0.25815 h 0.07252 l -0.08122,0.5047 z m 1.470583,0.69613 q 0,-0.0145 0.03771,-0.0493 0.466992,-0.47569 0.466992,-1.37197 0,-0.89917 -0.449589,-1.35456 -0.05511,-0.0522 -0.05511,-0.0667 0,-0.029 0.02901,-0.029 0.0203,0 0.08992,0.058 0.06961,0.058 0.176935,0.19144 0.107321,0.13343 0.185636,0.29586 0.191438,0.39447 0.191438,0.90497 0,0.4902 -0.182736,0.88468 -0.07832,0.16533 -0.188537,0.30456 -0.107321,0.13923 -0.179836,0.20014 -0.07251,0.0609 -0.09282,0.0609 -0.02901,0 -0.02901,-0.029 z m 1.250141,-0.74254 q -0.04351,-0.0464 -0.04351,-0.10732 0,-0.0609 0.04351,-0.10442 0.04351,-0.0464 0.110221,-0.0464 0.06381,0 0.107321,0.0435 0.04351,0.0406 0.04351,0.10732 0,0.0667 -0.04641,0.11022 -0.04641,0.0435 -0.104421,0.0435 -0.06671,0 -0.110221,-0.0464 z"
         id="path16" />
    </g>
    <path
       style="fill:#000000;fill-opacity:1;stroke:#b3b3b3;stroke-width:3;stroke-linejoin:round;stroke-miterlimit:3.9;stroke-dasharray:none;stroke-dashoffset:0;paint-order:stroke fill markers"
       d="M 12.424377,99.768683 H 82.953735"
       id="path5"
       sodipodi:nodetypes="cc" />
    <path
       style="fill:#000000;fill-opacity:1;stroke:#b3b3b3;stroke-width:3;stroke-linejoin:round;stroke-miterlimit:3.9;stroke-dasharray:none;stroke-dashoffset:0;paint-order:stroke fill markers"
       d="m 12.424377,105.28025 h 7.753558"
       id="path6"
       sodipodi:nodetypes="cc" />
    <path
       style="fill:#000000;fill-opacity:1;stroke:#b3b3b3;stroke-width:3;stroke-linejoin:round;stroke-miterlimit:3.9;stroke-dasharray:none;stroke-dashoffset:0;paint-order:stroke fill markers"
       d="M 12.424377,111.72598 H 82.953735"
       id="path7"
       sodipodi:nodetypes="cc" />
    <g
       id="g9"
       transform="translate(0,0.4670815)">
      <path
         style="fill:#000000;fill-opacity:1;stroke:#b3b3b3;stroke-width:3;stroke-linejoin:round;stroke-miterlimit:3.9;stroke-dasharray:none;stroke-dashoffset:0;paint-order:stroke fill markers"
         d="m 12.424377,105.28025 h 7.753558"
         id="path8"
         sodipodi:nodetypes="cc" />
      <path
         style="fill:#000000;fill-opacity:1;stroke:#b3b3b3;stroke-width:3;stroke-linejoin:round;stroke-miterlimit:3.9;stroke-dasharray:none;stroke-dashoffset:0;paint-order:stroke fill markers"
         d="M 63.616548,105.28025 H 82.953735"
         id="path9"
         sodipodi:nodetypes="cc" />
    </g>
  </g>
</svg>
