<?xml version="1.0" encoding="UTF-8" standalone="no"?>
<!-- Created with Inkscape (http://www.inkscape.org/) -->

<svg
   width="37.511276mm"
   height="34.347424mm"
   viewBox="0 0 37.511276 34.347424"
   version="1.1"
   id="svg15754"
   xml:space="preserve"
   inkscape:version="1.2.1 (9c6d41e, 2022-07-14)"
   sodipodi:docname="doi.svg"
   xmlns:inkscape="http://www.inkscape.org/namespaces/inkscape"
   xmlns:sodipodi="http://sodipodi.sourceforge.net/DTD/sodipodi-0.dtd"
   xmlns="http://www.w3.org/2000/svg"
   xmlns:svg="http://www.w3.org/2000/svg"><sodipodi:namedview
     id="namedview15756"
     pagecolor="#ffffff"
     bordercolor="#000000"
     borderopacity="0.25"
     inkscape:showpageshadow="2"
     inkscape:pageopacity="0.0"
     inkscape:pagecheckerboard="0"
     inkscape:deskcolor="#d1d1d1"
     inkscape:document-units="mm"
     showgrid="false"
     inkscape:zoom="4.1982164"
     inkscape:cx="70.982525"
     inkscape:cy="64.908517"
     inkscape:window-width="1473"
     inkscape:window-height="765"
     inkscape:window-x="0"
     inkscape:window-y="38"
     inkscape:window-maximized="0"
     inkscape:current-layer="layer1" /><defs
     id="defs15751" /><g
     inkscape:label="Layer 1"
     inkscape:groupmode="layer"
     id="layer1"
     transform="translate(-39.643991,-121.49999)"><circle
       style="fill:#fcb525;fill-opacity:1;stroke-width:0.272215"
       id="path15822"
       cx="56.817703"
       cy="138.67371"
       r="17.173712" /><path
       id="path16099"
       style="font-weight:bold;font-size:20.3034px;font-family:'Avenir Next';-inkscape-font-specification:'Avenir Next Bold';fill:#000000;stroke-width:1.68117"
       d="m 49.552531,128.17564 v 6.84041 h -0.04082 c -0.287348,-0.33049 -0.935765,-0.63448 -1.455726,-0.91209 -0.519961,-0.27761 -1.156352,-0.41651 -1.908927,-0.41651 -0.738892,0 -1.409186,0.1389 -2.011247,0.41651 -0.588376,0.27761 -1.095108,0.65425 -1.519287,1.13016 -0.410496,0.47591 -0.731669,1.03151 -0.964282,1.66605 -0.218932,0.62132 -0.328662,1.27525 -0.328662,1.96267 0,0.68743 0.10973,1.34881 0.328662,1.98334 0.218931,0.63454 0.533633,1.19604 0.944128,1.68517 0.424179,0.4759 0.937381,0.85948 1.539441,1.15032 0.602061,0.29083 1.285813,0.43615 2.052071,0.43615 0.68416,0 1.327538,-0.13197 1.929598,-0.39636 0.615744,-0.27761 1.332484,-0.66761 1.660881,-1.16995 h 0.04134 v 1.28881 h 2.854089 v -15.66468 z m -2.380217,8.16901 c 0.38313,0 0.725264,0.0727 1.026294,0.21807 0.30103,0.14542 0.553879,0.33721 0.759127,0.57516 0.218931,0.23796 0.383011,0.50883 0.492477,0.81287 0.123148,0.30406 0.185001,0.61497 0.185001,0.93225 0,0.31726 -0.06185,0.62767 -0.185001,0.93172 -0.109466,0.30405 -0.273546,0.57492 -0.492477,0.81287 -0.205248,0.23795 -0.458097,0.42974 -0.759127,0.57516 -0.30103,0.14542 -0.643164,0.21808 -1.026294,0.21808 -0.396812,0 -0.745934,-0.0727 -1.046964,-0.21808 -0.301031,-0.14542 -0.55388,-0.33721 -0.759127,-0.57516 -0.205248,-0.23795 -0.362857,-0.50882 -0.472322,-0.81287 -0.09578,-0.31726 -0.143661,-0.63461 -0.143661,-0.95188 0,-0.31727 0.04788,-0.62768 0.143661,-0.93172 0.109465,-0.30405 0.267074,-0.5685 0.472322,-0.79324 0.205247,-0.23795 0.458096,-0.42974 0.759127,-0.57516 0.30103,-0.14541 0.650152,-0.21807 1.046964,-0.21807 z" /><text
       xml:space="preserve"
       style="font-style:normal;font-variant:normal;font-weight:normal;font-stretch:normal;font-size:5.00287px;font-family:Arial;-inkscape-font-specification:Arial;fill:#000000;stroke-width:0.416905"
       x="73.52037"
       y="131.72548"
       id="text15941"><tspan
         sodipodi:role="line"
         id="tspan15939"
         style="font-style:normal;font-variant:normal;font-weight:normal;font-stretch:normal;font-family:Helvetica;-inkscape-font-specification:Helvetica;fill:#000000;stroke-width:0.416905"
         x="73.52037"
         y="131.72548">®</tspan></text><path
       d="m 65.003418,138.85893 q 0,1.2667 -0.456839,2.30497 -0.45684,1.0175 -1.245926,1.74429 -0.789086,0.70603 -1.827357,1.10056 -1.038271,0.39455 -2.2219,0.39455 -1.162865,0 -2.221901,-0.39455 -1.038271,-0.39453 -1.827357,-1.10056 -0.768321,-0.72679 -1.22516,-1.74429 -0.45684,-1.03827 -0.45684,-2.30497 0,-1.26669 0.45684,-2.2842 0.456839,-1.0175 1.22516,-1.72353 0.789086,-0.70602 1.827357,-1.07979 1.059036,-0.37379 2.221901,-0.37379 1.183629,0 2.2219,0.37379 1.038271,0.37377 1.827357,1.07979 0.789086,0.70603 1.245926,1.72353 0.456839,1.01751 0.456839,2.2842 z m -3.280938,0 q 0,-0.49837 -0.166123,-0.97597 -0.166123,-0.47761 -0.477604,-0.83062 -0.311482,-0.37378 -0.768321,-0.6022 -0.45684,-0.22841 -1.059036,-0.22841 -0.602198,0 -1.059038,0.22841 -0.456838,0.22842 -0.76832,0.6022 -0.290716,0.35301 -0.456839,0.83062 -0.145358,0.4776 -0.145358,0.97597 0,0.49837 0.145358,0.97598 0.166123,0.4776 0.477605,0.87214 0.311481,0.37378 0.76832,0.6022 0.45684,0.22842 1.059037,0.22842 0.602197,0 1.059037,-0.22842 0.456838,-0.22842 0.76832,-0.6022 0.311481,-0.39454 0.456839,-0.87214 0.166123,-0.47761 0.166123,-0.97598 z"
       id="path16101"
       style="font-weight:bold;font-size:20.3034px;font-family:'Avenir Next';-inkscape-font-specification:'Avenir Next Bold';fill:#ffffff;stroke-width:1.73045" /><path
       style="font-weight:bold;font-size:20.3034px;font-family:'Avenir Next';-inkscape-font-specification:'Avenir Next Bold';fill:#ffffff;stroke-width:1.70219"
       d="m 66.206516,144.01722 v -10.17231 h 3.349918 v 10.17231 z"
       id="path16165" /><path
       style="font-weight:bold;font-size:20.3034px;font-family:'Avenir Next';-inkscape-font-specification:'Avenir Next Bold';fill:#ffffff;stroke-width:1.80532"
       d="m 69.866735,130.06571 q 0,0.41161 -0.17331,0.77989 -0.151647,0.34663 -0.433276,0.6066 -0.259966,0.25996 -0.649914,0.4116 -0.368285,0.15165 -0.779898,0.15165 -0.866552,0 -1.451475,-0.56325 -0.584922,-0.58494 -0.584922,-1.38649 0,-0.38995 0.151646,-0.73657 0.151647,-0.36828 0.433276,-0.62826 0.28163,-0.25996 0.649914,-0.4116 0.368285,-0.17332 0.801561,-0.17332 0.411613,0 0.779898,0.15166 0.389948,0.15164 0.649914,0.4116 0.281629,0.25997 0.433276,0.62826 0.17331,0.34661 0.17331,0.75823 z"
       id="path16103" /></g></svg>
