<?xml version="1.0" encoding="UTF-8" standalone="no"?>
<!-- Created with Inkscape (http://www.inkscape.org/) -->

<svg
   width="134.3864mm"
   height="38.8671mm"
   viewBox="0 0 134.38639 38.8671"
   version="1.1"
   id="svg17754"
   xml:space="preserve"
   inkscape:version="1.3 (0e150ed, 2023-07-21)"
   sodipodi:docname="lattices-to-ildg.svg"
   xmlns:inkscape="http://www.inkscape.org/namespaces/inkscape"
   xmlns:sodipodi="http://sodipodi.sourceforge.net/DTD/sodipodi-0.dtd"
   xmlns:xlink="http://www.w3.org/1999/xlink"
   xmlns="http://www.w3.org/2000/svg"
   xmlns:svg="http://www.w3.org/2000/svg"><sodipodi:namedview
     id="namedview17756"
     pagecolor="#ffffff"
     bordercolor="#000000"
     borderopacity="0.25"
     inkscape:showpageshadow="2"
     inkscape:pageopacity="0.0"
     inkscape:pagecheckerboard="0"
     inkscape:deskcolor="#d1d1d1"
     inkscape:document-units="mm"
     showgrid="false"
     inkscape:zoom="1.4554885"
     inkscape:cx="17.176364"
     inkscape:cy="80.041854"
     inkscape:window-width="1920"
     inkscape:window-height="964"
     inkscape:window-x="0"
     inkscape:window-y="25"
     inkscape:window-maximized="1"
     inkscape:current-layer="layer1" /><defs
     id="defs17751"><linearGradient
       id="linearGradient5450"><stop
         style="stop-color:#008000;stop-opacity:1;"
         offset="0"
         id="stop5452" /><stop
         style="stop-color:#008000;stop-opacity:0.39215687;"
         offset="1"
         id="stop5454" /></linearGradient><linearGradient
       id="linearGradient4992"><stop
         style="stop-color:#0000ff;stop-opacity:1;"
         offset="0"
         id="stop4994" /><stop
         style="stop-color:#0101ff;stop-opacity:0.39215687;"
         offset="1"
         id="stop4996" /></linearGradient><marker
       inkscape:stockid="Arrow2Mend"
       orient="auto"
       refY="0"
       refX="0"
       id="Arrow2Mend"
       style="overflow:visible"><path
         id="path4472"
         style="font-size:12px;fill-rule:evenodd;stroke-width:0.625;stroke-linejoin:round"
         d="M 8.7185878,4.0337352 -2.2072895,0.01601326 8.7185884,-4.0017078 c -1.7454984,2.3720609 -1.7354408,5.6174519 -6e-7,8.035443 z"
         transform="scale(-0.6)"
         inkscape:connector-curvature="0" /></marker><radialGradient
       cx="63.333199"
       cy="107.454"
       r="4"
       fx="63.333199"
       fy="107.454"
       gradientUnits="userSpaceOnUse"
       xlink:href="#linearGradient431"
       id="radialGradient5703"
       gradientTransform="matrix(2.58134,0,0,2.35812,-99.8469,-146.69)" /><linearGradient
       id="linearGradient431"><stop
         offset="0"
         stop-color="#FFFFFF"
         stop-opacity="1"
         id="stop16867" /><stop
         offset="1"
         stop-color="#0D0D88"
         stop-opacity="1"
         id="stop16869" /></linearGradient></defs><g
     inkscape:label="Layer 1"
     inkscape:groupmode="layer"
     id="layer1"
     transform="translate(-68.585067,-185.21701)"><g
       id="g21201"
       transform="matrix(0.3476612,0,0,0.3476612,69.967205,145.57813)"
       style="fill:#ffffff"><circle
         r="1.5119051"
         cy="115.52773"
         cx="23.805717"
         style="fill:#ffffff;fill-opacity:0.0784314;stroke:none;stroke-width:0.0330729"
         id="path3568"
         inkscape:tile-x0="241.42856"
         inkscape:tile-y0="446.6479" /><circle
         r="1.5119051"
         cy="131.38573"
         cx="23.805717"
         style="fill:#ffffff;fill-opacity:0.0784314;stroke:none;stroke-width:0.0330729"
         id="path3570"
         inkscape:tile-x0="241.42856"
         inkscape:tile-y0="446.6479" /><circle
         r="1.5119051"
         cy="147.24373"
         cx="23.805717"
         style="fill:#ffffff;fill-opacity:0.0784314;stroke:none;stroke-width:0.0330729"
         id="path3572"
         inkscape:tile-x0="241.42856"
         inkscape:tile-y0="446.6479" /><circle
         r="1.5119051"
         cy="163.10172"
         cx="23.805717"
         style="fill:#ffffff;fill-opacity:0.0805687;stroke:none;stroke-width:0.0330729"
         id="path3574"
         inkscape:tile-x0="241.42856"
         inkscape:tile-y0="446.6479" /><circle
         r="1.5119051"
         cy="178.9597"
         cx="23.805717"
         style="fill:#ffffff;fill-opacity:0.0805687;stroke:none;stroke-width:0.0330729"
         id="path3576"
         inkscape:tile-x0="241.42856"
         inkscape:tile-y0="446.6479" /><circle
         r="1.5119051"
         cy="194.8177"
         cx="23.805717"
         style="fill:#ffffff;fill-opacity:0.0805687;stroke:none;stroke-width:0.0330729"
         id="path3578"
         inkscape:tile-x0="241.42856"
         inkscape:tile-y0="446.6479" /><circle
         r="1.5119051"
         cy="115.52773"
         cx="39.663712"
         style="fill:#ffffff;fill-opacity:0.0784314;stroke:none;stroke-width:0.0330729"
         id="path3582"
         inkscape:tile-x0="241.42856"
         inkscape:tile-y0="446.6479" /><circle
         r="1.5119051"
         cy="131.38573"
         cx="39.663712"
         style="fill:#ffffff;fill-opacity:0.0784314;stroke:none;stroke-width:0.0330729"
         id="path3584"
         inkscape:tile-x0="241.42856"
         inkscape:tile-y0="446.6479" /><circle
         r="1.5119051"
         cy="147.24373"
         cx="39.663712"
         style="fill:#ffffff;fill-opacity:0.0784314;stroke:none;stroke-width:0.0330729"
         id="path3586"
         inkscape:tile-x0="241.42856"
         inkscape:tile-y0="446.6479" /><circle
         r="1.5119051"
         cy="163.10172"
         cx="39.663712"
         style="fill:#ffffff;fill-opacity:0.0805687;stroke:none;stroke-width:0.0330729"
         id="path3588"
         inkscape:tile-x0="241.42856"
         inkscape:tile-y0="446.6479" /><circle
         r="1.5119051"
         cy="178.9597"
         cx="39.663712"
         style="fill:#ffffff;fill-opacity:0.0805687;stroke:none;stroke-width:0.0330729"
         id="path3590"
         inkscape:tile-x0="241.42856"
         inkscape:tile-y0="446.6479" /><circle
         r="1.5119051"
         cy="194.8177"
         cx="39.663712"
         style="fill:#ffffff;fill-opacity:0.0805687;stroke:none;stroke-width:0.0330729"
         id="path3592"
         inkscape:tile-x0="241.42856"
         inkscape:tile-y0="446.6479" /><circle
         r="1.5119051"
         cy="115.52773"
         cx="55.521698"
         style="fill:#ffffff;fill-opacity:0.0784314;stroke:none;stroke-width:0.0330729"
         id="path3596"
         inkscape:tile-x0="241.42856"
         inkscape:tile-y0="446.6479" /><circle
         r="1.5119051"
         cy="131.38573"
         cx="55.521698"
         style="fill:#ffffff;fill-opacity:0.0784314;stroke:none;stroke-width:0.0330729"
         id="path3598"
         inkscape:tile-x0="241.42856"
         inkscape:tile-y0="446.6479" /><circle
         r="1.5119051"
         cy="147.24373"
         cx="55.521698"
         style="fill:#ffffff;fill-opacity:0.0784314;stroke:none;stroke-width:0.0330729"
         id="path3600"
         inkscape:tile-x0="241.42856"
         inkscape:tile-y0="446.6479" /><circle
         r="1.5119051"
         cy="163.10172"
         cx="55.521698"
         style="fill:#ffffff;fill-opacity:0.0805687;stroke:none;stroke-width:0.0330729"
         id="path3602"
         inkscape:tile-x0="241.42856"
         inkscape:tile-y0="446.6479" /><circle
         r="1.5119051"
         cy="178.9597"
         cx="55.521698"
         style="fill:#ffffff;fill-opacity:0.0805687;stroke:none;stroke-width:0.0330729"
         id="path3604"
         inkscape:tile-x0="241.42856"
         inkscape:tile-y0="446.6479" /><circle
         r="1.5119051"
         cy="194.8177"
         cx="55.521698"
         style="fill:#ffffff;fill-opacity:0.0805687;stroke:none;stroke-width:0.0330729"
         id="path3606"
         inkscape:tile-x0="241.42856"
         inkscape:tile-y0="446.6479" /><circle
         r="1.5119051"
         cy="115.52773"
         cx="71.379692"
         style="fill:#ffffff;fill-opacity:0.0784314;stroke:none;stroke-width:0.0330729"
         id="path3610"
         inkscape:tile-x0="241.42856"
         inkscape:tile-y0="446.6479" /><circle
         r="1.5119051"
         cy="131.38573"
         cx="71.379692"
         style="fill:#ffffff;fill-opacity:0.0784314;stroke:none;stroke-width:0.0330729"
         id="path3612"
         inkscape:tile-x0="241.42856"
         inkscape:tile-y0="446.6479" /><circle
         r="1.5119051"
         cy="147.24373"
         cx="71.379692"
         style="fill:#ffffff;fill-opacity:0.0784314;stroke:none;stroke-width:0.0330729"
         id="path3614"
         inkscape:tile-x0="241.42856"
         inkscape:tile-y0="446.6479" /><circle
         r="1.5119051"
         cy="163.10172"
         cx="71.379692"
         style="opacity:0.04;fill:#ffffff;fill-opacity:1;stroke:none;stroke-width:0.0330729"
         id="path3616"
         inkscape:tile-x0="241.42856"
         inkscape:tile-y0="446.6479" /><circle
         r="1.5119051"
         cy="178.9597"
         cx="71.379692"
         style="opacity:0.04;fill:#ffffff;fill-opacity:1;stroke:none;stroke-width:0.0330729"
         id="path3618"
         inkscape:tile-x0="241.42856"
         inkscape:tile-y0="446.6479" /><circle
         r="1.5119051"
         cy="194.8177"
         cx="71.379692"
         style="opacity:0.04;fill:#ffffff;fill-opacity:1;stroke:none;stroke-width:0.0330729"
         id="path3620"
         inkscape:tile-x0="241.42856"
         inkscape:tile-y0="446.6479" /><circle
         r="1.5119051"
         cy="115.52773"
         cx="87.237686"
         style="fill:#ffffff;fill-opacity:0.0784314;stroke:none;stroke-width:0.0330729"
         id="path3624"
         inkscape:tile-x0="241.42856"
         inkscape:tile-y0="446.6479" /><circle
         r="1.5119051"
         cy="131.38573"
         cx="87.237686"
         style="fill:#ffffff;fill-opacity:0.0784314;stroke:none;stroke-width:0.0330729"
         id="path3626"
         inkscape:tile-x0="241.42856"
         inkscape:tile-y0="446.6479" /><circle
         r="1.5119051"
         cy="147.24373"
         cx="87.237686"
         style="fill:#ffffff;fill-opacity:0.0784314;stroke:none;stroke-width:0.0330729"
         id="path3628"
         inkscape:tile-x0="241.42856"
         inkscape:tile-y0="446.6479" /><circle
         r="1.5119051"
         cy="163.10172"
         cx="87.237686"
         style="opacity:0.04;fill:#ffffff;fill-opacity:1;stroke:none;stroke-width:0.0330729"
         id="path3630"
         inkscape:tile-x0="241.42856"
         inkscape:tile-y0="446.6479" /><circle
         r="1.5119051"
         cy="178.9597"
         cx="87.237686"
         style="opacity:0.04;fill:#ffffff;fill-opacity:1;stroke:none;stroke-width:0.0330729"
         id="path3632"
         inkscape:tile-x0="241.42856"
         inkscape:tile-y0="446.6479" /><circle
         r="1.5119051"
         cy="194.8177"
         cx="87.237686"
         style="opacity:0.04;fill:#ffffff;fill-opacity:1;stroke:none;stroke-width:0.0330729"
         id="path3634"
         inkscape:tile-x0="241.42856"
         inkscape:tile-y0="446.6479" /><circle
         r="1.5119051"
         cy="115.52773"
         cx="103.09566"
         style="fill:#ffffff;fill-opacity:0.0784314;stroke:none;stroke-width:0.0330729"
         id="path3638"
         inkscape:tile-x0="241.42856"
         inkscape:tile-y0="446.6479" /><circle
         r="1.5119051"
         cy="131.38573"
         cx="103.09566"
         style="fill:#ffffff;fill-opacity:0.0784314;stroke:none;stroke-width:0.0330729"
         id="path3640"
         inkscape:tile-x0="241.42856"
         inkscape:tile-y0="446.6479" /><circle
         r="1.5119051"
         cy="147.24373"
         cx="103.09566"
         style="fill:#ffffff;fill-opacity:0.0784314;stroke:none;stroke-width:0.0330729"
         id="path3642"
         inkscape:tile-x0="241.42856"
         inkscape:tile-y0="446.6479" /><circle
         r="1.5119051"
         cy="163.10172"
         cx="103.09566"
         style="opacity:0.04;fill:#ffffff;fill-opacity:1;stroke:none;stroke-width:0.0330729"
         id="path3644"
         inkscape:tile-x0="241.42856"
         inkscape:tile-y0="446.6479" /><circle
         r="1.5119051"
         cy="178.9597"
         cx="103.09566"
         style="opacity:0.04;fill:#ffffff;fill-opacity:1;stroke:none;stroke-width:0.0330729"
         id="path3646"
         inkscape:tile-x0="241.42856"
         inkscape:tile-y0="446.6479" /><circle
         r="1.5119051"
         cy="194.8177"
         cx="103.09566"
         style="opacity:0.04;fill:#ffffff;fill-opacity:1;stroke:none;stroke-width:0.0330729"
         id="path3648"
         inkscape:tile-x0="241.42856"
         inkscape:tile-y0="446.6479" /><circle
         cy="125.35511"
         cx="15.049275"
         inkscape:tile-y0="446.6479"
         inkscape:tile-x0="241.42856"
         id="path3468"
         style="fill:#ffffff;fill-opacity:0.227451;stroke:none;stroke-width:0.0330729"
         r="1.5119051" /><circle
         r="1.5119051"
         cy="141.21312"
         cx="15.049275"
         inkscape:tile-y0="446.6479"
         inkscape:tile-x0="241.42856"
         id="path3470"
         style="fill:#ffffff;fill-opacity:0.227451;stroke:none;stroke-width:0.0330729" /><circle
         r="1.5119051"
         cy="157.07111"
         cx="15.049275"
         inkscape:tile-y0="446.6479"
         inkscape:tile-x0="241.42856"
         id="path3472"
         style="fill:#ffffff;fill-opacity:0.227451;stroke:none;stroke-width:0.0330729" /><circle
         r="1.5119051"
         cy="172.92909"
         cx="15.049275"
         inkscape:tile-y0="446.6479"
         inkscape:tile-x0="241.42856"
         id="path3474"
         style="fill:#ffffff;fill-opacity:0.227488;stroke:none;stroke-width:0.0330729" /><circle
         r="1.5119051"
         cy="188.78709"
         cx="15.049275"
         inkscape:tile-y0="446.6479"
         inkscape:tile-x0="241.42856"
         id="path3476"
         style="fill:#ffffff;fill-opacity:0.227488;stroke:none;stroke-width:0.0330729" /><circle
         r="1.5119051"
         cy="204.64507"
         cx="15.049275"
         inkscape:tile-y0="446.6479"
         inkscape:tile-x0="241.42856"
         id="path3478"
         style="fill:#ffffff;fill-opacity:0.227488;stroke:none;stroke-width:0.0330729" /><circle
         r="1.5119051"
         cy="125.35511"
         cx="30.907263"
         inkscape:tile-y0="446.6479"
         inkscape:tile-x0="241.42856"
         id="path3482"
         style="fill:#ffffff;fill-opacity:0.227451;stroke:none;stroke-width:0.0330729" /><circle
         r="1.5119051"
         cy="141.21312"
         cx="30.907263"
         inkscape:tile-y0="446.6479"
         inkscape:tile-x0="241.42856"
         id="path3484"
         style="fill:#ffffff;fill-opacity:0.227451;stroke:none;stroke-width:0.0330729" /><circle
         r="1.5119051"
         cy="157.07111"
         cx="30.907263"
         inkscape:tile-y0="446.6479"
         inkscape:tile-x0="241.42856"
         id="path3486"
         style="fill:#ffffff;fill-opacity:0.227451;stroke:none;stroke-width:0.0330729" /><circle
         r="1.5119051"
         cy="172.92909"
         cx="30.907263"
         inkscape:tile-y0="446.6479"
         inkscape:tile-x0="241.42856"
         id="path3488"
         style="fill:#ffffff;fill-opacity:0.227488;stroke:none;stroke-width:0.0330729" /><circle
         r="1.5119051"
         cy="188.78709"
         cx="30.907263"
         inkscape:tile-y0="446.6479"
         inkscape:tile-x0="241.42856"
         id="path3490"
         style="fill:#ffffff;fill-opacity:0.227488;stroke:none;stroke-width:0.0330729" /><circle
         r="1.5119051"
         cy="204.64507"
         cx="30.907263"
         inkscape:tile-y0="446.6479"
         inkscape:tile-x0="241.42856"
         id="path3492"
         style="fill:#ffffff;fill-opacity:0.227488;stroke:none;stroke-width:0.0330729" /><circle
         r="1.5119051"
         cy="125.35511"
         cx="46.765259"
         inkscape:tile-y0="446.6479"
         inkscape:tile-x0="241.42856"
         id="path3496"
         style="fill:#ffffff;fill-opacity:0.227451;stroke:none;stroke-width:0.0330729" /><circle
         r="1.5119051"
         cy="141.21312"
         cx="46.765259"
         inkscape:tile-y0="446.6479"
         inkscape:tile-x0="241.42856"
         id="path3498"
         style="fill:#ffffff;fill-opacity:0.227451;stroke:none;stroke-width:0.0330729" /><circle
         r="1.5119051"
         cy="157.07111"
         cx="46.765259"
         inkscape:tile-y0="446.6479"
         inkscape:tile-x0="241.42856"
         id="path3500"
         style="fill:#ffffff;fill-opacity:0.227451;stroke:none;stroke-width:0.0330729" /><circle
         r="1.5119051"
         cy="172.92909"
         cx="46.765259"
         inkscape:tile-y0="446.6479"
         inkscape:tile-x0="241.42856"
         id="path3502"
         style="fill:#ffffff;fill-opacity:0.227488;stroke:none;stroke-width:0.0330729" /><circle
         r="1.5119051"
         cy="188.78709"
         cx="46.765259"
         inkscape:tile-y0="446.6479"
         inkscape:tile-x0="241.42856"
         id="path3504"
         style="fill:#ffffff;fill-opacity:0.227488;stroke:none;stroke-width:0.0330729" /><circle
         r="1.5119051"
         cy="204.64507"
         cx="46.765259"
         inkscape:tile-y0="446.6479"
         inkscape:tile-x0="241.42856"
         id="path3506"
         style="fill:#ffffff;fill-opacity:0.227488;stroke:none;stroke-width:0.0330729" /><circle
         r="1.5119051"
         cy="125.35511"
         cx="62.623253"
         inkscape:tile-y0="446.6479"
         inkscape:tile-x0="241.42856"
         id="path3510"
         style="fill:#ffffff;fill-opacity:0.227451;stroke:none;stroke-width:0.0330729" /><circle
         r="1.5119051"
         cy="141.21312"
         cx="62.623253"
         inkscape:tile-y0="446.6479"
         inkscape:tile-x0="241.42856"
         id="path3512"
         style="fill:#ffffff;fill-opacity:0.227451;stroke:none;stroke-width:0.0330729" /><circle
         r="1.5119051"
         cy="157.07111"
         cx="62.623253"
         inkscape:tile-y0="446.6479"
         inkscape:tile-x0="241.42856"
         id="path3514"
         style="fill:#ffffff;fill-opacity:0.227451;stroke:none;stroke-width:0.0330729" /><circle
         r="1.5119051"
         cy="172.92909"
         cx="62.623253"
         inkscape:tile-y0="446.6479"
         inkscape:tile-x0="241.42856"
         id="path3516"
         style="opacity:0.12;fill:#ffffff;fill-opacity:1;stroke:none;stroke-width:0.0330729" /><circle
         r="1.5119051"
         cy="188.78709"
         cx="62.623253"
         inkscape:tile-y0="446.6479"
         inkscape:tile-x0="241.42856"
         id="path3518"
         style="opacity:0.12;fill:#ffffff;fill-opacity:1;stroke:none;stroke-width:0.0330729" /><circle
         r="1.5119051"
         cy="204.64507"
         cx="62.623253"
         inkscape:tile-y0="446.6479"
         inkscape:tile-x0="241.42856"
         id="path3520"
         style="opacity:0.12;fill:#ffffff;fill-opacity:1;stroke:none;stroke-width:0.0330729" /><circle
         r="1.5119051"
         cy="125.35511"
         cx="78.481232"
         inkscape:tile-y0="446.6479"
         inkscape:tile-x0="241.42856"
         id="path3524"
         style="fill:#ffffff;fill-opacity:0.227451;stroke:none;stroke-width:0.0330729" /><circle
         r="1.5119051"
         cy="141.21312"
         cx="78.481232"
         inkscape:tile-y0="446.6479"
         inkscape:tile-x0="241.42856"
         id="path3526"
         style="fill:#ffffff;fill-opacity:0.227451;stroke:none;stroke-width:0.0330729" /><circle
         r="1.5119051"
         cy="157.07111"
         cx="78.481232"
         inkscape:tile-y0="446.6479"
         inkscape:tile-x0="241.42856"
         id="path3528"
         style="fill:#ffffff;fill-opacity:0.227451;stroke:none;stroke-width:0.0330729" /><circle
         r="1.5119051"
         cy="172.92909"
         cx="78.481232"
         inkscape:tile-y0="446.6479"
         inkscape:tile-x0="241.42856"
         id="path3530"
         style="opacity:0.12;fill:#ffffff;fill-opacity:1;stroke:none;stroke-width:0.0330729" /><circle
         r="1.5119051"
         cy="188.78709"
         cx="78.481232"
         inkscape:tile-y0="446.6479"
         inkscape:tile-x0="241.42856"
         id="path3532"
         style="opacity:0.12;fill:#ffffff;fill-opacity:1;stroke:none;stroke-width:0.0330729" /><circle
         r="1.5119051"
         cy="204.64507"
         cx="78.481232"
         inkscape:tile-y0="446.6479"
         inkscape:tile-x0="241.42856"
         id="path3534"
         style="opacity:0.12;fill:#ffffff;fill-opacity:1;stroke:none;stroke-width:0.0330729" /><circle
         r="1.5119051"
         cy="125.35511"
         cx="94.339226"
         inkscape:tile-y0="446.6479"
         inkscape:tile-x0="241.42856"
         id="path3538"
         style="fill:#ffffff;fill-opacity:0.227451;stroke:none;stroke-width:0.0330729" /><circle
         r="1.5119051"
         cy="141.21312"
         cx="94.339226"
         inkscape:tile-y0="446.6479"
         inkscape:tile-x0="241.42856"
         id="path3540"
         style="fill:#ffffff;fill-opacity:0.227451;stroke:none;stroke-width:0.0330729" /><circle
         r="1.5119051"
         cy="157.07111"
         cx="94.339226"
         inkscape:tile-y0="446.6479"
         inkscape:tile-x0="241.42856"
         id="path3542"
         style="fill:#ffffff;fill-opacity:0.227451;stroke:none;stroke-width:0.0330729" /><circle
         r="1.5119051"
         cy="172.92909"
         cx="94.339226"
         inkscape:tile-y0="446.6479"
         inkscape:tile-x0="241.42856"
         id="path3544"
         style="opacity:0.12;fill:#ffffff;fill-opacity:1;stroke:none;stroke-width:0.0330729" /><circle
         r="1.5119051"
         cy="188.78709"
         cx="94.339226"
         inkscape:tile-y0="446.6479"
         inkscape:tile-x0="241.42856"
         id="path3546"
         style="opacity:0.12;fill:#ffffff;fill-opacity:1;stroke:none;stroke-width:0.0330729" /><circle
         r="1.5119051"
         cy="204.64507"
         cx="94.339226"
         inkscape:tile-y0="446.6479"
         inkscape:tile-x0="241.42856"
         id="path3548"
         style="opacity:0.12;fill:#ffffff;fill-opacity:1;stroke:none;stroke-width:0.0330729" /><circle
         style="fill:#ffffff;fill-opacity:0.501961;stroke:none;stroke-width:0.0330729"
         id="path3368"
         inkscape:tile-x0="241.42856"
         inkscape:tile-y0="446.6479"
         cx="6.2928205"
         cy="135.1825"
         r="1.511905" /><circle
         style="fill:#ffffff;fill-opacity:0.501961;stroke:none;stroke-width:0.0330729"
         id="path3370"
         inkscape:tile-x0="241.42856"
         inkscape:tile-y0="446.6479"
         cx="6.2928205"
         cy="151.04048"
         r="1.511905" /><circle
         style="fill:#ffffff;fill-opacity:0.501961;stroke:none;stroke-width:0.0330729"
         id="path3372"
         inkscape:tile-x0="241.42856"
         inkscape:tile-y0="446.6479"
         cx="6.2928205"
         cy="166.89848"
         r="1.511905" /><circle
         style="fill:#ffffff;fill-opacity:0.50237;stroke:none;stroke-width:0.0330729"
         id="path3374"
         inkscape:tile-x0="241.42856"
         inkscape:tile-y0="446.6479"
         cx="6.2928205"
         cy="182.75648"
         r="1.511905" /><circle
         style="fill:#ffffff;fill-opacity:0.50237;stroke:none;stroke-width:0.0330729"
         id="path3376"
         inkscape:tile-x0="241.42856"
         inkscape:tile-y0="446.6479"
         cx="6.2928205"
         cy="198.61447"
         r="1.511905" /><circle
         style="fill:#ffffff;fill-opacity:0.50237;stroke:none;stroke-width:0.0330729"
         id="path3378"
         inkscape:tile-x0="241.42856"
         inkscape:tile-y0="446.6479"
         cx="6.2928205"
         cy="214.47246"
         r="1.511905" /><circle
         style="fill:#ffffff;fill-opacity:0.501961;stroke:none;stroke-width:0.0330729"
         id="path3382"
         inkscape:tile-x0="241.42856"
         inkscape:tile-y0="446.6479"
         cx="22.15081"
         cy="135.1825"
         r="1.511905" /><circle
         style="fill:#ffffff;fill-opacity:0.501961;stroke:none;stroke-width:0.0330729"
         id="path3384"
         inkscape:tile-x0="241.42856"
         inkscape:tile-y0="446.6479"
         cx="22.15081"
         cy="151.04048"
         r="1.511905" /><circle
         style="fill:#ffffff;fill-opacity:0.501961;stroke:none;stroke-width:0.0330729"
         id="path3386"
         inkscape:tile-x0="241.42856"
         inkscape:tile-y0="446.6479"
         cx="22.15081"
         cy="166.89848"
         r="1.511905" /><circle
         style="fill:#ffffff;fill-opacity:0.50237;stroke:none;stroke-width:0.0330729"
         id="path3388"
         inkscape:tile-x0="241.42856"
         inkscape:tile-y0="446.6479"
         cx="22.15081"
         cy="182.75648"
         r="1.511905" /><circle
         style="fill:#ffffff;fill-opacity:0.50237;stroke:none;stroke-width:0.0330729"
         id="path3390"
         inkscape:tile-x0="241.42856"
         inkscape:tile-y0="446.6479"
         cx="22.15081"
         cy="198.61447"
         r="1.511905" /><circle
         style="fill:#ffffff;fill-opacity:0.50237;stroke:none;stroke-width:0.0330729"
         id="path3392"
         inkscape:tile-x0="241.42856"
         inkscape:tile-y0="446.6479"
         cx="22.15081"
         cy="214.47246"
         r="1.511905" /><circle
         style="fill:#ffffff;fill-opacity:0.501961;stroke:none;stroke-width:0.0330729"
         id="path3396"
         inkscape:tile-x0="241.42856"
         inkscape:tile-y0="446.6479"
         cx="38.008804"
         cy="135.1825"
         r="1.511905" /><circle
         style="fill:#ffffff;fill-opacity:0.501961;stroke:none;stroke-width:0.0330729"
         id="path3398"
         inkscape:tile-x0="241.42856"
         inkscape:tile-y0="446.6479"
         cx="38.008804"
         cy="151.04048"
         r="1.511905" /><circle
         style="fill:#ffffff;fill-opacity:0.501961;stroke:none;stroke-width:0.0330729"
         id="path3400"
         inkscape:tile-x0="241.42856"
         inkscape:tile-y0="446.6479"
         cx="38.008804"
         cy="166.89848"
         r="1.511905" /><circle
         style="fill:#ffffff;fill-opacity:0.50237;stroke:none;stroke-width:0.0330729"
         id="path3402"
         inkscape:tile-x0="241.42856"
         inkscape:tile-y0="446.6479"
         cx="38.008804"
         cy="182.75648"
         r="1.511905" /><circle
         style="fill:#ffffff;fill-opacity:0.50237;stroke:none;stroke-width:0.0330729"
         id="path3404"
         inkscape:tile-x0="241.42856"
         inkscape:tile-y0="446.6479"
         cx="38.008804"
         cy="198.61447"
         r="1.511905" /><circle
         style="fill:#ffffff;fill-opacity:0.50237;stroke:none;stroke-width:0.0330729"
         id="path3406"
         inkscape:tile-x0="241.42856"
         inkscape:tile-y0="446.6479"
         cx="38.008804"
         cy="214.47246"
         r="1.511905" /><circle
         style="fill:#ffffff;fill-opacity:0.501961;stroke:none;stroke-width:0.0330729"
         id="path3410"
         inkscape:tile-x0="241.42856"
         inkscape:tile-y0="446.6479"
         cx="53.866798"
         cy="135.1825"
         r="1.511905" /><circle
         style="fill:#ffffff;fill-opacity:0.501961;stroke:none;stroke-width:0.0330729"
         id="path3412"
         inkscape:tile-x0="241.42856"
         inkscape:tile-y0="446.6479"
         cx="53.866798"
         cy="151.04048"
         r="1.511905" /><circle
         style="fill:#ffffff;fill-opacity:0.501961;stroke:none;stroke-width:0.0330729"
         id="path3414"
         inkscape:tile-x0="241.42856"
         inkscape:tile-y0="446.6479"
         cx="53.866798"
         cy="166.89848"
         r="1.511905" /><circle
         style="opacity:0.27;fill:#ffffff;fill-opacity:1;stroke:none;stroke-width:0.0330729"
         id="path3416"
         inkscape:tile-x0="241.42856"
         inkscape:tile-y0="446.6479"
         cx="53.866798"
         cy="182.75648"
         r="1.511905" /><circle
         style="opacity:0.27;fill:#ffffff;fill-opacity:1;stroke:none;stroke-width:0.0330729"
         id="path3418"
         inkscape:tile-x0="241.42856"
         inkscape:tile-y0="446.6479"
         cx="53.866798"
         cy="198.61447"
         r="1.511905" /><circle
         style="opacity:0.27;fill:#ffffff;fill-opacity:1;stroke:none;stroke-width:0.0330729"
         id="path3420"
         inkscape:tile-x0="241.42856"
         inkscape:tile-y0="446.6479"
         cx="53.866798"
         cy="214.47246"
         r="1.511905" /><circle
         style="fill:#ffffff;fill-opacity:0.501961;stroke:none;stroke-width:0.0330729"
         id="path3424"
         inkscape:tile-x0="241.42856"
         inkscape:tile-y0="446.6479"
         cx="69.724785"
         cy="135.1825"
         r="1.511905" /><circle
         style="fill:#ffffff;fill-opacity:0.501961;stroke:none;stroke-width:0.0330729"
         id="path3426"
         inkscape:tile-x0="241.42856"
         inkscape:tile-y0="446.6479"
         cx="69.724785"
         cy="151.04048"
         r="1.511905" /><circle
         style="fill:#ffffff;fill-opacity:0.501961;stroke:none;stroke-width:0.0330729"
         id="path3428"
         inkscape:tile-x0="241.42856"
         inkscape:tile-y0="446.6479"
         cx="69.724785"
         cy="166.89848"
         r="1.511905" /><circle
         style="opacity:0.27;fill:#ffffff;fill-opacity:1;stroke:none;stroke-width:0.0330729"
         id="path3430"
         inkscape:tile-x0="241.42856"
         inkscape:tile-y0="446.6479"
         cx="69.724785"
         cy="182.75648"
         r="1.511905" /><circle
         style="opacity:0.27;fill:#ffffff;fill-opacity:1;stroke:none;stroke-width:0.0330729"
         id="path3432"
         inkscape:tile-x0="241.42856"
         inkscape:tile-y0="446.6479"
         cx="69.724785"
         cy="198.61447"
         r="1.511905" /><circle
         style="opacity:0.27;fill:#ffffff;fill-opacity:1;stroke:none;stroke-width:0.0330729"
         id="path3434"
         inkscape:tile-x0="241.42856"
         inkscape:tile-y0="446.6479"
         cx="69.724785"
         cy="214.47246"
         r="1.511905" /><circle
         style="fill:#ffffff;fill-opacity:0.501961;stroke:none;stroke-width:0.0330729"
         id="path3438"
         inkscape:tile-x0="241.42856"
         inkscape:tile-y0="446.6479"
         cx="85.582771"
         cy="135.1825"
         r="1.511905" /><circle
         style="fill:#ffffff;fill-opacity:0.501961;stroke:none;stroke-width:0.0330729"
         id="path3440"
         inkscape:tile-x0="241.42856"
         inkscape:tile-y0="446.6479"
         cx="85.582771"
         cy="151.04048"
         r="1.511905" /><circle
         style="fill:#ffffff;fill-opacity:0.501961;stroke:none;stroke-width:0.0330729"
         id="path3442"
         inkscape:tile-x0="241.42856"
         inkscape:tile-y0="446.6479"
         cx="85.582771"
         cy="166.89848"
         r="1.511905" /><circle
         style="opacity:0.27;fill:#ffffff;fill-opacity:1;stroke:none;stroke-width:0.0330729"
         id="path3444"
         inkscape:tile-x0="241.42856"
         inkscape:tile-y0="446.6479"
         cx="85.582771"
         cy="182.75648"
         r="1.511905" /><circle
         style="opacity:0.27;fill:#ffffff;fill-opacity:1;stroke:none;stroke-width:0.0330729"
         id="path3446"
         inkscape:tile-x0="241.42856"
         inkscape:tile-y0="446.6479"
         cx="85.582771"
         cy="198.61447"
         r="1.511905" /><circle
         style="opacity:0.27;fill:#ffffff;fill-opacity:1;stroke:none;stroke-width:0.0330729"
         id="path3448"
         inkscape:tile-x0="241.42856"
         inkscape:tile-y0="446.6479"
         cx="85.582771"
         cy="214.47246"
         r="1.511905" /><circle
         inkscape:tile-y0="446.6479"
         inkscape:tile-x0="241.42856"
         id="use3091"
         style="fill:#ffffff;fill-opacity:1;stroke:none;stroke-width:0.0330729"
         cx="-2.4636261"
         cy="145.00987"
         r="1.511905" /><circle
         inkscape:tile-y0="446.6479"
         inkscape:tile-x0="241.42856"
         id="use3093"
         style="fill:#ffffff;fill-opacity:1;stroke:none;stroke-width:0.0330729"
         cx="-2.4636261"
         cy="160.86787"
         r="1.511905" /><circle
         inkscape:tile-y0="446.6479"
         inkscape:tile-x0="241.42856"
         id="use3095"
         style="fill:#ffffff;fill-opacity:1;stroke:none;stroke-width:0.0330729"
         cx="-2.4636261"
         cy="176.72588"
         r="1.511905" /><circle
         inkscape:tile-y0="446.6479"
         inkscape:tile-x0="241.42856"
         id="use3097"
         style="fill:#ffffff;fill-opacity:1;stroke:none;stroke-width:0.0330729"
         cx="-2.4636261"
         cy="192.58386"
         r="1.511905" /><circle
         inkscape:tile-y0="446.6479"
         inkscape:tile-x0="241.42856"
         id="use3099"
         style="fill:#ffffff;fill-opacity:1;stroke:none;stroke-width:0.0330729"
         cx="-2.4636261"
         cy="208.44185"
         r="1.511905" /><circle
         inkscape:tile-y0="446.6479"
         inkscape:tile-x0="241.42856"
         id="use3101"
         style="fill:#ffffff;fill-opacity:1;stroke:none;stroke-width:0.0330729"
         cx="-2.4636261"
         cy="224.29984"
         r="1.511905" /><circle
         inkscape:tile-y0="446.6479"
         inkscape:tile-x0="241.42856"
         id="use3105"
         style="fill:#ffffff;fill-opacity:1;stroke:none;stroke-width:0.0330729"
         cx="13.394364"
         cy="145.00987"
         r="1.511905" /><circle
         inkscape:tile-y0="446.6479"
         inkscape:tile-x0="241.42856"
         id="use3107"
         style="fill:#ffffff;fill-opacity:1;stroke:none;stroke-width:0.0330729"
         cx="13.394364"
         cy="160.86787"
         r="1.511905" /><circle
         inkscape:tile-y0="446.6479"
         inkscape:tile-x0="241.42856"
         id="use3109"
         style="fill:#ffffff;fill-opacity:1;stroke:none;stroke-width:0.0330729"
         cx="13.394364"
         cy="176.72588"
         r="1.511905" /><circle
         inkscape:tile-y0="446.6479"
         inkscape:tile-x0="241.42856"
         id="use3111"
         style="fill:#ffffff;fill-opacity:1;stroke:none;stroke-width:0.0330729"
         cx="13.394364"
         cy="192.58386"
         r="1.511905" /><circle
         inkscape:tile-y0="446.6479"
         inkscape:tile-x0="241.42856"
         id="use3113"
         style="fill:#ffffff;fill-opacity:1;stroke:none;stroke-width:0.0330729"
         cx="13.394364"
         cy="208.44185"
         r="1.511905" /><circle
         inkscape:tile-y0="446.6479"
         inkscape:tile-x0="241.42856"
         id="use3115"
         style="fill:#ffffff;fill-opacity:1;stroke:none;stroke-width:0.0330729"
         cx="13.394364"
         cy="224.29984"
         r="1.511905" /><circle
         inkscape:tile-y0="446.6479"
         inkscape:tile-x0="241.42856"
         id="use3119"
         style="fill:#ffffff;fill-opacity:1;stroke:none;stroke-width:0.0330729"
         cx="29.252357"
         cy="145.00987"
         r="1.511905" /><circle
         inkscape:tile-y0="446.6479"
         inkscape:tile-x0="241.42856"
         id="use3121"
         style="fill:#ffffff;fill-opacity:1;stroke:none;stroke-width:0.0330729"
         cx="29.252357"
         cy="160.86787"
         r="1.511905" /><circle
         inkscape:tile-y0="446.6479"
         inkscape:tile-x0="241.42856"
         id="use3123"
         style="fill:#ffffff;fill-opacity:1;stroke:none;stroke-width:0.0330729"
         cx="29.252357"
         cy="176.72588"
         r="1.511905" /><circle
         inkscape:tile-y0="446.6479"
         inkscape:tile-x0="241.42856"
         id="use3125"
         style="fill:#ffffff;fill-opacity:1;stroke:none;stroke-width:0.0330729"
         cx="29.252357"
         cy="192.58386"
         r="1.511905" /><circle
         inkscape:tile-y0="446.6479"
         inkscape:tile-x0="241.42856"
         id="use3127"
         style="fill:#ffffff;fill-opacity:1;stroke:none;stroke-width:0.0330729"
         cx="29.252357"
         cy="208.44185"
         r="1.511905" /><circle
         inkscape:tile-y0="446.6479"
         inkscape:tile-x0="241.42856"
         id="use3129"
         style="fill:#ffffff;fill-opacity:1;stroke:none;stroke-width:0.0330729"
         cx="29.252357"
         cy="224.29984"
         r="1.511905" /><circle
         inkscape:tile-y0="446.6479"
         inkscape:tile-x0="241.42856"
         id="use3133"
         style="fill:#ffffff;fill-opacity:1;stroke:none;stroke-width:0.0330729"
         cx="45.110355"
         cy="145.00987"
         r="1.511905" /><circle
         inkscape:tile-y0="446.6479"
         inkscape:tile-x0="241.42856"
         id="use3135"
         style="fill:#ffffff;fill-opacity:1;stroke:none;stroke-width:0.0330729"
         cx="45.110355"
         cy="160.86787"
         r="1.511905" /><circle
         inkscape:tile-y0="446.6479"
         inkscape:tile-x0="241.42856"
         id="use3137"
         style="fill:#ffffff;fill-opacity:1;stroke:none;stroke-width:0.0330729"
         cx="45.110355"
         cy="176.72588"
         r="1.511905" /><circle
         inkscape:tile-y0="446.6479"
         inkscape:tile-x0="241.42856"
         id="use3139"
         style="fill:#ffffff;fill-opacity:1;stroke:none;stroke-width:0.0330729"
         cx="45.110355"
         cy="192.58386"
         r="1.511905" /><circle
         inkscape:tile-y0="446.6479"
         inkscape:tile-x0="241.42856"
         id="use3141"
         style="fill:#ffffff;fill-opacity:1;stroke:none;stroke-width:0.0330729"
         cx="45.110355"
         cy="208.44185"
         r="1.511905" /><circle
         inkscape:tile-y0="446.6479"
         inkscape:tile-x0="241.42856"
         id="use3143"
         style="fill:#ffffff;fill-opacity:1;stroke:none;stroke-width:0.0330729"
         cx="45.110355"
         cy="224.29984"
         r="1.511905" /><circle
         inkscape:tile-y0="446.6479"
         inkscape:tile-x0="241.42856"
         id="use3147"
         style="fill:#ffffff;fill-opacity:1;stroke:none;stroke-width:0.0330729"
         cx="60.968334"
         cy="145.00987"
         r="1.511905" /><circle
         inkscape:tile-y0="446.6479"
         inkscape:tile-x0="241.42856"
         id="use3149"
         style="fill:#ffffff;fill-opacity:1;stroke:none;stroke-width:0.0330729"
         cx="60.968334"
         cy="160.86787"
         r="1.511905" /><circle
         inkscape:tile-y0="446.6479"
         inkscape:tile-x0="241.42856"
         id="use3151"
         style="fill:#ffffff;fill-opacity:1;stroke:none;stroke-width:0.0330729"
         cx="60.968334"
         cy="176.72588"
         r="1.511905" /><circle
         inkscape:tile-y0="446.6479"
         inkscape:tile-x0="241.42856"
         id="use3153"
         style="fill:#ffffff;fill-opacity:1;stroke:none;stroke-width:0.0330729"
         cx="60.968334"
         cy="192.58386"
         r="1.511905" /><circle
         inkscape:tile-y0="446.6479"
         inkscape:tile-x0="241.42856"
         id="use3155"
         style="fill:#ffffff;fill-opacity:1;stroke:none;stroke-width:0.0330729"
         cx="60.968334"
         cy="208.44185"
         r="1.511905" /><circle
         inkscape:tile-y0="446.6479"
         inkscape:tile-x0="241.42856"
         id="use3157"
         style="fill:#ffffff;fill-opacity:1;stroke:none;stroke-width:0.0330729"
         cx="60.968334"
         cy="224.29984"
         r="1.511905" /><circle
         inkscape:tile-y0="446.6479"
         inkscape:tile-x0="241.42856"
         id="use3161"
         style="fill:#ffffff;fill-opacity:1;stroke:none;stroke-width:0.0330729"
         cx="76.826324"
         cy="145.00987"
         r="1.511905" /><circle
         inkscape:tile-y0="446.6479"
         inkscape:tile-x0="241.42856"
         id="use3163"
         style="fill:#ffffff;fill-opacity:1;stroke:none;stroke-width:0.0330729"
         cx="76.826324"
         cy="160.86787"
         r="1.511905" /><circle
         inkscape:tile-y0="446.6479"
         inkscape:tile-x0="241.42856"
         id="use3165"
         style="fill:#ffffff;fill-opacity:1;stroke:none;stroke-width:0.0330729"
         cx="76.826324"
         cy="176.72588"
         r="1.511905" /><circle
         inkscape:tile-y0="446.6479"
         inkscape:tile-x0="241.42856"
         id="use3167"
         style="fill:#ffffff;fill-opacity:1;stroke:none;stroke-width:0.0330729"
         cx="76.826324"
         cy="192.58386"
         r="1.511905" /><circle
         inkscape:tile-y0="446.6479"
         inkscape:tile-x0="241.42856"
         id="use3169"
         style="fill:#ffffff;fill-opacity:1;stroke:none;stroke-width:0.0330729"
         cx="76.826324"
         cy="208.44185"
         r="1.511905" /><circle
         inkscape:tile-y0="446.6479"
         inkscape:tile-x0="241.42856"
         id="use3171"
         style="fill:#ffffff;fill-opacity:1;stroke:none;stroke-width:0.0330729"
         cx="76.826324"
         cy="224.29984"
         r="1.511905" /></g><g
       id="layer1-0"
       transform="matrix(2.0509949,0,0,2.0509949,46.136598,-17.81881)"><path
         d="m 56.0813,104.469 c -2.2091,0 -4.0001,1.791 -4.0002,4 -2e-4,2.209 1.7906,4 3.9997,4 2e-4,0 4e-4,0 5e-4,0 1.1916,-10e-4 2.3208,-0.533 3.0799,-1.452 0.7593,0.919 1.8887,1.451 3.0805,1.452 2.2091,0 3.9999,-1.791 3.9997,-4 -1e-4,-2.209 -1.7908,-4 -3.9997,-4 -1.1909,0.001 -2.3196,0.532 -3.0789,1.45 -0.7599,-0.919 -1.8897,-1.45 -3.0815,-1.45 z"
         id="path354"
         stroke="none"
         stroke-width="2.5"
         stroke-linecap="round"
         stroke-linejoin="round"
         fill="url(#radialGradient5703)"
         fill-opacity="1"
         style="fill:url(#radialGradient5703)" /><path
         d="m 56.133,104.471 v 0.679 h -1.1446 v -0.529 c -0.0169,0.006 -0.0338,0.011 -0.0507,0.017 v 0.512 h -1.0821 c -0.0376,0.025 -0.0748,0.051 -0.1116,0.077 v 1.119 h -1.0516 c -0.0103,0.017 -0.0205,0.034 -0.0305,0.051 h 1.0821 v 1.144 h -1.1462 v -1.03 c -0.0167,0.03 -0.0331,0.059 -0.0491,0.089 v 0.941 h -0.3539 c -0.0039,0.017 -0.0077,0.033 -0.0114,0.049 h 0.3653 v 1.147 h -0.4552 c 6e-4,0.016 0.0013,0.032 0.0021,0.048 h 0.4532 v 1.147 h -0.1897 c 0.0071,0.016 0.0144,0.032 0.0217,0.049 h 0.168 v 0.359 c 0.016,0.029 0.0323,0.059 0.0491,0.088 v -0.447 h 1.1461 v 1.146 h -0.6495 c 0.014,0.017 0.0281,0.033 0.0423,0.049 h 0.6072 v 0.536 c 0.0163,0.011 0.0327,0.022 0.0491,0.033 v -0.569 h 1.1447 v 1.124 c 0.0168,0.006 0.0337,0.012 0.0506,0.018 v -1.142 h 1.1446 v 1.147 h -1.1219 c 0.0687,0.018 0.1378,0.034 0.2073,0.048 h 0.9146 v 0.096 c 0.0169,-0.001 0.0338,-0.002 0.0507,-0.003 v -0.093 h 0.7586 c 0.0691,-0.014 0.1379,-0.031 0.2062,-0.049 h -0.9648 v -1.146 h 1.1446 v 1.089 c 0.0169,-0.005 0.0338,-0.011 0.0506,-0.016 v -1.073 h 1.1447 v 0.454 c 0.017,-0.013 0.0338,-0.026 0.0506,-0.039 v -0.415 h 0.4444 c 0.0148,-0.016 0.0294,-0.033 0.044,-0.049 h -0.4884 v -1.147 h 1.1447 v 1.147 H 59.26 c 0.0145,0.016 0.0291,0.033 0.0439,0.049 h 0.415 v 0.391 c 0.0167,0.014 0.0336,0.027 0.0506,0.04 v -0.431 h 1.1446 v 1.063 c 0.0169,0.006 0.0338,0.011 0.0507,0.017 v -1.08 h 1.1446 v 1.146 h -0.9348 c 0.0683,0.018 0.137,0.034 0.2062,0.049 h 0.7286 v 0.092 c 0.0169,0.001 0.0338,0.002 0.0506,0.002 v -0.094 h 0.9612 c 0.0786,-0.018 0.1567,-0.038 0.2341,-0.061 v -1.135 H 64.5 v 0.595 c 0.0164,-0.011 0.0328,-0.023 0.049,-0.034 v -0.561 h 0.6372 c 0.0148,-0.016 0.0294,-0.032 0.0439,-0.048 H 64.549 v -1.147 h 1.1462 v 0.506 c 0.0168,-0.029 0.0331,-0.058 0.0491,-0.087 v -0.419 h 0.2 c 0.0067,-0.016 0.0132,-0.032 0.0196,-0.048 h -0.2196 v -1.147 h 0.4842 c 0.0013,-0.016 0.0025,-0.033 0.0036,-0.049 h -0.4878 v -1.146 h 0.3948 c -0.0037,-0.017 -0.0075,-0.033 -0.0114,-0.049 h -0.3834 v -0.995 c -0.016,-0.029 -0.0324,-0.059 -0.0491,-0.088 v 1.083 H 64.549 v -1.145 h 1.1121 c -0.0102,-0.017 -0.0205,-0.034 -0.031,-0.051 H 64.549 v -1.139 c -0.0271,-0.019 -0.0545,-0.038 -0.0821,-0.056 h -1.1116 v -0.522 c -0.0168,-0.005 -0.0337,-0.009 -0.0506,-0.013 v 0.535 H 62.16 v -0.678 c -0.0169,0.001 -0.0337,0.002 -0.0506,0.002 v 0.676 h -1.1446 v -0.468 c -0.017,0.005 -0.0338,0.011 -0.0507,0.016 v 0.452 h -0.8966 c -0.0267,0.017 -0.0532,0.034 -0.0795,0.051 h 0.9761 v 1.144 h -1.1446 v -1.014 c -0.017,0.013 -0.0339,0.026 -0.0507,0.039 v 0.975 h -1.1446 v -1 c -0.0168,-0.013 -0.0336,-0.026 -0.0506,-0.039 v 1.039 h -1.1447 v -1.144 h 1.0093 c -0.0263,-0.017 -0.0529,-0.034 -0.0796,-0.051 h -0.9297 v -0.462 c -0.0168,-0.006 -0.0337,-0.011 -0.0506,-0.016 v 0.478 h -1.1446 v -0.677 c -0.0169,-0.001 -0.0338,-0.002 -0.0507,-0.003 z m -2.3399,0.73 h 1.1446 v 1.144 h -1.1446 z m 1.1953,0 h 1.1446 v 1.144 h -1.1446 z m 1.1953,0 h 1.1446 v 1.144 h -1.1446 z m 4.7811,0 h 1.1446 v 1.144 h -1.1446 z m 1.1952,0 h 1.1447 v 1.144 H 62.16 Z m 1.1953,0 h 1.1446 v 1.144 h -1.1446 z m -9.5622,1.196 h 1.1446 v 1.144 h -1.1446 z m 1.1953,0 h 1.1446 v 1.144 h -1.1446 z m 1.1953,0 h 1.1446 v 1.144 h -1.1446 z m 1.1952,0 h 1.1447 v 1.144 h -1.1447 z m 1.1953,0 h 1.1446 v 1.144 h -1.1446 z m 1.1953,0 h 1.1446 v 1.144 h -1.1446 z m 1.1953,0 h 1.1446 v 1.144 h -1.1446 z m 1.1952,0 h 1.1447 v 1.144 H 62.16 Z m 1.1953,0 h 1.1446 v 1.144 h -1.1446 z m -10.7575,1.193 h 1.1462 v 1.147 h -1.1462 z m 1.1953,0 h 1.1446 v 1.147 h -1.1446 z m 1.1953,0 h 1.1446 v 1.147 h -1.1446 z m 1.1953,0 h 1.1446 v 1.147 h -1.1446 z m 1.1952,0 h 1.1447 v 1.147 h -1.1447 z m 1.1953,0 h 1.1446 v 1.147 h -1.1446 z m 1.1953,0 h 1.1446 v 1.147 h -1.1446 z m 1.1953,0 h 1.1446 v 1.147 h -1.1446 z m 1.1952,0 h 1.1447 v 1.147 H 62.16 Z m 1.1953,0 h 1.1446 v 1.147 h -1.1446 z m 1.1937,0 h 1.1462 v 1.147 H 64.549 Z m -11.9512,1.195 h 1.1462 v 1.147 h -1.1462 z m 1.1953,0 h 1.1446 v 1.147 h -1.1446 z m 1.1953,0 h 1.1446 v 1.147 h -1.1446 z m 1.1953,0 h 1.1446 v 1.147 h -1.1446 z m 1.1952,0 h 1.1447 v 1.147 h -1.1447 z m 1.1953,0 h 1.1446 v 1.147 h -1.1446 z m 1.1953,0 h 1.1446 v 1.147 h -1.1446 z m 1.1953,0 h 1.1446 v 1.147 h -1.1446 z m 1.1952,0 h 1.1447 v 1.147 H 62.16 Z m 1.1953,0 h 1.1446 v 1.147 h -1.1446 z m 1.1937,0 h 1.1462 v 1.147 H 64.549 Z m -10.7559,1.195 h 1.1446 v 1.147 h -1.1446 z m 1.1953,0 h 1.1446 v 1.147 h -1.1446 z m 1.1953,0 h 1.1446 v 1.147 h -1.1446 z m 1.1952,0 h 1.1447 v 1.147 h -1.1447 z m 2.3906,0 h 1.1446 v 1.147 h -1.1446 z m 1.1953,0 h 1.1446 v 1.147 h -1.1446 z m 1.1952,0 h 1.1447 v 1.147 H 62.16 Z m 1.1953,0 h 1.1446 v 1.147 h -1.1446 z m -1.1953,1.196 h 1.1447 v 1.146 H 62.16 Z"
         id="path6761"
         color="#000000"
         fill="#ffffff"
         fill-opacity="0.6" /><g
         id="text5810"
         stroke-width="0.169667"
         font-family="'Zapf Humanist 601 Ultra'"
         font-size="6.78667px"
         text-anchor="end"><path
           d="m 61.6185,110.797 c 0.2918,-0.02 0.4886,-0.034 0.5904,-0.034 0.1765,0 0.4072,0.014 0.6855,0.034 -0.0679,-0.821 -0.0747,-1.5 -0.0747,-2.05 v -0.264 c 0,-0.672 0.0068,-1.446 0.0747,-2.321 -0.2715,0.027 -0.4819,0.047 -0.6108,0.047 -0.1833,0 -0.4004,-0.02 -0.6651,-0.047 0.0679,0.875 0.0814,1.649 0.0814,2.321 0,0.556 0,1.323 -0.0814,2.314 z"
           id="path9059" /><path
           d="m 63.8309,110.797 c 0.4208,-0.027 0.7669,-0.034 1.0316,-0.034 0.3529,0 0.923,0.014 1.7035,0.034 -0.0136,-0.149 -0.0272,-0.258 -0.0272,-0.319 0,-0.088 0.0068,-0.19 0.0204,-0.319 -0.5226,0.054 -1.0112,0.075 -1.4795,0.075 -0.0272,-0.245 -0.0272,-0.543 -0.0272,-0.903 v -1.771 c 0,-0.319 0.0068,-0.781 0.0679,-1.398 -0.2579,0.013 -0.4751,0.027 -0.6719,0.027 -0.1086,0 -0.3122,-0.014 -0.6176,-0.027 0.0815,0.685 0.0883,1.357 0.0883,2.036 v 0.753 c 0,0.59 -0.0068,1.201 -0.0883,1.846 z"
           id="path9061" /><path
           d="m 67.0546,110.797 c 0.1832,-0.007 0.3733,-0.014 0.5701,-0.014 0.3325,0 0.699,0.021 1.1062,0.021 1.8528,0 2.7893,-0.815 2.7893,-2.43 0,-0.943 -0.2918,-1.588 -0.889,-1.934 -0.4615,-0.272 -1.052,-0.278 -1.8189,-0.278 -0.3054,0 -0.699,0.027 -1.1876,0.027 -0.1968,0 -0.3869,-0.007 -0.5701,-0.021 0.0679,0.618 0.0746,1.188 0.0746,1.724 v 1.303 c 0,0.523 -0.0068,1.059 -0.0746,1.602 z m 1.2216,-0.509 c -0.0136,-0.808 -0.0204,-1.391 -0.0204,-1.744 0,-0.469 0.0136,-1.106 0.0272,-1.914 0.1561,-0.007 0.285,-0.007 0.4004,-0.007 1.113,0 1.6084,0.468 1.6084,1.805 0,1.262 -0.5497,1.9 -1.6152,1.9 -0.1289,0 -0.2579,-0.013 -0.4004,-0.04 z"
           id="path9063" /><path
           d="m 76.4338,110.559 c -0.0204,-0.373 -0.034,-0.658 -0.034,-0.855 0,-0.264 0.0272,-0.617 0.0679,-1.052 -0.2647,0.021 -0.4683,0.027 -0.6176,0.027 -0.1493,0 -0.3597,-0.007 -0.6243,-0.027 0.0475,0.516 0.0678,1.005 0.0678,1.459 v 0.19 c -0.2036,0.062 -0.4072,0.082 -0.6243,0.082 -0.9298,0 -1.4863,-0.706 -1.4863,-1.9 0,-1.208 0.6243,-1.962 1.527,-1.962 0.5768,0 1.018,0.258 1.3302,0.801 h 0.0814 c 0.0475,-0.292 0.1289,-0.57 0.2443,-0.835 -0.5158,-0.298 -1.0723,-0.427 -1.7102,-0.427 -1.6831,0 -2.7011,0.97 -2.7011,2.423 0,1.466 0.9162,2.395 2.4432,2.395 0.6583,0 1.3302,-0.115 2.036,-0.319 z"
           id="path9065" /></g></g><g
       id="path7388"><g
         id="g2"><path
           d="m 136.30507,201.85056 7.7,2.8 -7.7,2.8 c 1.4,-1.631 1.4,-3.962 0,-5.6 z"
           style="color:#000000;fill:#ffffff;fill-rule:evenodd;-inkscape-stroke:none"
           id="path2" /></g><path
         style="color:#000000;fill:#ffffff;stroke-linecap:round;stroke-linejoin:round;stroke-dashoffset:4.7622;-inkscape-stroke:none;paint-order:markers fill stroke"
         d="m 113.66797,204.15039 a 0.5,0.5 0 0 0 -0.5,0.5 0.5,0.5 0 0 0 0.5,0.5 h 24.03711 a 0.5,0.5 0 0 0 0.5,-0.5 0.5,0.5 0 0 0 -0.5,-0.5 z"
         id="path3" /></g></g></svg>
