<?xml version="1.0" encoding="UTF-8" standalone="no"?>
<svg
   width="432pt"
   height="288pt"
   viewBox="0 0 432 288"
   version="1.1"
   id="svg77"
   sodipodi:docname="matplotlib-plot-paper.svg"
   inkscape:version="1.3 (0e150ed, 2023-07-21)"
   xmlns:inkscape="http://www.inkscape.org/namespaces/inkscape"
   xmlns:sodipodi="http://sodipodi.sourceforge.net/DTD/sodipodi-0.dtd"
   xmlns:xlink="http://www.w3.org/1999/xlink"
   xmlns="http://www.w3.org/2000/svg"
   xmlns:svg="http://www.w3.org/2000/svg"
   xmlns:rdf="http://www.w3.org/1999/02/22-rdf-syntax-ns#"
   xmlns:cc="http://creativecommons.org/ns#"
   xmlns:dc="http://purl.org/dc/elements/1.1/">
  <sodipodi:namedview
     id="namedview77"
     pagecolor="#ffffff"
     bordercolor="#000000"
     borderopacity="0.25"
     inkscape:showpageshadow="2"
     inkscape:pageopacity="0.0"
     inkscape:pagecheckerboard="0"
     inkscape:deskcolor="#d1d1d1"
     inkscape:document-units="pt"
     inkscape:zoom="0.73958333"
     inkscape:cx="288"
     inkscape:cy="191.32394"
     inkscape:window-width="1392"
     inkscape:window-height="964"
     inkscape:window-x="511"
     inkscape:window-y="56"
     inkscape:window-maximized="0"
     inkscape:current-layer="svg77" />
  <metadata
     id="metadata1">
    <rdf:RDF>
      <cc:Work>
        <dc:type
           rdf:resource="http://purl.org/dc/dcmitype/StillImage" />
        <dc:date>2024-06-28T16:06:16.159370</dc:date>
        <dc:format>image/svg+xml</dc:format>
        <dc:creator>
          <cc:Agent>
            <dc:title>Matplotlib v3.8.4, https://matplotlib.org/</dc:title>
          </cc:Agent>
        </dc:creator>
      </cc:Work>
    </rdf:RDF>
  </metadata>
  <defs
     id="defs1">
    <style
       type="text/css"
       id="style1">*{stroke-linejoin: round; stroke-linecap: butt}</style>
  </defs>
  <rect
     style="fill:#ffffff;stroke:none;stroke-width:5.6693;stroke-linejoin:round;stroke-miterlimit:3.9;stroke-dashoffset:41.2775;paint-order:markers fill stroke"
     id="rect78"
     width="432"
     height="288"
     x="0"
     y="0" />
  <g
     id="figure_1">
    <g
       id="patch_1">
      <path
         d="M 0 288  L 432 288  L 432 0  L 0 0  L 0 288  z "
         style="fill: none"
         id="path1" />
    </g>
    <g
       id="axes_1">
      <g
         id="patch_2">
        <path
           d="M 31.185733 258.059536  L 426.695915 258.059536  L 426.695915 3.00024  L 31.185733 3.00024  L 31.185733 258.059536  z "
           style="fill: none"
           id="path2" />
      </g>
      <g
         id="matplotlib.axis_1">
        <g
           id="xtick_1">
          <g
             id="line2d_1">
            <defs
               id="defs2">
              <path
                 id="m22e7999980"
                 d="M 0 0  L 0 3.5  "
                 style="stroke: #000000; stroke-width: 0.8" />
            </defs>
            <g
               id="g2">
              <use
                 xlink:href="#m22e7999980"
                 x="31.185733"
                 y="258.059536"
                 style="fill-opacity: 0; stroke: #000000; stroke-width: 0.8"
                 id="use2" />
            </g>
          </g>
          <g
             id="text_1">
            <!-- $\mathdefault{0}$ -->
            <g
               transform="translate(28.881888 271.286186) scale(0.09 -0.09)"
               id="g3">
              <defs
                 id="defs3">
                <path
                   id="CMR17-30"
                   d="M 2688 2025  C 2688 2416 2682 3080 2413 3591  C 2176 4039 1798 4198 1466 4198  C 1158 4198 768 4058 525 3597  C 269 3118 243 2524 243 2025  C 243 1661 250 1106 448 619  C 723 -39 1216 -128 1466 -128  C 1760 -128 2208 -7 2470 600  C 2662 1042 2688 1559 2688 2025  z M 1466 -26  C 1056 -26 813 325 723 812  C 653 1188 653 1738 653 2096  C 653 2588 653 2997 736 3387  C 858 3929 1216 4096 1466 4096  C 1728 4096 2067 3923 2189 3400  C 2272 3036 2278 2607 2278 2096  C 2278 1680 2278 1169 2202 792  C 2067 95 1690 -26 1466 -26  z "
                   transform="scale(0.015625)" />
              </defs>
              <use
                 xlink:href="#CMR17-30"
                 transform="scale(0.996264)"
                 id="use3" />
            </g>
          </g>
        </g>
        <g
           id="xtick_2">
          <g
             id="line2d_2">
            <g
               id="g4">
              <use
                 xlink:href="#m22e7999980"
                 x="110.28777"
                 y="258.059536"
                 style="fill-opacity: 0; stroke: #000000; stroke-width: 0.8"
                 id="use4" />
            </g>
          </g>
          <g
             id="text_2">
            <!-- $\mathdefault{1}$ -->
            <g
               transform="translate(107.983924 271.286186) scale(0.09 -0.09)"
               id="g5">
              <defs
                 id="defs4">
                <path
                   id="CMR17-31"
                   d="M 1702 4058  C 1702 4192 1696 4192 1606 4192  C 1357 3916 979 3827 621 3827  C 602 3827 570 3827 563 3808  C 557 3795 557 3782 557 3648  C 755 3648 1088 3686 1344 3839  L 1344 461  C 1344 236 1331 160 781 160  L 589 160  L 589 0  C 896 0 1216 0 1523 0  C 1830 0 2150 0 2458 0  L 2458 160  L 2266 160  C 1715 160 1702 230 1702 458  L 1702 4058  z "
                   transform="scale(0.015625)" />
              </defs>
              <use
                 xlink:href="#CMR17-31"
                 transform="scale(0.996264)"
                 id="use5" />
            </g>
          </g>
        </g>
        <g
           id="xtick_3">
          <g
             id="line2d_3">
            <g
               id="g6">
              <use
                 xlink:href="#m22e7999980"
                 x="189.389806"
                 y="258.059536"
                 style="fill-opacity: 0; stroke: #000000; stroke-width: 0.8"
                 id="use6" />
            </g>
          </g>
          <g
             id="text_3">
            <!-- $\mathdefault{2}$ -->
            <g
               transform="translate(187.085961 271.286186) scale(0.09 -0.09)"
               id="g7">
              <defs
                 id="defs6">
                <path
                   id="CMR17-32"
                   d="M 2669 989  L 2554 989  C 2490 536 2438 459 2413 420  C 2381 369 1920 369 1830 369  L 602 369  C 832 619 1280 1072 1824 1597  C 2214 1967 2669 2402 2669 3035  C 2669 3790 2067 4224 1395 4224  C 691 4224 262 3604 262 3030  C 262 2780 448 2748 525 2748  C 589 2748 781 2787 781 3010  C 781 3207 614 3264 525 3264  C 486 3264 448 3258 422 3245  C 544 3790 915 4058 1306 4058  C 1862 4058 2227 3617 2227 3035  C 2227 2479 1901 2000 1536 1584  L 262 146  L 262 0  L 2515 0  L 2669 989  z "
                   transform="scale(0.015625)" />
              </defs>
              <use
                 xlink:href="#CMR17-32"
                 transform="scale(0.996264)"
                 id="use7" />
            </g>
          </g>
        </g>
        <g
           id="xtick_4">
          <g
             id="line2d_4">
            <g
               id="g8">
              <use
                 xlink:href="#m22e7999980"
                 x="268.491842"
                 y="258.059536"
                 style="fill-opacity: 0; stroke: #000000; stroke-width: 0.8"
                 id="use8" />
            </g>
          </g>
          <g
             id="text_4">
            <!-- $\mathdefault{3}$ -->
            <g
               transform="translate(266.187997 271.286186) scale(0.09 -0.09)"
               id="g9">
              <defs
                 id="defs8">
                <path
                   id="CMR17-33"
                   d="M 1414 2157  C 1984 2157 2234 1662 2234 1090  C 2234 320 1824 25 1453 25  C 1114 25 563 194 390 693  C 422 680 454 680 486 680  C 640 680 755 782 755 948  C 755 1133 614 1216 486 1216  C 378 1216 211 1165 211 926  C 211 335 787 -128 1466 -128  C 2176 -128 2720 430 2720 1085  C 2720 1707 2208 2157 1600 2227  C 2086 2328 2554 2756 2554 3329  C 2554 3820 2048 4179 1472 4179  C 890 4179 378 3829 378 3329  C 378 3110 544 3072 627 3072  C 762 3072 877 3155 877 3321  C 877 3486 762 3569 627 3569  C 602 3569 570 3569 544 3557  C 730 3959 1235 4032 1459 4032  C 1683 4032 2106 3925 2106 3320  C 2106 3143 2080 2828 1862 2550  C 1670 2304 1453 2304 1242 2284  C 1210 2284 1062 2269 1037 2269  C 992 2263 966 2257 966 2208  C 966 2163 973 2157 1101 2157  L 1414 2157  z "
                   transform="scale(0.015625)" />
              </defs>
              <use
                 xlink:href="#CMR17-33"
                 transform="scale(0.996264)"
                 id="use9" />
            </g>
          </g>
        </g>
        <g
           id="xtick_5">
          <g
             id="line2d_5">
            <g
               id="g10">
              <use
                 xlink:href="#m22e7999980"
                 x="347.593878"
                 y="258.059536"
                 style="fill-opacity: 0; stroke: #000000; stroke-width: 0.8"
                 id="use10" />
            </g>
          </g>
          <g
             id="text_5">
            <!-- $\mathdefault{4}$ -->
            <g
               transform="translate(345.290033 271.286186) scale(0.09 -0.09)"
               id="g11">
              <defs
                 id="defs10">
                <path
                   id="CMR17-34"
                   d="M 2150 4122  C 2150 4256 2144 4256 2029 4256  L 128 1254  L 128 1088  L 1779 1088  L 1779 457  C 1779 224 1766 160 1318 160  L 1197 160  L 1197 0  C 1402 0 1747 0 1965 0  C 2182 0 2528 0 2733 0  L 2733 160  L 2611 160  C 2163 160 2150 224 2150 457  L 2150 1088  L 2803 1088  L 2803 1254  L 2150 1254  L 2150 4122  z M 1798 3703  L 1798 1254  L 256 1254  L 1798 3703  z "
                   transform="scale(0.015625)" />
              </defs>
              <use
                 xlink:href="#CMR17-34"
                 transform="scale(0.996264)"
                 id="use11" />
            </g>
          </g>
        </g>
        <g
           id="xtick_6">
          <g
             id="line2d_6">
            <g
               id="g12">
              <use
                 xlink:href="#m22e7999980"
                 x="426.695915"
                 y="258.059536"
                 style="fill-opacity: 0; stroke: #000000; stroke-width: 0.8"
                 id="use12" />
            </g>
          </g>
          <g
             id="text_6">
            <!-- $\mathdefault{5}$ -->
            <g
               transform="translate(424.392069 271.286186) scale(0.09 -0.09)"
               id="g13">
              <defs
                 id="defs12">
                <path
                   id="CMR17-35"
                   d="M 730 3692  C 794 3666 1056 3584 1325 3584  C 1920 3584 2246 3911 2432 4100  C 2432 4157 2432 4192 2394 4192  C 2387 4192 2374 4192 2323 4163  C 2099 4058 1837 3973 1517 3973  C 1325 3973 1037 3999 723 4139  C 653 4171 640 4171 634 4171  C 602 4171 595 4164 595 4037  L 595 2203  C 595 2089 595 2057 659 2057  C 691 2057 704 2070 736 2114  C 941 2401 1222 2522 1542 2522  C 1766 2522 2246 2382 2246 1289  C 2246 1085 2246 715 2054 421  C 1894 159 1645 25 1370 25  C 947 25 518 320 403 814  C 429 807 480 795 506 795  C 589 795 749 840 749 1038  C 749 1210 627 1280 506 1280  C 358 1280 262 1190 262 1011  C 262 454 704 -128 1382 -128  C 2042 -128 2669 440 2669 1264  C 2669 2030 2170 2624 1549 2624  C 1222 2624 947 2503 730 2274  L 730 3692  z "
                   transform="scale(0.015625)" />
              </defs>
              <use
                 xlink:href="#CMR17-35"
                 transform="scale(0.996264)"
                 id="use13" />
            </g>
          </g>
        </g>
        <g
           id="text_7">
          <!-- $m$ -->
          <g
             transform="translate(224.881416 283.256298) scale(0.09 -0.09)"
             id="g14">
            <defs
               id="defs13">
              <path
                 id="CMMI12-6d"
                 d="M 1318 1871  C 1331 1910 1491 2229 1728 2433  C 1894 2586 2112 2689 2362 2689  C 2618 2689 2707 2497 2707 2242  C 2707 2203 2707 2076 2630 1775  L 2470 1118  C 2419 926 2298 453 2285 383  C 2259 287 2221 121 2221 96  C 2221 6 2291 -64 2387 -64  C 2579 -64 2611 83 2669 313  L 3053 1839  C 3066 1890 3398 2689 4102 2689  C 4358 2689 4448 2497 4448 2242  C 4448 1884 4198 1188 4058 805  C 4000 651 3968 568 3968 453  C 3968 166 4166 -64 4474 -64  C 5069 -64 5293 875 5293 913  C 5293 945 5267 971 5229 971  C 5171 971 5165 952 5133 843  C 4986 332 4749 64 4493 64  C 4429 64 4326 64 4326 269  C 4326 436 4403 640 4429 710  C 4544 1018 4832 1773 4832 2145  C 4832 2528 4608 2816 4122 2816  C 3693 2816 3347 2574 3091 2197  C 3072 2542 2861 2816 2381 2816  C 1811 2816 1510 2415 1395 2255  C 1376 2618 1114 2816 832 2816  C 646 2816 499 2727 378 2484  C 262 2254 173 1865 173 1839  C 173 1814 198 1782 243 1782  C 294 1782 301 1788 339 1935  C 435 2312 557 2689 813 2689  C 960 2689 1011 2586 1011 2395  C 1011 2254 947 2005 902 1807  L 723 1118  C 698 996 627 709 595 594  C 550 428 480 128 480 96  C 480 6 550 -64 646 -64  C 723 -64 813 -26 864 70  C 877 102 934 326 966 453  L 1107 1028  L 1318 1871  z "
                 transform="scale(0.015625)" />
            </defs>
            <use
               xlink:href="#CMMI12-6d"
               transform="scale(0.996264)"
               id="use14" />
          </g>
        </g>
      </g>
      <g
         id="matplotlib.axis_2">
        <g
           id="ytick_1">
          <g
             id="line2d_7">
            <defs
               id="defs14">
              <path
                 id="mcf61a47abd"
                 d="M 0 0  L -3.5 0  "
                 style="stroke: #000000; stroke-width: 0.8" />
            </defs>
            <g
               id="g15">
              <use
                 xlink:href="#mcf61a47abd"
                 x="31.185733"
                 y="246.465931"
                 style="fill-opacity: 0; stroke: #000000; stroke-width: 0.8"
                 id="use15" />
            </g>
          </g>
          <g
             id="text_8">
            <!-- $\mathdefault{0}$ -->
            <g
               transform="translate(19.578043 249.579257) scale(0.09 -0.09)"
               id="g16">
              <use
                 xlink:href="#CMR17-30"
                 transform="scale(0.996264)"
                 id="use16" />
            </g>
          </g>
        </g>
        <g
           id="ytick_2">
          <g
             id="line2d_8">
            <g
               id="g17">
              <use
                 xlink:href="#mcf61a47abd"
                 x="31.185733"
                 y="200.091514"
                 style="fill-opacity: 0; stroke: #000000; stroke-width: 0.8"
                 id="use17" />
            </g>
          </g>
          <g
             id="text_9">
            <!-- $\mathdefault{5}$ -->
            <g
               transform="translate(19.578043 203.204839) scale(0.09 -0.09)"
               id="g18">
              <use
                 xlink:href="#CMR17-35"
                 transform="scale(0.996264)"
                 id="use18" />
            </g>
          </g>
        </g>
        <g
           id="ytick_3">
          <g
             id="line2d_9">
            <g
               id="g19">
              <use
                 xlink:href="#mcf61a47abd"
                 x="31.185733"
                 y="153.717097"
                 style="fill-opacity: 0; stroke: #000000; stroke-width: 0.8"
                 id="use19" />
            </g>
          </g>
          <g
             id="text_10">
            <!-- $\mathdefault{10}$ -->
            <g
               transform="translate(14.970352 156.830422) scale(0.09 -0.09)"
               id="g21">
              <use
                 xlink:href="#CMR17-31"
                 transform="scale(0.996264)"
                 id="use20" />
              <use
                 xlink:href="#CMR17-30"
                 transform="translate(45.690477 0) scale(0.996264)"
                 id="use21" />
            </g>
          </g>
        </g>
        <g
           id="ytick_4">
          <g
             id="line2d_10">
            <g
               id="g22">
              <use
                 xlink:href="#mcf61a47abd"
                 x="31.185733"
                 y="107.342679"
                 style="fill-opacity: 0; stroke: #000000; stroke-width: 0.8"
                 id="use22" />
            </g>
          </g>
          <g
             id="text_11">
            <!-- $\mathdefault{15}$ -->
            <g
               transform="translate(14.970352 110.456004) scale(0.09 -0.09)"
               id="g24">
              <use
                 xlink:href="#CMR17-31"
                 transform="scale(0.996264)"
                 id="use23" />
              <use
                 xlink:href="#CMR17-35"
                 transform="translate(45.690477 0) scale(0.996264)"
                 id="use24" />
            </g>
          </g>
        </g>
        <g
           id="ytick_5">
          <g
             id="line2d_11">
            <g
               id="g25">
              <use
                 xlink:href="#mcf61a47abd"
                 x="31.185733"
                 y="60.968262"
                 style="fill-opacity: 0; stroke: #000000; stroke-width: 0.8"
                 id="use25" />
            </g>
          </g>
          <g
             id="text_12">
            <!-- $\mathdefault{20}$ -->
            <g
               transform="translate(14.970352 64.081587) scale(0.09 -0.09)"
               id="g27">
              <use
                 xlink:href="#CMR17-32"
                 transform="scale(0.996264)"
                 id="use26" />
              <use
                 xlink:href="#CMR17-30"
                 transform="translate(45.690477 0) scale(0.996264)"
                 id="use27" />
            </g>
          </g>
        </g>
        <g
           id="ytick_6">
          <g
             id="line2d_12">
            <g
               id="g28">
              <use
                 xlink:href="#mcf61a47abd"
                 x="31.185733"
                 y="14.593844"
                 style="fill-opacity: 0; stroke: #000000; stroke-width: 0.8"
                 id="use28" />
            </g>
          </g>
          <g
             id="text_13">
            <!-- $\mathdefault{25}$ -->
            <g
               transform="translate(14.970352 17.707169) scale(0.09 -0.09)"
               id="g30">
              <use
                 xlink:href="#CMR17-32"
                 transform="scale(0.996264)"
                 id="use29" />
              <use
                 xlink:href="#CMR17-35"
                 transform="translate(45.690477 0) scale(0.996264)"
                 id="use30" />
            </g>
          </g>
        </g>
        <g
           id="text_14">
          <!-- $M$ -->
          <g
             transform="translate(9.22689 134.981221) rotate(-90) scale(0.09 -0.09)"
             id="g31">
            <defs
               id="defs30">
              <path
                 id="CMMI12-4d"
                 d="M 5811 3886  C 5869 4103 5882 4167 6336 4167  C 6458 4167 6515 4167 6515 4288  C 6515 4352 6470 4352 6349 4352  L 5581 4352  C 5421 4352 5414 4346 5344 4243  L 3008 562  L 2528 4211  C 2509 4352 2502 4352 2336 4352  L 1542 4352  C 1421 4352 1363 4352 1363 4231  C 1363 4167 1421 4167 1517 4167  C 1907 4167 1907 4116 1907 4046  C 1907 4034 1907 3995 1882 3899  L 1062 634  C 986 327 838 186 410 186  C 390 186 314 186 314 73  C 314 0 371 0 397 0  C 525 0 851 0 979 0  L 1286 0  C 1376 0 1485 0 1574 0  C 1619 0 1690 0 1690 122  C 1690 180 1626 186 1600 186  C 1389 186 1184 224 1184 454  C 1184 518 1184 524 1210 613  L 2093 4129  L 2099 4129  L 2630 172  C 2650 19 2656 0 2714 0  C 2784 0 2816 51 2848 109  L 5421 4161  L 5427 4161  L 4499 473  C 4442 250 4429 186 3981 186  C 3859 186 3795 186 3795 70  C 3795 0 3853 0 3891 0  C 4000 0 4128 0 4237 0  L 4992 0  C 5101 0 5235 0 5344 0  C 5395 0 5466 0 5466 122  C 5466 186 5408 186 5312 186  C 4922 186 4922 234 4922 294  C 4922 301 4922 345 4934 396  L 5811 3886  z "
                 transform="scale(0.015625)" />
            </defs>
            <use
               xlink:href="#CMMI12-4d"
               transform="scale(0.996264)"
               id="use31" />
          </g>
        </g>
      </g>
      <g
         id="line2d_13">
        <path
           d="M 31.185733 246.465931  L 39.895667 246.353481  L 48.605601 246.016128  L 57.315535 245.453874  L 66.025469 244.666717  L 74.735403 243.654659  L 83.445337 242.4177  L 92.155271 240.955838  L 100.865205 239.269075  L 109.575139 237.35741  L 118.285073 235.220844  L 126.995007 232.859375  L 135.70494 230.273005  L 144.414874 227.461733  L 153.124808 224.425559  L 162.230648 221.010909  L 171.336488 217.350447  L 180.442328 213.444173  L 189.548168 209.292087  L 198.654008 204.894189  L 207.759848 200.250479  L 216.865688 195.360956  L 225.971528 190.225622  L 235.473274 184.604937  L 244.975021 178.7166  L 254.476767 172.560611  L 263.978513 166.136971  L 273.480259 159.445679  L 282.982005 152.486735  L 292.483751 145.26014  L 302.381403 137.447824  L 312.279055 129.345088  L 322.176708 120.951931  L 332.07436 112.268353  L 341.972012 103.294355  L 352.26557 93.653318  L 362.559129 83.698163  L 372.852687 73.428888  L 383.146245 62.845494  L 393.439803 51.947982  L 403.733362 40.73635  L 414.422826 28.761029  L 425.11229 16.446961  L 426.695915 14.593844  L 426.695915 14.593844  "
           clip-path="url(#pe9c4d60304)"
           style="fill: none; stroke: #1f77b4; stroke-width: 0.5; stroke-linecap: square"
           id="path31" />
      </g>
      <g
         id="LineCollection_1">
        <path
           d="M 110.28777 229.771141  L 110.28777 226.061188  "
           clip-path="url(#pe9c4d60304)"
           style="fill: none; stroke: #ff7f0e; stroke-width: 0.5"
           id="path32" />
        <path
           d="M 189.389806 235.336071  L 189.389806 229.771141  "
           clip-path="url(#pe9c4d60304)"
           style="fill: none; stroke: #ff7f0e; stroke-width: 0.5"
           id="path33" />
        <path
           d="M 268.491842 159.282027  L 268.491842 144.442213  "
           clip-path="url(#pe9c4d60304)"
           style="fill: none; stroke: #ff7f0e; stroke-width: 0.5"
           id="path34" />
        <path
           d="M 347.593878 127.747423  L 347.593878 118.472539  "
           clip-path="url(#pe9c4d60304)"
           style="fill: none; stroke: #ff7f0e; stroke-width: 0.5"
           id="path35" />
      </g>
      <g
         id="line2d_14">
        <defs
           id="defs35">
          <path
             id="m2f8a65ba03"
             d="M 1.5 0  L -1.5 -0  "
             style="stroke: #ff7f0e; stroke-width: 0.5" />
        </defs>
        <g
           clip-path="url(#pe9c4d60304)"
           id="g38">
          <use
             xlink:href="#m2f8a65ba03"
             x="110.28777"
             y="229.771141"
             style="fill-opacity: 0; stroke: #ff7f0e; stroke-width: 0.5"
             id="use35" />
          <use
             xlink:href="#m2f8a65ba03"
             x="189.389806"
             y="235.336071"
             style="fill-opacity: 0; stroke: #ff7f0e; stroke-width: 0.5"
             id="use36" />
          <use
             xlink:href="#m2f8a65ba03"
             x="268.491842"
             y="159.282027"
             style="fill-opacity: 0; stroke: #ff7f0e; stroke-width: 0.5"
             id="use37" />
          <use
             xlink:href="#m2f8a65ba03"
             x="347.593878"
             y="127.747423"
             style="fill-opacity: 0; stroke: #ff7f0e; stroke-width: 0.5"
             id="use38" />
        </g>
      </g>
      <g
         id="line2d_15">
        <g
           clip-path="url(#pe9c4d60304)"
           id="g42">
          <use
             xlink:href="#m2f8a65ba03"
             x="110.28777"
             y="226.061188"
             style="fill-opacity: 0; stroke: #ff7f0e; stroke-width: 0.5"
             id="use39" />
          <use
             xlink:href="#m2f8a65ba03"
             x="189.389806"
             y="229.771141"
             style="fill-opacity: 0; stroke: #ff7f0e; stroke-width: 0.5"
             id="use40" />
          <use
             xlink:href="#m2f8a65ba03"
             x="268.491842"
             y="144.442213"
             style="fill-opacity: 0; stroke: #ff7f0e; stroke-width: 0.5"
             id="use41" />
          <use
             xlink:href="#m2f8a65ba03"
             x="347.593878"
             y="118.472539"
             style="fill-opacity: 0; stroke: #ff7f0e; stroke-width: 0.5"
             id="use42" />
        </g>
      </g>
      <g
         id="line2d_16">
        <defs
           id="defs42">
          <path
             id="m25c3338815"
             d="M -1.5 1.5  L 1.5 -1.5  M -1.5 -1.5  L 1.5 1.5  "
             style="stroke: #ff7f0e; stroke-width: 0.5" />
        </defs>
        <g
           clip-path="url(#pe9c4d60304)"
           id="g46">
          <use
             xlink:href="#m25c3338815"
             x="110.28777"
             y="227.916165"
             style="fill-opacity: 0; stroke: #ff7f0e; stroke-width: 0.5"
             id="use43" />
          <use
             xlink:href="#m25c3338815"
             x="189.389806"
             y="232.553606"
             style="fill-opacity: 0; stroke: #ff7f0e; stroke-width: 0.5"
             id="use44" />
          <use
             xlink:href="#m25c3338815"
             x="268.491842"
             y="151.86212"
             style="fill-opacity: 0; stroke: #ff7f0e; stroke-width: 0.5"
             id="use45" />
          <use
             xlink:href="#m25c3338815"
             x="347.593878"
             y="123.109981"
             style="fill-opacity: 0; stroke: #ff7f0e; stroke-width: 0.5"
             id="use46" />
        </g>
      </g>
      <g
         id="patch_3">
        <path
           d="M 31.185733 258.059536  L 31.185733 3.00024  "
           style="fill: none; stroke: #000000; stroke-width: 0.5; stroke-linejoin: miter; stroke-linecap: square"
           id="path46" />
      </g>
      <g
         id="patch_4">
        <path
           d="M 426.695915 258.059536  L 426.695915 3.00024  "
           style="fill: none; stroke: #000000; stroke-width: 0.5; stroke-linejoin: miter; stroke-linecap: square"
           id="path47" />
      </g>
      <g
         id="patch_5">
        <path
           d="M 31.185733 258.059536  L 426.695915 258.059536  "
           style="fill: none; stroke: #000000; stroke-width: 0.5; stroke-linejoin: miter; stroke-linecap: square"
           id="path48" />
      </g>
      <g
         id="patch_6">
        <path
           d="M 31.185733 3.00024  L 426.695915 3.00024  "
           style="fill: none; stroke: #000000; stroke-width: 0.5; stroke-linejoin: miter; stroke-linecap: square"
           id="path49" />
      </g>
      <g
         id="legend_1">
        <g
           id="patch_7">
          <path
             d="M 36.433633 31.236648  L 141.367202 31.236648  Q 142.866602 31.236648 142.866602 29.737248  L 142.866602 8.24814  Q 142.866602 6.74874 141.367202 6.74874  L 36.433633 6.74874  Q 34.934233 6.74874 34.934233 8.24814  L 34.934233 29.737248  Q 34.934233 31.236648 36.433633 31.236648  z "
             style="fill: #ffffff; opacity: 0.8; stroke: #cccccc; stroke-linejoin: miter"
             id="path50" />
        </g>
        <g
           id="line2d_17">
          <path
             d="M 37.933033 13.712894  L 45.430033 13.712894  L 52.927033 13.712894  "
             style="fill: none; stroke: #1f77b4; stroke-width: 0.5; stroke-linecap: square"
             id="path51" />
        </g>
        <g
           id="text_15">
          <!-- Function plot $M=m^2$ -->
          <g
             transform="translate(55.176133 16.336844) scale(0.07497 -0.07497)"
             id="g66">
            <defs
               id="defs51">
              <path
                 id="CMR17-46"
                 d="M 3482 4325  L 326 4325  L 326 4160  C 768 4160 838 4160 838 3874  L 838 446  C 838 160 768 160 326 160  L 326 0  C 512 0 870 0 1069 0  C 1331 0 1638 0 1901 0  L 1901 160  L 1760 160  C 1274 160 1261 223 1261 452  L 1261 2075  L 1837 2075  C 2432 2075 2490 1865 2490 1332  L 2605 1332  L 2605 2987  L 2490 2987  C 2490 2450 2432 2240 1837 2240  L 1261 2240  L 1261 3911  C 1261 4128 1274 4160 1530 4160  L 2355 4160  C 3322 4160 3430 3765 3520 2916  L 3635 2916  L 3482 4325  z "
                 transform="scale(0.015625)" />
              <path
                 id="CMR17-75"
                 d="M 1882 2693  L 1882 2528  C 2259 2528 2317 2489 2317 2186  L 2317 1032  C 2317 500 2029 38 1555 38  C 1030 38 986 348 986 678  L 986 2763  L 211 2693  L 211 2528  C 467 2528 640 2528 646 2274  L 646 1058  C 646 633 646 361 813 183  C 896 101 1056 -64 1517 -64  C 2061 -64 2272 377 2323 506  L 2330 506  L 2330 -63  L 3091 -63  L 3091 128  C 2714 128 2656 166 2656 473  L 2656 2763  L 1882 2693  z "
                 transform="scale(0.015625)" />
              <path
                 id="CMR17-6e"
                 d="M 2656 1933  C 2656 2259 2592 2790 1837 2790  C 1331 2790 1069 2400 973 2144  L 966 2144  L 966 2790  L 211 2720  L 211 2554  C 589 2554 646 2515 646 2208  L 646 428  C 646 184 621 153 211 153  L 211 -13  C 365 0 646 0 813 0  C 979 0 1267 0 1421 -13  L 1421 153  C 1011 153 986 178 986 428  L 986 1658  C 986 2247 1344 2688 1792 2688  C 2266 2688 2317 2266 2317 1958  L 2317 428  C 2317 184 2291 153 1882 153  L 1882 -13  C 2035 0 2317 0 2483 0  C 2650 0 2938 0 3091 -13  L 3091 153  C 2682 153 2656 178 2656 428  L 2656 1933  z "
                 transform="scale(0.015625)" />
              <path
                 id="CMR17-63"
                 d="M 2234 2240  C 2112 2240 1933 2240 1933 2017  C 1933 1838 2080 1787 2163 1787  C 2208 1787 2394 1807 2394 2024  C 2394 2467 1958 2803 1466 2803  C 787 2803 211 2178 211 1363  C 211 516 813 -64 1466 -64  C 2259 -64 2458 677 2458 748  C 2458 774 2451 793 2406 793  C 2362 793 2355 787 2330 703  C 2163 180 1798 51 1523 51  C 1114 51 621 427 621 1369  C 621 2338 1094 2688 1472 2688  C 1722 2688 2093 2573 2234 2240  z "
                 transform="scale(0.015625)" />
              <path
                 id="CMR17-74"
                 d="M 966 2560  L 1862 2560  L 1862 2725  L 966 2725  L 966 3904  L 851 3904  C 838 3245 614 2668 70 2668  L 70 2560  L 627 2560  L 627 771  C 627 650 627 -64 1370 -64  C 1747 -64 1965 306 1965 777  L 1965 1140  L 1850 1140  L 1850 783  C 1850 344 1677 51 1408 51  C 1222 51 966 178 966 758  L 966 2560  z "
                 transform="scale(0.015625)" />
              <path
                 id="CMR17-69"
                 d="M 992 3909  C 992 4049 877 4170 730 4170  C 589 4170 467 4056 467 3909  C 467 3769 582 3648 730 3648  C 870 3648 992 3763 992 3909  z M 243 2706  L 243 2541  C 602 2541 653 2502 653 2197  L 653 427  C 653 184 627 153 218 153  L 218 -13  C 371 0 646 0 806 0  C 960 0 1222 0 1370 -13  L 1370 153  C 992 153 979 191 979 420  L 979 2776  L 243 2706  z "
                 transform="scale(0.015625)" />
              <path
                 id="CMR17-6f"
                 d="M 2758 1356  C 2758 2176 2163 2816 1466 2816  C 768 2816 173 2176 173 1356  C 173 551 768 -64 1466 -64  C 2163 -64 2758 551 2758 1356  z M 1466 51  C 1165 51 909 230 762 480  C 602 767 582 1126 582 1408  C 582 1677 595 2010 762 2298  C 890 2509 1139 2714 1466 2714  C 1754 2714 1997 2554 2150 2330  C 2349 2029 2349 1607 2349 1408  C 2349 1158 2336 775 2163 467  C 1984 173 1709 51 1466 51  z "
                 transform="scale(0.015625)" />
              <path
                 id="CMR17-70"
                 d="M 1408 -1063  C 998 -1063 973 -1037 973 -789  L 973 402  C 1158 134 1427 -38 1766 -38  C 2406 -38 3053 523 3053 1388  C 3053 2191 2496 2802 1837 2802  C 1453 2802 1139 2592 960 2338  L 960 2802  L 198 2732  L 198 2567  C 576 2567 634 2528 634 2223  L 634 -789  C 634 -1031 608 -1063 198 -1063  L 198 -1228  C 352 -1216 634 -1216 800 -1216  C 966 -1216 1254 -1216 1408 -1228  L 1408 -1063  z M 973 2012  C 973 2102 973 2235 1222 2471  C 1254 2497 1472 2688 1792 2688  C 2259 2688 2643 2108 2643 1382  C 2643 656 2234 64 1728 64  C 1498 64 1248 172 1056 472  C 973 612 973 650 973 752  L 973 2012  z "
                 transform="scale(0.015625)" />
              <path
                 id="CMR17-6c"
                 d="M 979 4396  L 218 4326  L 218 4160  C 595 4160 653 4122 653 3817  L 653 426  C 653 184 627 153 218 153  L 218 -13  C 371 0 653 0 813 0  C 979 0 1261 0 1414 -13  L 1414 153  C 1005 153 979 178 979 426  L 979 4396  z "
                 transform="scale(0.015625)" />
              <path
                 id="CMR17-3d"
                 d="M 4115 2017  C 4211 2017 4307 2017 4307 2125  C 4307 2240 4198 2240 4090 2240  L 512 2240  C 403 2240 294 2240 294 2125  C 294 2017 390 2017 486 2017  L 4115 2017  z M 4090 896  C 4198 896 4307 896 4307 1011  C 4307 1119 4211 1119 4115 1119  L 486 1119  C 390 1119 294 1119 294 1011  C 294 896 403 896 512 896  L 4090 896  z "
                 transform="scale(0.015625)" />
            </defs>
            <use
               xlink:href="#CMR17-46"
               transform="scale(0.996264)"
               id="use51" />
            <use
               xlink:href="#CMR17-75"
               transform="translate(52.176591 0) scale(0.996264)"
               id="use52" />
            <use
               xlink:href="#CMR17-6e"
               transform="translate(103.071961 0) scale(0.996264)"
               id="use53" />
            <use
               xlink:href="#CMR17-63"
               transform="translate(153.967331 0) scale(0.996264)"
               id="use54" />
            <use
               xlink:href="#CMR17-74"
               transform="translate(194.452991 0) scale(0.996264)"
               id="use55" />
            <use
               xlink:href="#CMR17-69"
               transform="translate(229.733759 0) scale(0.996264)"
               id="use56" />
            <use
               xlink:href="#CMR17-6f"
               transform="translate(254.604818 0) scale(0.996264)"
               id="use57" />
            <use
               xlink:href="#CMR17-6e"
               transform="translate(300.295295 0) scale(0.996264)"
               id="use58" />
            <use
               xlink:href="#CMR17-70"
               transform="translate(381.266631 0) scale(0.996264)"
               id="use59" />
            <use
               xlink:href="#CMR17-6c"
               transform="translate(432.162001 0) scale(0.996264)"
               id="use60" />
            <use
               xlink:href="#CMR17-6f"
               transform="translate(457.033059 0) scale(0.996264)"
               id="use61" />
            <use
               xlink:href="#CMR17-74"
               transform="translate(502.723536 0) scale(0.996264)"
               id="use62" />
            <use
               xlink:href="#CMMI12-4d"
               transform="translate(568.08027 0) scale(0.996264)"
               id="use63" />
            <use
               xlink:href="#CMR17-3d"
               transform="translate(700.534358 0) scale(0.996264)"
               id="use64" />
            <use
               xlink:href="#CMMI12-6d"
               transform="translate(799.923155 0) scale(0.996264)"
               id="use65" />
            <use
               xlink:href="#CMR17-32"
               transform="translate(885.250379 36.153639) scale(0.697382)"
               id="use66" />
          </g>
        </g>
        <g
           id="LineCollection_2">
          <path
             d="M 45.430033 27.910096  L 45.430033 20.413096  "
             style="fill: none; stroke: #ff7f0e; stroke-width: 0.5"
             id="path66" />
        </g>
        <g
           id="line2d_18">
          <g
             id="g67">
            <use
               xlink:href="#m2f8a65ba03"
               x="45.430033"
               y="27.910096"
               style="fill-opacity: 0; stroke: #ff7f0e; stroke-width: 0.5"
               id="use67" />
          </g>
        </g>
        <g
           id="line2d_19">
          <g
             id="g68">
            <use
               xlink:href="#m2f8a65ba03"
               x="45.430033"
               y="20.413096"
               style="fill-opacity: 0; stroke: #ff7f0e; stroke-width: 0.5"
               id="use68" />
          </g>
        </g>
        <g
           id="line2d_20" />
        <g
           id="line2d_21">
          <g
             id="g69">
            <use
               xlink:href="#m25c3338815"
               x="45.430033"
               y="24.161596"
               style="fill-opacity: 0; stroke: #ff7f0e; stroke-width: 0.5"
               id="use69" />
          </g>
        </g>
        <g
           id="text_16">
          <!-- Data plot -->
          <g
             transform="translate(55.176133 26.785546) scale(0.07497 -0.07497)"
             id="g77">
            <defs
               id="defs69">
              <path
                 id="CMR17-44"
                 d="M 333 4352  L 333 4186  C 774 4186 845 4186 845 3900  L 845 452  C 845 166 774 166 333 166  L 333 0  L 2368 0  C 3398 0 4224 943 4224 2141  C 4224 3346 3411 4352 2368 4352  L 333 4352  z M 1523 166  C 1267 166 1254 197 1254 414  L 1254 3938  C 1254 4155 1267 4186 1523 4186  L 2240 4186  C 2771 4186 3750 3874 3750 2141  C 3750 1242 3488 879 3366 707  C 3213 510 2848 166 2240 166  L 1523 166  z "
                 transform="scale(0.015625)" />
              <path
                 id="CMR17-61"
                 d="M 2304 1653  C 2304 2072 2304 2294 2035 2543  C 1798 2752 1523 2816 1306 2816  C 800 2816 435 2407 435 1971  C 435 1728 627 1728 666 1728  C 749 1728 896 1778 896 1954  C 896 2112 774 2181 666 2181  C 640 2181 608 2174 589 2168  C 723 2592 1069 2714 1293 2714  C 1613 2714 1965 2429 1965 1885  L 1965 1600  C 1587 1600 1133 1549 774 1357  C 371 1133 256 813 256 570  C 256 77 832 -64 1171 -64  C 1523 -64 1850 139 1990 511  C 2003 233 2182 -18 2464 -18  C 2598 -18 2938 70 2938 567  L 2938 920  L 2822 920  L 2822 562  C 2822 178 2650 128 2566 128  C 2304 128 2304 458 2304 738  L 2304 1653  z M 1965 870  C 1965 317 1568 38 1216 38  C 896 38 646 275 646 570  C 646 761 730 1100 1101 1305  C 1408 1478 1760 1504 1965 1504  L 1965 870  z "
                 transform="scale(0.015625)" />
            </defs>
            <use
               xlink:href="#CMR17-44"
               transform="scale(0.996264)"
               id="use70" />
            <use
               xlink:href="#CMR17-61"
               transform="translate(70.393556 0) scale(0.996264)"
               id="use71" />
            <use
               xlink:href="#CMR17-74"
               transform="translate(116.084033 0) scale(0.996264)"
               id="use72" />
            <use
               xlink:href="#CMR17-61"
               transform="translate(151.364801 0) scale(0.996264)"
               id="use73" />
            <use
               xlink:href="#CMR17-70"
               transform="translate(227.131244 0) scale(0.996264)"
               id="use74" />
            <use
               xlink:href="#CMR17-6c"
               transform="translate(278.026614 0) scale(0.996264)"
               id="use75" />
            <use
               xlink:href="#CMR17-6f"
               transform="translate(302.897673 0) scale(0.996264)"
               id="use76" />
            <use
               xlink:href="#CMR17-74"
               transform="translate(348.58815 0) scale(0.996264)"
               id="use77" />
          </g>
        </g>
      </g>
    </g>
  </g>
  <defs
     id="defs77">
    <clipPath
       id="pe9c4d60304">
      <rect
         x="31.185733"
         y="3.00024"
         width="395.510181"
         height="255.059296"
         id="rect77" />
    </clipPath>
  </defs>
</svg>
