<?xml version="1.0" encoding="UTF-8" standalone="no"?>
<svg
   width="432pt"
   height="288pt"
   viewBox="0 0 432 288"
   version="1.1"
   id="svg70"
   sodipodi:docname="matplotlib-plot-default.svg"
   inkscape:version="1.3 (0e150ed, 2023-07-21)"
   xmlns:inkscape="http://www.inkscape.org/namespaces/inkscape"
   xmlns:sodipodi="http://sodipodi.sourceforge.net/DTD/sodipodi-0.dtd"
   xmlns:xlink="http://www.w3.org/1999/xlink"
   xmlns="http://www.w3.org/2000/svg"
   xmlns:svg="http://www.w3.org/2000/svg"
   xmlns:rdf="http://www.w3.org/1999/02/22-rdf-syntax-ns#"
   xmlns:cc="http://creativecommons.org/ns#"
   xmlns:dc="http://purl.org/dc/elements/1.1/">
  <sodipodi:namedview
     id="namedview70"
     pagecolor="#ffffff"
     bordercolor="#000000"
     borderopacity="0.25"
     inkscape:showpageshadow="2"
     inkscape:pageopacity="0.0"
     inkscape:pagecheckerboard="0"
     inkscape:deskcolor="#d1d1d1"
     inkscape:document-units="pt"
     inkscape:zoom="0.73958333"
     inkscape:cx="288"
     inkscape:cy="191.32394"
     inkscape:window-width="1392"
     inkscape:window-height="964"
     inkscape:window-x="0"
     inkscape:window-y="25"
     inkscape:window-maximized="0"
     inkscape:current-layer="svg70" />
  <metadata
     id="metadata1">
    <rdf:RDF>
      <cc:Work>
        <dc:type
           rdf:resource="http://purl.org/dc/dcmitype/StillImage" />
        <dc:date>2024-06-28T16:05:53.281404</dc:date>
        <dc:format>image/svg+xml</dc:format>
        <dc:creator>
          <cc:Agent>
            <dc:title>Matplotlib v3.8.4, https://matplotlib.org/</dc:title>
          </cc:Agent>
        </dc:creator>
      </cc:Work>
    </rdf:RDF>
  </metadata>
  <defs
     id="defs1">
    <style
       type="text/css"
       id="style1">*{stroke-linejoin: round; stroke-linecap: butt}</style>
  </defs>
  <rect
     style="fill:#ffffff;stroke:none;stroke-width:5.6693;stroke-linecap:butt;stroke-linejoin:round;stroke-miterlimit:3.9;stroke-dashoffset:41.2775;paint-order:markers fill stroke"
     id="rect78"
     width="432"
     height="288"
     x="1.4210855e-14"
     y="-7.1054274e-15" />
  <g
     id="figure_1">
    <g
       id="patch_1">
      <path
         d="M 0 288  L 432 288  L 432 0  L 0 0  L 0 288  z "
         style="fill: none"
         id="path1" />
    </g>
    <g
       id="axes_1">
      <g
         id="patch_2">
        <path
           d="M 36.403365 254.64351  L 425.81851 254.64351  L 425.81851 3.00024  L 36.403365 3.00024  L 36.403365 254.64351  z "
           style="fill: none"
           id="path2" />
      </g>
      <g
         id="matplotlib.axis_1">
        <g
           id="xtick_1">
          <g
             id="line2d_1">
            <defs
               id="defs2">
              <path
                 id="mf1122b2d28"
                 d="M 0 0  L 0 3.5  "
                 style="stroke: #000000; stroke-width: 0.8" />
            </defs>
            <g
               id="g2">
              <use
                 xlink:href="#mf1122b2d28"
                 x="36.403365"
                 y="254.64351"
                 style="stroke: #000000; stroke-width: 0.8"
                 id="use2" />
            </g>
          </g>
          <g
             id="text_1">
            <!-- 0 -->
            <g
               transform="translate(33.222115 269.241947) scale(0.1 -0.1)"
               id="g3">
              <defs
                 id="defs3">
                <path
                   id="DejaVuSans-30"
                   d="M 2034 4250  Q 1547 4250 1301 3770  Q 1056 3291 1056 2328  Q 1056 1369 1301 889  Q 1547 409 2034 409  Q 2525 409 2770 889  Q 3016 1369 3016 2328  Q 3016 3291 2770 3770  Q 2525 4250 2034 4250  z M 2034 4750  Q 2819 4750 3233 4129  Q 3647 3509 3647 2328  Q 3647 1150 3233 529  Q 2819 -91 2034 -91  Q 1250 -91 836 529  Q 422 1150 422 2328  Q 422 3509 836 4129  Q 1250 4750 2034 4750  z "
                   transform="scale(0.015625)" />
              </defs>
              <use
                 xlink:href="#DejaVuSans-30"
                 id="use3" />
            </g>
          </g>
        </g>
        <g
           id="xtick_2">
          <g
             id="line2d_2">
            <g
               id="g4">
              <use
                 xlink:href="#mf1122b2d28"
                 x="114.286394"
                 y="254.64351"
                 style="stroke: #000000; stroke-width: 0.8"
                 id="use4" />
            </g>
          </g>
          <g
             id="text_2">
            <!-- 1 -->
            <g
               transform="translate(111.105144 269.241947) scale(0.1 -0.1)"
               id="g5">
              <defs
                 id="defs4">
                <path
                   id="DejaVuSans-31"
                   d="M 794 531  L 1825 531  L 1825 4091  L 703 3866  L 703 4441  L 1819 4666  L 2450 4666  L 2450 531  L 3481 531  L 3481 0  L 794 0  L 794 531  z "
                   transform="scale(0.015625)" />
              </defs>
              <use
                 xlink:href="#DejaVuSans-31"
                 id="use5" />
            </g>
          </g>
        </g>
        <g
           id="xtick_3">
          <g
             id="line2d_3">
            <g
               id="g6">
              <use
                 xlink:href="#mf1122b2d28"
                 x="192.169423"
                 y="254.64351"
                 style="stroke: #000000; stroke-width: 0.8"
                 id="use6" />
            </g>
          </g>
          <g
             id="text_3">
            <!-- 2 -->
            <g
               transform="translate(188.988173 269.241947) scale(0.1 -0.1)"
               id="g7">
              <defs
                 id="defs6">
                <path
                   id="DejaVuSans-32"
                   d="M 1228 531  L 3431 531  L 3431 0  L 469 0  L 469 531  Q 828 903 1448 1529  Q 2069 2156 2228 2338  Q 2531 2678 2651 2914  Q 2772 3150 2772 3378  Q 2772 3750 2511 3984  Q 2250 4219 1831 4219  Q 1534 4219 1204 4116  Q 875 4013 500 3803  L 500 4441  Q 881 4594 1212 4672  Q 1544 4750 1819 4750  Q 2544 4750 2975 4387  Q 3406 4025 3406 3419  Q 3406 3131 3298 2873  Q 3191 2616 2906 2266  Q 2828 2175 2409 1742  Q 1991 1309 1228 531  z "
                   transform="scale(0.015625)" />
              </defs>
              <use
                 xlink:href="#DejaVuSans-32"
                 id="use7" />
            </g>
          </g>
        </g>
        <g
           id="xtick_4">
          <g
             id="line2d_4">
            <g
               id="g8">
              <use
                 xlink:href="#mf1122b2d28"
                 x="270.052452"
                 y="254.64351"
                 style="stroke: #000000; stroke-width: 0.8"
                 id="use8" />
            </g>
          </g>
          <g
             id="text_4">
            <!-- 3 -->
            <g
               transform="translate(266.871202 269.241947) scale(0.1 -0.1)"
               id="g9">
              <defs
                 id="defs8">
                <path
                   id="DejaVuSans-33"
                   d="M 2597 2516  Q 3050 2419 3304 2112  Q 3559 1806 3559 1356  Q 3559 666 3084 287  Q 2609 -91 1734 -91  Q 1441 -91 1130 -33  Q 819 25 488 141  L 488 750  Q 750 597 1062 519  Q 1375 441 1716 441  Q 2309 441 2620 675  Q 2931 909 2931 1356  Q 2931 1769 2642 2001  Q 2353 2234 1838 2234  L 1294 2234  L 1294 2753  L 1863 2753  Q 2328 2753 2575 2939  Q 2822 3125 2822 3475  Q 2822 3834 2567 4026  Q 2313 4219 1838 4219  Q 1578 4219 1281 4162  Q 984 4106 628 3988  L 628 4550  Q 988 4650 1302 4700  Q 1616 4750 1894 4750  Q 2613 4750 3031 4423  Q 3450 4097 3450 3541  Q 3450 3153 3228 2886  Q 3006 2619 2597 2516  z "
                   transform="scale(0.015625)" />
              </defs>
              <use
                 xlink:href="#DejaVuSans-33"
                 id="use9" />
            </g>
          </g>
        </g>
        <g
           id="xtick_5">
          <g
             id="line2d_5">
            <g
               id="g10">
              <use
                 xlink:href="#mf1122b2d28"
                 x="347.935481"
                 y="254.64351"
                 style="stroke: #000000; stroke-width: 0.8"
                 id="use10" />
            </g>
          </g>
          <g
             id="text_5">
            <!-- 4 -->
            <g
               transform="translate(344.754231 269.241947) scale(0.1 -0.1)"
               id="g11">
              <defs
                 id="defs10">
                <path
                   id="DejaVuSans-34"
                   d="M 2419 4116  L 825 1625  L 2419 1625  L 2419 4116  z M 2253 4666  L 3047 4666  L 3047 1625  L 3713 1625  L 3713 1100  L 3047 1100  L 3047 0  L 2419 0  L 2419 1100  L 313 1100  L 313 1709  L 2253 4666  z "
                   transform="scale(0.015625)" />
              </defs>
              <use
                 xlink:href="#DejaVuSans-34"
                 id="use11" />
            </g>
          </g>
        </g>
        <g
           id="xtick_6">
          <g
             id="line2d_6">
            <g
               id="g12">
              <use
                 xlink:href="#mf1122b2d28"
                 x="425.81851"
                 y="254.64351"
                 style="stroke: #000000; stroke-width: 0.8"
                 id="use12" />
            </g>
          </g>
          <g
             id="text_6">
            <!-- 5 -->
            <g
               transform="translate(422.63726 269.241947) scale(0.1 -0.1)"
               id="g13">
              <defs
                 id="defs12">
                <path
                   id="DejaVuSans-35"
                   d="M 691 4666  L 3169 4666  L 3169 4134  L 1269 4134  L 1269 2991  Q 1406 3038 1543 3061  Q 1681 3084 1819 3084  Q 2600 3084 3056 2656  Q 3513 2228 3513 1497  Q 3513 744 3044 326  Q 2575 -91 1722 -91  Q 1428 -91 1123 -41  Q 819 9 494 109  L 494 744  Q 775 591 1075 516  Q 1375 441 1709 441  Q 2250 441 2565 725  Q 2881 1009 2881 1497  Q 2881 1984 2565 2268  Q 2250 2553 1709 2553  Q 1456 2553 1204 2497  Q 953 2441 691 2322  L 691 4666  z "
                   transform="scale(0.015625)" />
              </defs>
              <use
                 xlink:href="#DejaVuSans-35"
                 id="use13" />
            </g>
          </g>
        </g>
        <g
           id="text_7">
          <!-- $m$ -->
          <g
             transform="translate(226.210938 282.920073) scale(0.1 -0.1)"
             id="g14">
            <defs
               id="defs13">
              <path
                 id="DejaVuSans-Oblique-6d"
                 d="M 5747 2113  L 5338 0  L 4763 0  L 5166 2094  Q 5191 2228 5203 2325  Q 5216 2422 5216 2491  Q 5216 2772 5059 2928  Q 4903 3084 4622 3084  Q 4203 3084 3875 2770  Q 3547 2456 3450 1953  L 3066 0  L 2491 0  L 2900 2094  Q 2925 2209 2937 2307  Q 2950 2406 2950 2484  Q 2950 2769 2794 2926  Q 2638 3084 2363 3084  Q 1938 3084 1609 2770  Q 1281 2456 1184 1953  L 800 0  L 225 0  L 909 3500  L 1484 3500  L 1375 2956  Q 1609 3263 1923 3423  Q 2238 3584 2597 3584  Q 2978 3584 3223 3384  Q 3469 3184 3519 2828  Q 3781 3197 4126 3390  Q 4472 3584 4856 3584  Q 5306 3584 5551 3325  Q 5797 3066 5797 2591  Q 5797 2488 5784 2364  Q 5772 2241 5747 2113  z "
                 transform="scale(0.015625)" />
            </defs>
            <use
               xlink:href="#DejaVuSans-Oblique-6d"
               id="use14" />
          </g>
        </g>
      </g>
      <g
         id="matplotlib.axis_2">
        <g
           id="ytick_1">
          <g
             id="line2d_7">
            <defs
               id="defs14">
              <path
                 id="m7f322ec438"
                 d="M 0 0  L -3.5 0  "
                 style="stroke: #000000; stroke-width: 0.8" />
            </defs>
            <g
               id="g15">
              <use
                 xlink:href="#m7f322ec438"
                 x="36.403365"
                 y="243.20518"
                 style="stroke: #000000; stroke-width: 0.8"
                 id="use15" />
            </g>
          </g>
          <g
             id="text_8">
            <!-- 0 -->
            <g
               transform="translate(23.040865 247.004398) scale(0.1 -0.1)"
               id="g16">
              <use
                 xlink:href="#DejaVuSans-30"
                 id="use16" />
            </g>
          </g>
        </g>
        <g
           id="ytick_2">
          <g
             id="line2d_8">
            <g
               id="g17">
              <use
                 xlink:href="#m7f322ec438"
                 x="36.403365"
                 y="197.451858"
                 style="stroke: #000000; stroke-width: 0.8"
                 id="use17" />
            </g>
          </g>
          <g
             id="text_9">
            <!-- 5 -->
            <g
               transform="translate(23.040865 201.251076) scale(0.1 -0.1)"
               id="g18">
              <use
                 xlink:href="#DejaVuSans-35"
                 id="use18" />
            </g>
          </g>
        </g>
        <g
           id="ytick_3">
          <g
             id="line2d_9">
            <g
               id="g19">
              <use
                 xlink:href="#m7f322ec438"
                 x="36.403365"
                 y="151.698536"
                 style="stroke: #000000; stroke-width: 0.8"
                 id="use19" />
            </g>
          </g>
          <g
             id="text_10">
            <!-- 10 -->
            <g
               transform="translate(16.678365 155.497755) scale(0.1 -0.1)"
               id="g21">
              <use
                 xlink:href="#DejaVuSans-31"
                 id="use20" />
              <use
                 xlink:href="#DejaVuSans-30"
                 x="63.623047"
                 id="use21" />
            </g>
          </g>
        </g>
        <g
           id="ytick_4">
          <g
             id="line2d_10">
            <g
               id="g22">
              <use
                 xlink:href="#m7f322ec438"
                 x="36.403365"
                 y="105.945214"
                 style="stroke: #000000; stroke-width: 0.8"
                 id="use22" />
            </g>
          </g>
          <g
             id="text_11">
            <!-- 15 -->
            <g
               transform="translate(16.678365 109.744433) scale(0.1 -0.1)"
               id="g24">
              <use
                 xlink:href="#DejaVuSans-31"
                 id="use23" />
              <use
                 xlink:href="#DejaVuSans-35"
                 x="63.623047"
                 id="use24" />
            </g>
          </g>
        </g>
        <g
           id="ytick_5">
          <g
             id="line2d_11">
            <g
               id="g25">
              <use
                 xlink:href="#m7f322ec438"
                 x="36.403365"
                 y="60.191892"
                 style="stroke: #000000; stroke-width: 0.8"
                 id="use25" />
            </g>
          </g>
          <g
             id="text_12">
            <!-- 20 -->
            <g
               transform="translate(16.678365 63.991111) scale(0.1 -0.1)"
               id="g27">
              <use
                 xlink:href="#DejaVuSans-32"
                 id="use26" />
              <use
                 xlink:href="#DejaVuSans-30"
                 x="63.623047"
                 id="use27" />
            </g>
          </g>
        </g>
        <g
           id="ytick_6">
          <g
             id="line2d_12">
            <g
               id="g28">
              <use
                 xlink:href="#m7f322ec438"
                 x="36.403365"
                 y="14.43857"
                 style="stroke: #000000; stroke-width: 0.8"
                 id="use28" />
            </g>
          </g>
          <g
             id="text_13">
            <!-- 25 -->
            <g
               transform="translate(16.678365 18.237789) scale(0.1 -0.1)"
               id="g30">
              <use
                 xlink:href="#DejaVuSans-32"
                 id="use29" />
              <use
                 xlink:href="#DejaVuSans-35"
                 x="63.623047"
                 id="use30" />
            </g>
          </g>
        </g>
        <g
           id="text_14">
          <!-- $M$ -->
          <g
             transform="translate(10.598677 133.171875) rotate(-90) scale(0.1 -0.1)"
             id="g31">
            <defs
               id="defs30">
              <path
                 id="DejaVuSans-Oblique-4d"
                 d="M 1081 4666  L 2028 4666  L 2572 1522  L 4378 4666  L 5350 4666  L 4441 0  L 3828 0  L 4622 4091  L 2791 897  L 2175 897  L 1581 4103  L 788 0  L 172 0  L 1081 4666  z "
                 transform="scale(0.015625)" />
            </defs>
            <use
               xlink:href="#DejaVuSans-Oblique-4d"
               transform="translate(0 0.09375)"
               id="use31" />
          </g>
        </g>
      </g>
      <g
         id="line2d_13">
        <path
           d="M 36.403365 243.20518  L 44.979074 243.094235  L 53.554783 242.7614  L 62.130492 242.206676  L 70.706201 241.430062  L 79.281909 240.431559  L 87.857618 239.211166  L 96.433327 237.768883  L 105.009036 236.104711  L 113.584745 234.218649  L 122.160454 232.110698  L 130.736163 229.780857  L 139.311872 227.229126  L 148.277386 224.32416  L 157.242899 221.176673  L 166.208413 217.786667  L 175.173927 214.154142  L 184.139441 210.279096  L 193.104955 206.16153  L 202.070469 201.801445  L 211.035983 197.198839  L 220.001496 192.353714  L 229.356815 187.039366  L 238.712134 181.46095  L 248.067453 175.618468  L 257.422772 169.511918  L 266.77809 163.141302  L 276.133409 156.506618  L 285.488728 149.607868  L 295.233852 142.140869  L 304.978976 134.387339  L 314.724099 126.347278  L 324.469223 118.020686  L 334.214347 109.407563  L 344.349275 100.145963  L 354.484204 90.574451  L 364.619133 80.693028  L 374.754062 70.501692  L 384.88899 60.000444  L 395.413724 48.767281  L 405.938458 37.199908  L 416.463191 25.298326  L 425.81851 14.43857  L 425.81851 14.43857  "
           clip-path="url(#pe4286c4c99)"
           style="fill: none; stroke: #1f77b4; stroke-width: 1.5; stroke-linecap: square"
           id="path31" />
      </g>
      <g
         id="LineCollection_1">
        <path
           d="M 114.286394 226.733984  L 114.286394 223.073718  "
           clip-path="url(#pe4286c4c99)"
           style="fill: none; stroke: #ff7f0e; stroke-width: 1.5"
           id="path32" />
        <path
           d="M 192.169423 232.224382  L 192.169423 226.733984  "
           clip-path="url(#pe4286c4c99)"
           style="fill: none; stroke: #ff7f0e; stroke-width: 1.5"
           id="path33" />
        <path
           d="M 270.052452 157.188935  L 270.052452 142.547872  "
           clip-path="url(#pe4286c4c99)"
           style="fill: none; stroke: #ff7f0e; stroke-width: 1.5"
           id="path34" />
        <path
           d="M 347.935481 126.076676  L 347.935481 116.926011  "
           clip-path="url(#pe4286c4c99)"
           style="fill: none; stroke: #ff7f0e; stroke-width: 1.5"
           id="path35" />
      </g>
      <g
         id="line2d_14">
        <defs
           id="defs35">
          <path
             id="ma685f699e4"
             d="M -3 3  L 3 -3  M -3 -3  L 3 3  "
             style="stroke: #ff7f0e" />
        </defs>
        <g
           clip-path="url(#pe4286c4c99)"
           id="g38">
          <use
             xlink:href="#ma685f699e4"
             x="114.286394"
             y="224.903851"
             style="fill: #ff7f0e; stroke: #ff7f0e"
             id="use35" />
          <use
             xlink:href="#ma685f699e4"
             x="192.169423"
             y="229.479183"
             style="fill: #ff7f0e; stroke: #ff7f0e"
             id="use36" />
          <use
             xlink:href="#ma685f699e4"
             x="270.052452"
             y="149.868403"
             style="fill: #ff7f0e; stroke: #ff7f0e"
             id="use37" />
          <use
             xlink:href="#ma685f699e4"
             x="347.935481"
             y="121.501344"
             style="fill: #ff7f0e; stroke: #ff7f0e"
             id="use38" />
        </g>
      </g>
      <g
         id="patch_3">
        <path
           d="M 36.403365 254.64351  L 36.403365 3.00024  "
           style="fill: none; stroke: #000000; stroke-width: 0.8; stroke-linejoin: miter; stroke-linecap: square"
           id="path38" />
      </g>
      <g
         id="patch_4">
        <path
           d="M 425.81851 254.64351  L 425.81851 3.00024  "
           style="fill: none; stroke: #000000; stroke-width: 0.8; stroke-linejoin: miter; stroke-linecap: square"
           id="path39" />
      </g>
      <g
         id="patch_5">
        <path
           d="M 36.403365 254.64351  L 425.81851 254.64351  "
           style="fill: none; stroke: #000000; stroke-width: 0.8; stroke-linejoin: miter; stroke-linecap: square"
           id="path40" />
      </g>
      <g
         id="patch_6">
        <path
           d="M 36.403365 3.00024  L 425.81851 3.00024  "
           style="fill: none; stroke: #000000; stroke-width: 0.8; stroke-linejoin: miter; stroke-linecap: square"
           id="path41" />
      </g>
      <g
         id="legend_1">
        <g
           id="patch_7">
          <path
             d="M 43.403365 41.878365  L 179.903365 41.878365  Q 181.903365 41.878365 181.903365 39.878365  L 181.903365 10.00024  Q 181.903365 8.00024 179.903365 8.00024  L 43.403365 8.00024  Q 41.403365 8.00024 41.403365 10.00024  L 41.403365 39.878365  Q 41.403365 41.878365 43.403365 41.878365  z "
             style="fill: #ffffff; opacity: 0.8; stroke: #cccccc; stroke-linejoin: miter"
             id="path42" />
        </g>
        <g
           id="line2d_15">
          <path
             d="M 45.403365 17.60024  L 55.403365 17.60024  L 65.403365 17.60024  "
             style="fill: none; stroke: #1f77b4; stroke-width: 1.5; stroke-linecap: square"
             id="path43" />
        </g>
        <g
           id="text_15">
          <!-- Function plot $M=m^2$ -->
          <g
             transform="translate(73.403365 21.10024) scale(0.1 -0.1)"
             id="g60">
            <defs
               id="defs43">
              <path
                 id="DejaVuSans-46"
                 d="M 628 4666  L 3309 4666  L 3309 4134  L 1259 4134  L 1259 2759  L 3109 2759  L 3109 2228  L 1259 2228  L 1259 0  L 628 0  L 628 4666  z "
                 transform="scale(0.015625)" />
              <path
                 id="DejaVuSans-75"
                 d="M 544 1381  L 544 3500  L 1119 3500  L 1119 1403  Q 1119 906 1312 657  Q 1506 409 1894 409  Q 2359 409 2629 706  Q 2900 1003 2900 1516  L 2900 3500  L 3475 3500  L 3475 0  L 2900 0  L 2900 538  Q 2691 219 2414 64  Q 2138 -91 1772 -91  Q 1169 -91 856 284  Q 544 659 544 1381  z M 1991 3584  L 1991 3584  z "
                 transform="scale(0.015625)" />
              <path
                 id="DejaVuSans-6e"
                 d="M 3513 2113  L 3513 0  L 2938 0  L 2938 2094  Q 2938 2591 2744 2837  Q 2550 3084 2163 3084  Q 1697 3084 1428 2787  Q 1159 2491 1159 1978  L 1159 0  L 581 0  L 581 3500  L 1159 3500  L 1159 2956  Q 1366 3272 1645 3428  Q 1925 3584 2291 3584  Q 2894 3584 3203 3211  Q 3513 2838 3513 2113  z "
                 transform="scale(0.015625)" />
              <path
                 id="DejaVuSans-63"
                 d="M 3122 3366  L 3122 2828  Q 2878 2963 2633 3030  Q 2388 3097 2138 3097  Q 1578 3097 1268 2742  Q 959 2388 959 1747  Q 959 1106 1268 751  Q 1578 397 2138 397  Q 2388 397 2633 464  Q 2878 531 3122 666  L 3122 134  Q 2881 22 2623 -34  Q 2366 -91 2075 -91  Q 1284 -91 818 406  Q 353 903 353 1747  Q 353 2603 823 3093  Q 1294 3584 2113 3584  Q 2378 3584 2631 3529  Q 2884 3475 3122 3366  z "
                 transform="scale(0.015625)" />
              <path
                 id="DejaVuSans-74"
                 d="M 1172 4494  L 1172 3500  L 2356 3500  L 2356 3053  L 1172 3053  L 1172 1153  Q 1172 725 1289 603  Q 1406 481 1766 481  L 2356 481  L 2356 0  L 1766 0  Q 1100 0 847 248  Q 594 497 594 1153  L 594 3053  L 172 3053  L 172 3500  L 594 3500  L 594 4494  L 1172 4494  z "
                 transform="scale(0.015625)" />
              <path
                 id="DejaVuSans-69"
                 d="M 603 3500  L 1178 3500  L 1178 0  L 603 0  L 603 3500  z M 603 4863  L 1178 4863  L 1178 4134  L 603 4134  L 603 4863  z "
                 transform="scale(0.015625)" />
              <path
                 id="DejaVuSans-6f"
                 d="M 1959 3097  Q 1497 3097 1228 2736  Q 959 2375 959 1747  Q 959 1119 1226 758  Q 1494 397 1959 397  Q 2419 397 2687 759  Q 2956 1122 2956 1747  Q 2956 2369 2687 2733  Q 2419 3097 1959 3097  z M 1959 3584  Q 2709 3584 3137 3096  Q 3566 2609 3566 1747  Q 3566 888 3137 398  Q 2709 -91 1959 -91  Q 1206 -91 779 398  Q 353 888 353 1747  Q 353 2609 779 3096  Q 1206 3584 1959 3584  z "
                 transform="scale(0.015625)" />
              <path
                 id="DejaVuSans-20"
                 transform="scale(0.015625)" />
              <path
                 id="DejaVuSans-70"
                 d="M 1159 525  L 1159 -1331  L 581 -1331  L 581 3500  L 1159 3500  L 1159 2969  Q 1341 3281 1617 3432  Q 1894 3584 2278 3584  Q 2916 3584 3314 3078  Q 3713 2572 3713 1747  Q 3713 922 3314 415  Q 2916 -91 2278 -91  Q 1894 -91 1617 61  Q 1341 213 1159 525  z M 3116 1747  Q 3116 2381 2855 2742  Q 2594 3103 2138 3103  Q 1681 3103 1420 2742  Q 1159 2381 1159 1747  Q 1159 1113 1420 752  Q 1681 391 2138 391  Q 2594 391 2855 752  Q 3116 1113 3116 1747  z "
                 transform="scale(0.015625)" />
              <path
                 id="DejaVuSans-6c"
                 d="M 603 4863  L 1178 4863  L 1178 0  L 603 0  L 603 4863  z "
                 transform="scale(0.015625)" />
              <path
                 id="DejaVuSans-3d"
                 d="M 678 2906  L 4684 2906  L 4684 2381  L 678 2381  L 678 2906  z M 678 1631  L 4684 1631  L 4684 1100  L 678 1100  L 678 1631  z "
                 transform="scale(0.015625)" />
            </defs>
            <use
               xlink:href="#DejaVuSans-46"
               transform="translate(0 0.765625)"
               id="use43" />
            <use
               xlink:href="#DejaVuSans-75"
               transform="translate(57.519531 0.765625)"
               id="use44" />
            <use
               xlink:href="#DejaVuSans-6e"
               transform="translate(120.898438 0.765625)"
               id="use45" />
            <use
               xlink:href="#DejaVuSans-63"
               transform="translate(184.277344 0.765625)"
               id="use46" />
            <use
               xlink:href="#DejaVuSans-74"
               transform="translate(239.257812 0.765625)"
               id="use47" />
            <use
               xlink:href="#DejaVuSans-69"
               transform="translate(278.466797 0.765625)"
               id="use48" />
            <use
               xlink:href="#DejaVuSans-6f"
               transform="translate(306.25 0.765625)"
               id="use49" />
            <use
               xlink:href="#DejaVuSans-6e"
               transform="translate(367.431641 0.765625)"
               id="use50" />
            <use
               xlink:href="#DejaVuSans-20"
               transform="translate(430.810547 0.765625)"
               id="use51" />
            <use
               xlink:href="#DejaVuSans-70"
               transform="translate(462.597656 0.765625)"
               id="use52" />
            <use
               xlink:href="#DejaVuSans-6c"
               transform="translate(526.074219 0.765625)"
               id="use53" />
            <use
               xlink:href="#DejaVuSans-6f"
               transform="translate(553.857422 0.765625)"
               id="use54" />
            <use
               xlink:href="#DejaVuSans-74"
               transform="translate(615.039062 0.765625)"
               id="use55" />
            <use
               xlink:href="#DejaVuSans-20"
               transform="translate(654.248047 0.765625)"
               id="use56" />
            <use
               xlink:href="#DejaVuSans-Oblique-4d"
               transform="translate(686.035156 0.765625)"
               id="use57" />
            <use
               xlink:href="#DejaVuSans-3d"
               transform="translate(791.796875 0.765625)"
               id="use58" />
            <use
               xlink:href="#DejaVuSans-Oblique-6d"
               transform="translate(895.068359 0.765625)"
               id="use59" />
            <use
               xlink:href="#DejaVuSans-32"
               transform="translate(997.130365 39.046875) scale(0.7)"
               id="use60" />
          </g>
        </g>
        <g
           id="LineCollection_2">
          <path
             d="M 55.403365 37.298677  L 55.403365 27.298677  "
             style="fill: none; stroke: #ff7f0e; stroke-width: 1.5"
             id="path60" />
        </g>
        <g
           id="line2d_16" />
        <g
           id="line2d_17">
          <g
             id="g61">
            <use
               xlink:href="#ma685f699e4"
               x="55.403365"
               y="32.298677"
               style="fill: #ff7f0e; stroke: #ff7f0e"
               id="use61" />
          </g>
        </g>
        <g
           id="text_16">
          <!-- Data plot -->
          <g
             transform="translate(73.403365 35.798677) scale(0.1 -0.1)"
             id="g70">
            <defs
               id="defs61">
              <path
                 id="DejaVuSans-44"
                 d="M 1259 4147  L 1259 519  L 2022 519  Q 2988 519 3436 956  Q 3884 1394 3884 2338  Q 3884 3275 3436 3711  Q 2988 4147 2022 4147  L 1259 4147  z M 628 4666  L 1925 4666  Q 3281 4666 3915 4102  Q 4550 3538 4550 2338  Q 4550 1131 3912 565  Q 3275 0 1925 0  L 628 0  L 628 4666  z "
                 transform="scale(0.015625)" />
              <path
                 id="DejaVuSans-61"
                 d="M 2194 1759  Q 1497 1759 1228 1600  Q 959 1441 959 1056  Q 959 750 1161 570  Q 1363 391 1709 391  Q 2188 391 2477 730  Q 2766 1069 2766 1631  L 2766 1759  L 2194 1759  z M 3341 1997  L 3341 0  L 2766 0  L 2766 531  Q 2569 213 2275 61  Q 1981 -91 1556 -91  Q 1019 -91 701 211  Q 384 513 384 1019  Q 384 1609 779 1909  Q 1175 2209 1959 2209  L 2766 2209  L 2766 2266  Q 2766 2663 2505 2880  Q 2244 3097 1772 3097  Q 1472 3097 1187 3025  Q 903 2953 641 2809  L 641 3341  Q 956 3463 1253 3523  Q 1550 3584 1831 3584  Q 2591 3584 2966 3190  Q 3341 2797 3341 1997  z "
                 transform="scale(0.015625)" />
            </defs>
            <use
               xlink:href="#DejaVuSans-44"
               id="use62" />
            <use
               xlink:href="#DejaVuSans-61"
               x="77.001953"
               id="use63" />
            <use
               xlink:href="#DejaVuSans-74"
               x="138.28125"
               id="use64" />
            <use
               xlink:href="#DejaVuSans-61"
               x="177.490234"
               id="use65" />
            <use
               xlink:href="#DejaVuSans-20"
               x="238.769531"
               id="use66" />
            <use
               xlink:href="#DejaVuSans-70"
               x="270.556641"
               id="use67" />
            <use
               xlink:href="#DejaVuSans-6c"
               x="334.033203"
               id="use68" />
            <use
               xlink:href="#DejaVuSans-6f"
               x="361.816406"
               id="use69" />
            <use
               xlink:href="#DejaVuSans-74"
               x="422.998047"
               id="use70" />
          </g>
        </g>
      </g>
    </g>
  </g>
  <defs
     id="defs70">
    <clipPath
       id="pe4286c4c99">
      <rect
         x="36.403365"
         y="3.00024"
         width="389.415145"
         height="251.64327"
         id="rect70" />
    </clipPath>
  </defs>
</svg>
