<?xml version="1.0" encoding="UTF-8" standalone="no"?>
<!-- Created with Inkscape (http://www.inkscape.org/) -->

<svg
   width="222.74557mm"
   height="222.74557mm"
   viewBox="0 0 222.74557 222.74557"
   version="1.1"
   id="svg21442"
   xml:space="preserve"
   inkscape:version="1.2.1 (9c6d41e, 2022-07-14)"
   sodipodi:docname="no-touchy.svg"
   xmlns:inkscape="http://www.inkscape.org/namespaces/inkscape"
   xmlns:sodipodi="http://sodipodi.sourceforge.net/DTD/sodipodi-0.dtd"
   xmlns="http://www.w3.org/2000/svg"
   xmlns:svg="http://www.w3.org/2000/svg"><sodipodi:namedview
     id="namedview21444"
     pagecolor="#ffffff"
     bordercolor="#000000"
     borderopacity="0.25"
     inkscape:showpageshadow="2"
     inkscape:pageopacity="0.0"
     inkscape:pagecheckerboard="0"
     inkscape:deskcolor="#d1d1d1"
     inkscape:document-units="mm"
     showgrid="false"
     inkscape:zoom="0.37454221"
     inkscape:cx="44.05378"
     inkscape:cy="419.17839"
     inkscape:window-width="1512"
     inkscape:window-height="850"
     inkscape:window-x="0"
     inkscape:window-y="38"
     inkscape:window-maximized="0"
     inkscape:current-layer="layer1" /><defs
     id="defs21439" /><g
     inkscape:label="Layer 1"
     inkscape:groupmode="layer"
     id="layer1"
     transform="translate(13.085037,-53.610214)"><path
       d="m 113.75857,111.3579 c -4.31331,0.32261 -7.41293,3.0318 -14.132541,12.41266 -2.28788,3.17656 -2.81976,3.76281 -5.88434,6.41891 -2.999693,2.56939 -4.535651,4.26084 -5.844078,6.34642 -0.516632,0.8402 -2.852476,5.12829 -5.180689,9.54335 -3.507249,6.63941 -9.427301,16.92163 -9.914739,17.18666 -0.07381,0.0427 -0.08677,-0.0648 -0.03988,-0.23974 0.04167,-0.15541 0.01507,-1.76583 -0.08642,-3.56288 -0.08206,-1.79186 -0.122864,-3.42692 -0.07599,-3.60175 0.05203,-0.19426 0.01876,-0.53633 -0.07558,-0.7282 -0.08915,-0.21127 -0.357851,-1.92821 -0.560295,-3.81477 -0.717936,-6.33485 -2.271796,-10.24928 -5.849903,-14.76859 -3.97909,-5.04318 -8.915629,-6.824 -12.074552,-4.35975 -0.949238,0.7451 -1.812502,2.17957 -1.892728,3.17833 -0.01601,0.37051 0.64014,3.12824 1.487771,6.10387 1.588057,5.65181 1.837723,7.05131 1.788164,10.57776 -0.09978,6.51135 -1.122019,13.0462 -3.41243,21.59413 -2.071783,7.73199 -2.255469,9.66086 -1.414658,15.07081 0.848436,5.53694 1.273949,11.56437 1.244995,17.34512 -0.05928,11.64438 -2.146407,20.28843 -6.956483,28.68177 -0.54266,0.93732 -2.657085,4.24365 -4.719446,7.3557 -3.509559,5.32701 -3.705601,5.6701 -3.558558,6.20923 0.201144,0.80349 0.924781,1.28889 1.678996,1.11618 0.514502,-0.13282 0.625856,-0.0821 1.086516,0.37442 5.188799,5.34649 15.848406,12.03396 24.63075,15.46992 1.943744,0.74988 7.222711,2.18518 8.795282,2.37754 0.564782,0.0681 1.031022,0.19297 1.010201,0.27067 -0.08328,0.31083 0.599733,1.18097 1.027124,1.2955 0.932502,0.24986 1.325603,-0.207 4.612082,-5.32311 1.753574,-2.7367 4.754473,-7.40878 6.658649,-10.39664 1.904156,-2.98785 3.760061,-5.71798 4.132348,-6.09712 0.367428,-0.35939 2.24231,-1.91863 4.175831,-3.46192 5.39986,-4.29996 8.384311,-7.1233 13.032461,-12.27016 5.61337,-6.26249 9.74851,-12.52542 13.1257,-19.84516 0.95214,-2.07694 1.55966,-3.101 2.99749,-5.04779 1.00826,-1.35395 2.4995,-3.57795 3.32254,-4.93988 0.9087,-1.52636 2.1831,-3.32956 3.27809,-4.61862 1.00028,-1.16869 2.53522,-3.08945 3.41893,-4.28939 1.54813,-2.12544 1.65188,-2.20175 3.92988,-3.63191 1.46895,-0.89737 3.27269,-2.2672 4.77846,-3.61278 2.60556,-2.34184 4.15919,-3.63295 6.7592,-5.64312 2.88135,-2.20548 5.74629,-5.7479 6.90515,-8.51908 0.76267,-1.8362 0.6585,-4.63342 -0.24229,-6.4781 -0.66563,-1.32355 -1.58456,-2.09031 -2.9833,-2.46512 -2.2147,-0.59342 -3.58092,-0.002 -9.33426,4.14109 -1.74791,1.23905 -4.87523,3.27452 -6.93015,4.49376 -4.68677,2.80445 -7.23472,4.62036 -12.78135,9.23499 -2.43417,2.01295 -4.41695,3.5847 -4.42978,3.47714 9.6e-4,-0.0829 1.40378,-1.66439 3.14201,-3.48906 1.73302,-1.80525 4.69845,-4.94599 6.59104,-6.95831 1.89266,-2.01233 4.2779,-4.3091 5.28684,-5.12149 2.72455,-2.16421 5.09802,-4.33919 6.6444,-6.0695 0.74597,-0.8412 2.0637,-2.02895 2.95703,-2.6433 3.40628,-2.37714 7.51695,-6.60611 8.72202,-8.92758 1.59851,-3.0906 2.01302,-6.26939 1.09418,-8.20217 -0.73533,-1.52963 -1.55852,-2.18747 -3.4093,-2.66256 -1.74845,-0.4685 -3.28633,-0.40167 -4.89229,0.22995 -0.53532,0.21052 -3.89753,2.57867 -7.58797,5.31695 -6.35392,4.75224 -8.80194,6.42837 -14.01921,9.73616 -1.30694,0.83665 -2.81369,1.95291 -3.32476,2.46147 -0.51647,0.52774 -0.96254,0.94966 -1.0013,0.93936 -0.0195,-0.004 0.44135,-0.71463 1.04089,-1.55342 1.67931,-2.38182 6.7621,-6.97496 12.20181,-11.03519 4.71357,-3.52606 9.44667,-8.2129 11.65446,-11.55664 1.46142,-2.19034 1.55289,-5.01843 0.23929,-7.2652 -0.91018,-1.57648 -1.98835,-2.4484 -3.77423,-3.01021 -1.8584,-0.60207 -2.96373,-0.44015 -5.79991,0.81962 -4.345,1.91741 -7.43726,3.8998 -12.02284,7.64754 -1.25663,1.03752 -3.9874,2.99185 -6.06455,4.37171 -2.07713,1.37987 -5.09831,3.48543 -6.73345,4.69224 -3.27027,2.41358 -3.47394,2.62969 -7.53723,8.39135 -2.46448,3.52485 -4.646551,7.08372 -5.899871,9.66297 -0.5156,1.06952 -0.98438,1.96419 -1.00902,1.97841 -0.0294,0.0341 -0.15019,-0.0611 -0.26536,-0.17521 -0.16261,-0.16906 0.14617,-0.85621 1.39385,-3.10379 1.94237,-3.51899 3.599561,-6.90618 4.891061,-10.01657 0.94071,-2.26739 1.05104,-2.44604 3.2254,-4.9659 2.46374,-2.90039 3.90435,-5.013 5.13162,-7.49512 0.42991,-0.90508 1.03085,-1.82679 1.30841,-2.08558 1.88047,-1.57833 6.49505,-7.92105 8.05091,-11.08551 1.66238,-3.40661 1.57699,-6.74018 -0.24831,-9.01996 -1.26128,-1.58728 -3.40689,-2.51616 -5.48774,-2.36579 z"
       id="path21577"
       style="fill:#000000;stroke:none;stroke-width:0.0201124" /><circle
       style="opacity:1;fill:none;stroke:#ff0000;stroke-width:25;stroke-linecap:round;stroke-linejoin:round;stroke-dasharray:none;stroke-dashoffset:4.7622;paint-order:markers fill stroke"
       id="path21646"
       cx="98.28775"
       cy="164.983"
       r="98.872787" /><path
       style="opacity:1;fill:none;stroke:#ff0000;stroke-width:25;stroke-linecap:round;stroke-linejoin:round;stroke-dasharray:none;stroke-dashoffset:4.7622;paint-order:markers fill stroke"
       d="M 166.00684,232.70209 30.56866,97.263914"
       id="path22126"
       sodipodi:nodetypes="cc" /></g></svg>
